<svg width="116" height="32" viewBox="0 0 116 32" fill="none" xmlns="http://www.w3.org/2000/svg">
<g clip-path="url(#clip0)">
<path d="M98.3693 9.08008H97.718C97.0325 9.08008 96.4841 9.62016 96.4841 10.2953V20.7594C96.4841 21.4345 97.0325 21.9746 97.718 21.9746H98.3693C99.0548 21.9746 99.6032 21.4345 99.6032 20.7594V10.2953C99.5689 9.62016 99.0205 9.08008 98.3693 9.08008Z" fill="#FF6400"/>
<path d="M77.4274 5.09705C76.7762 5.09705 76.2278 5.63713 76.2278 6.27848V20.7932C76.2278 21.4346 76.7762 21.9747 77.4274 21.9747H78.1472C78.7641 21.9747 79.2783 21.4684 79.2783 20.8608V16.135H79.861L84.5567 21.4346C84.7623 21.6709 85.1051 21.8397 85.4135 21.8397H86.339C86.7845 21.8397 87.1958 21.6034 87.3672 21.1646C87.5386 20.7595 87.5043 20.2869 87.1958 19.9494L82.5344 14.6835L86.6132 10.903C86.9559 10.5992 87.0587 10.0928 86.8874 9.65401C86.716 9.21519 86.3047 8.94515 85.8248 8.94515H84.8994C84.5909 8.94515 84.3167 9.04641 84.1111 9.2827L80.0323 13.2321H79.2783V6.21097C79.2783 5.60337 78.7641 5.09705 78.1472 5.09705" fill="#FF6400"/>
<path d="M91.2402 5.09705C90.5889 5.09705 90.0405 5.63713 90.0405 6.27848V20.7932C90.0405 21.4346 90.5889 21.9747 91.2402 21.9747H91.8914C92.5426 21.9747 93.091 21.4346 93.091 20.7932V6.27848C93.091 5.63713 92.5426 5.09705 91.8914 5.09705" fill="#FF6400"/>
<path d="M110.708 15.5274L114.821 10.6666C115.061 10.3628 115.13 9.99153 114.958 9.65398C114.787 9.31642 114.444 9.11389 114.067 9.11389H112.628C112.354 9.11389 112.079 9.24891 111.874 9.45144L108.755 13.1645L105.636 9.45144C105.464 9.21516 105.19 9.11389 104.882 9.11389H103.442C103.065 9.11389 102.722 9.31642 102.551 9.65398C102.379 9.99153 102.448 10.3966 102.688 10.6666L106.732 15.5274L102.654 20.3882C102.414 20.6919 102.345 21.0633 102.517 21.4008C102.688 21.7384 103.031 21.9409 103.408 21.9409H104.847C105.121 21.9409 105.396 21.8059 105.601 21.6033L108.72 17.8903L111.839 21.6033C112.011 21.8396 112.285 21.9409 112.593 21.9409H114.033C114.41 21.9409 114.753 21.7384 114.924 21.4008C115.096 21.0633 115.027 20.6582 114.787 20.3882L110.708 15.5274Z" fill="#FF6400"/>
<path d="M97.718 4.82709C97.0325 4.82709 96.4841 5.5022 96.4841 6.34608V7.08869C96.4841 7.56127 96.8954 7.96633 97.3753 7.96633H98.6777C99.1576 7.96633 99.5689 7.56127 99.5689 7.08869V6.31232C99.5689 5.46844 99.0205 4.79333 98.335 4.79333" fill="#FF6400"/>
<path d="M46.8197 9.78896C45.7915 9.18136 44.6261 8.87756 43.2894 8.87756C41.9869 8.87756 40.7873 9.18136 39.7591 9.78896C38.7308 10.3966 37.9425 11.2404 37.3598 12.2531C36.7771 13.2657 36.5029 14.4134 36.5029 15.5949C36.5029 16.81 36.8114 17.924 37.3598 18.9366C37.9425 19.9493 38.7651 20.7594 39.7591 21.4008C40.7873 22.0084 41.9527 22.3122 43.2894 22.3122C44.5918 22.3122 45.7915 22.0084 46.8197 21.4008C47.848 20.7932 48.6363 19.9493 49.219 18.9366C49.8016 17.924 50.0758 16.81 50.0758 15.5949C50.0758 14.3797 49.7674 13.2657 49.219 12.2531C48.6363 11.2404 47.8137 10.3966 46.8197 9.78896ZM46.9568 15.5949C46.9568 16.27 46.8197 16.8776 46.5112 17.4514C46.2028 18.0252 45.7915 18.4641 45.2431 18.8354C44.6947 19.1729 44.0434 19.3417 43.3237 19.3417C42.6039 19.3417 41.9527 19.1729 41.4043 18.8354C40.8559 18.4978 40.4103 18.0252 40.1361 17.4514C39.8276 16.8776 39.6905 16.27 39.6905 15.5949C39.6905 14.9198 39.8276 14.2784 40.1361 13.7046C40.4446 13.1307 40.8559 12.6919 41.4043 12.3206C41.9527 11.983 42.6039 11.8143 43.3237 11.8143C44.0777 11.8143 44.7289 11.983 45.2431 12.3206C45.7915 12.6582 46.2028 13.1307 46.5112 13.7046C46.7854 14.2784 46.9568 14.9198 46.9568 15.5949Z" fill="#002EB4"/>
<path d="M70.298 9.78896C69.2697 9.18136 68.1044 8.87756 66.7677 8.87756C65.4652 8.87756 64.2656 9.18136 63.2373 9.78896C62.2091 10.3966 61.4208 11.2404 60.8381 12.2531C60.2554 13.2657 59.9812 14.4134 59.9812 15.5949C59.9812 16.81 60.2897 17.924 60.8381 18.9366C61.4208 19.9493 62.2434 20.7594 63.2373 21.4008C64.2656 22.0084 65.4309 22.3122 66.7677 22.3122C68.0701 22.3122 69.2697 22.0084 70.298 21.4008C71.3262 20.7932 72.1146 19.9493 72.6972 18.9366C73.2799 17.924 73.5541 16.81 73.5541 15.5949C73.5541 14.3797 73.2456 13.2657 72.6972 12.2531C72.1146 11.2404 71.3262 10.3966 70.298 9.78896ZM70.4351 15.5949C70.4351 16.27 70.298 16.8776 69.9895 17.4514C69.681 18.0252 69.2697 18.4641 68.7213 18.8354C68.1729 19.1729 67.5217 19.3417 66.8019 19.3417C66.0822 19.3417 65.4309 19.1729 64.8825 18.8354C64.3341 18.4978 63.8886 18.0252 63.6144 17.4514C63.3059 16.8776 63.1688 16.27 63.1688 15.5949C63.1688 14.9198 63.3059 14.2784 63.6144 13.7046C63.9228 13.1307 64.3341 12.6919 64.8825 12.3206C65.4309 11.983 66.0822 11.8143 66.8019 11.8143C67.556 11.8143 68.2072 11.983 68.7213 12.3206C69.2697 12.6582 69.681 13.1307 69.9895 13.7046C70.2637 14.2784 70.4351 14.9198 70.4351 15.5949Z" fill="#002EB4"/>
<path d="M53.6404 5.09705C53.0234 5.09705 52.5093 5.60337 52.5093 6.21097V19.8819C52.5093 21.1983 53.6061 22.2785 54.9428 22.2785H57.0679C57.6848 22.2785 58.199 21.7722 58.199 21.1646V20.4894C58.199 19.8819 57.6848 19.3755 57.0679 19.3755H55.594V12.0506H57.0679C57.6848 12.0506 58.199 11.5443 58.199 10.9367V10.2954C58.199 9.68776 57.6848 9.18143 57.0679 9.18143H55.594V6.31224C55.594 5.70464 55.0799 5.19831 54.463 5.19831" fill="#002EB4"/>
<path d="M16.3833 0C9.97391 0 4.38708 3.61181 1.71362 8.87764L5.0383 12.1519C5.92945 13.0295 6.34075 14.211 6.37503 15.4262C6.37503 15.4262 6.37503 15.4262 6.37503 15.4599C6.37503 17.1139 7.02625 18.5992 8.26016 19.7806C9.49406 20.9958 10.9679 21.6034 12.6474 21.6371C13.2643 21.6371 13.847 21.5696 14.4297 21.4008L9.49406 16.5401L10.4195 13.1308L13.8813 12.2194L18.7826 17.0464C18.954 16.4726 19.0568 15.8987 19.0225 15.2911C19.0225 13.6371 18.3713 12.1857 17.1374 10.9705C15.9035 9.75527 14.4297 9.11392 12.7502 9.11392C12.6131 9.11392 12.5103 9.11392 12.2361 9.08017C11.0707 8.94515 10.0082 8.43882 9.18558 7.62869L8.43153 6.88608C10.5566 5.1308 13.3329 4.05063 16.3491 4.05063C23.1012 4.05063 28.6195 9.41772 28.6195 16.0338C28.6195 16.4051 28.5853 16.7426 28.5853 17.1139C28.551 17.654 28.7224 18.1941 29.0994 18.5654L31.8414 21.2658C32.4241 19.6118 32.7325 17.8565 32.7325 16.0338C32.7668 7.15612 25.432 0 16.3833 0Z" fill="#FF6400"/>
<path d="M27.7285 19.8818C26.8373 19.0042 26.3918 17.8228 26.3918 16.6076C26.3918 16.6076 26.3918 16.6076 26.3918 16.5738C26.3918 14.9198 25.7405 13.4346 24.5066 12.2531C23.2727 11.038 21.7989 10.4304 20.1194 10.3966C19.5025 10.3966 18.9198 10.4641 18.3371 10.6329L23.2385 15.4599L22.313 18.8692L18.8513 19.7806L13.9499 14.9536C13.7786 15.5274 13.71 16.1012 13.71 16.7088C13.71 18.3628 14.3612 19.8143 15.5951 21.0295C16.829 22.2447 18.3029 22.8861 19.9823 22.8861C20.1194 22.8861 20.2223 22.8861 20.4965 22.9198C21.6618 23.0548 22.7243 23.5612 23.5469 24.3713L24.301 25.1139C22.1759 26.8692 19.3997 27.9493 16.3835 27.9493C9.63128 27.9831 4.113 22.616 4.113 16C4.113 15.6624 4.113 15.3586 4.14728 15.0548C4.18155 14.4472 4.01018 13.8396 3.5646 13.4346L0.891151 10.8017C0.308475 12.4219 0 14.1772 0 16C0 24.8439 7.33486 32 16.3835 32C22.7929 32 28.3797 28.3882 31.0532 23.1223L27.7285 19.8818Z" fill="#002EB4"/>
</g>
<defs>
<clipPath id="clip0">
<rect width="115.027" height="32" fill="white"/>
</clipPath>
</defs>
</svg>
