<svg width="80" height="24" viewBox="0 0 80 24" fill="none" xmlns="http://www.w3.org/2000/svg">
<path d="M51.2762 12.5396H50.755C50.204 12.5396 49.7559 12.9877 49.7559 13.5387V22.2557C49.7559 22.8068 50.204 23.2549 50.755 23.2549H51.2762C51.8272 23.2549 52.2754 22.8068 52.2754 22.2557V13.5387C52.272 12.9877 51.8239 12.5396 51.2762 12.5396Z" fill="#FF6400"/>
<path d="M34.1064 9.2002C33.562 9.2002 33.1172 9.64501 33.1172 10.1894V22.2658C33.1172 22.8102 33.562 23.255 34.1064 23.255H34.6973C35.2151 23.255 35.6367 22.8334 35.6367 22.3155V18.4085H36.1247L39.9686 22.8334C40.1479 23.0392 40.4068 23.1554 40.679 23.1554H41.4359C41.8076 23.1554 42.1363 22.9463 42.2923 22.6043C42.4483 22.2658 42.3919 21.8807 42.1462 21.5985L38.3288 17.2035L41.6649 14.0666C41.9471 13.801 42.0367 13.396 41.894 13.0342C41.7512 12.6724 41.4093 12.44 41.0209 12.44H40.2674C40.0184 12.44 39.7861 12.5363 39.6101 12.7089L36.2674 15.9853H35.6433V10.1396C35.6433 9.62177 35.2217 9.2002 34.7039 9.2002" fill="#FF6400"/>
<path d="M45.4228 9.2002C44.8784 9.2002 44.4336 9.64501 44.4336 10.1894V22.2658C44.4336 22.8102 44.8784 23.255 45.4228 23.255H45.9639C46.5083 23.255 46.9531 22.8102 46.9531 22.2658V10.1894C46.9531 9.64501 46.5083 9.2002 45.9639 9.2002" fill="#FF6400"/>
<path d="M61.4037 17.8972L64.7597 13.8441C64.9588 13.6051 64.9987 13.2798 64.8659 12.9976C64.7331 12.7155 64.4576 12.5396 64.1456 12.5396H62.9505C62.7115 12.5396 62.4891 12.6458 62.3364 12.8283L59.7705 15.9288L57.2045 12.8283C57.0518 12.6458 56.8294 12.5396 56.5904 12.5396H55.3954C55.0833 12.5396 54.8078 12.7155 54.675 12.9976C54.5423 13.2798 54.5821 13.6051 54.7813 13.8441L58.1373 17.8972L54.7813 21.9503C54.5821 22.1893 54.5423 22.5147 54.675 22.7968C54.8078 23.079 55.0833 23.2549 55.3954 23.2549H56.5904C56.8294 23.2549 57.0518 23.1487 57.2045 22.9661L59.7705 19.8657L62.3364 22.9661C62.4891 23.1487 62.7115 23.2549 62.9505 23.2549H64.1456C64.4576 23.2549 64.7331 23.079 64.8659 22.7968C64.9987 22.5147 64.9588 22.1893 64.7597 21.9503L61.4037 17.8972Z" fill="#FF6400"/>
<path d="M50.755 8.98438C50.204 8.98438 49.7559 9.54537 49.7559 10.2391V10.8831C49.7559 11.2848 50.0845 11.6134 50.4861 11.6134H51.5451C51.9467 11.6134 52.2754 11.2848 52.2754 10.8831V10.2391C52.2754 9.54869 51.8272 8.98438 51.2762 8.98438" fill="#FF6400"/>
<path d="M9.01473 13.1172C8.1749 12.606 7.2056 12.3438 6.13008 12.3438C5.05788 12.3438 4.08527 12.6027 3.24544 13.1172C2.40892 13.6251 1.74502 14.3155 1.27033 15.1653C0.795645 16.0151 0.556641 16.9512 0.556641 17.957C0.556641 18.9595 0.798964 19.8956 1.27365 20.7388C1.74834 21.5819 2.41224 22.2657 3.24544 22.7769C4.08527 23.2881 5.05456 23.5504 6.13008 23.5504C7.20228 23.5504 8.1749 23.2915 9.01473 22.7769C9.85124 22.2691 10.5118 21.5819 10.9865 20.7388C11.4612 19.8956 11.7035 18.9595 11.7035 17.957C11.7035 16.9545 11.4645 16.0151 10.9898 15.1653C10.5118 14.3155 9.84793 13.6251 9.01473 13.1172ZM9.12427 17.957C9.12427 18.5081 8.99813 19.0292 8.75249 19.5006C8.51017 19.9686 8.16162 20.3537 7.71349 20.6425C7.27531 20.9247 6.74087 21.0707 6.12676 21.0707C5.52593 21.0707 4.99481 20.928 4.54668 20.6425C4.09523 20.3537 3.74336 19.972 3.50104 19.5039C3.2554 19.0292 3.12925 18.5114 3.12925 17.9603C3.12925 17.396 3.2554 16.8682 3.50104 16.3969C3.74336 15.9288 4.09523 15.5471 4.54668 15.2583C4.99149 14.9728 5.52261 14.8301 6.12676 14.8301C6.74087 14.8301 7.27531 14.9728 7.71349 15.2583C8.1583 15.5471 8.51017 15.9288 8.75249 16.3969C9.00145 16.8649 9.12427 17.3927 9.12427 17.957Z" fill="#002EB4"/>
<path d="M28.2647 13.1172C27.4249 12.606 26.4556 12.3438 25.3801 12.3438C24.3079 12.3438 23.3353 12.6027 22.4954 13.1172C21.6589 13.6251 20.995 14.3155 20.5203 15.1653C20.0456 16.0151 19.8066 16.9545 19.8066 17.957C19.8066 18.9595 20.049 19.8956 20.5237 20.7388C20.9983 21.5819 21.6622 22.2657 22.4954 22.7769C23.3353 23.2881 24.3046 23.5504 25.3801 23.5504C26.4523 23.5504 27.4249 23.2915 28.2647 22.7769C29.1012 22.2691 29.7618 21.5819 30.2365 20.7388C30.7112 19.8956 30.9535 18.9595 30.9535 17.957C30.9535 16.9545 30.7145 16.0151 30.2398 15.1653C29.7651 14.3155 29.1012 13.6251 28.2647 13.1172ZM28.3776 17.957C28.3776 18.5081 28.2515 19.0292 28.0058 19.5006C27.7635 19.9686 27.4149 20.3537 26.9668 20.6425C26.5286 20.9247 25.9942 21.0707 25.3801 21.0707C24.7793 21.0707 24.2481 20.928 23.8 20.6425C23.3485 20.3537 22.9967 19.972 22.7544 19.5039C22.5087 19.0292 22.3826 18.5114 22.3826 17.9603C22.3826 17.396 22.5087 16.8682 22.7544 16.3969C22.9967 15.9288 23.3485 15.5471 23.8 15.2583C24.2448 14.9728 24.7759 14.8301 25.3801 14.8301C25.9942 14.8301 26.5286 14.9728 26.9668 15.2583C27.4116 15.5471 27.7635 15.9288 28.0058 16.3969C28.2515 16.8649 28.3776 17.3927 28.3776 17.957Z" fill="#002EB4"/>
<path d="M14.6017 9.2001C14.0839 9.2001 13.659 9.62167 13.659 10.1395L13.6523 21.5221C13.6523 22.6175 14.542 23.5072 15.6374 23.5072H17.3801C17.898 23.5072 18.3229 23.0856 18.3229 22.5677V22.0101C18.3229 21.4922 17.9013 21.0673 17.3801 21.0673H16.1752L16.1818 14.9594H17.3801C17.898 14.9594 18.3229 14.5379 18.3229 14.0167V13.4789C18.3229 12.9611 17.9013 12.5362 17.3801 12.5362H16.1818V10.1362C16.1818 9.61835 15.7602 9.19678 15.2391 9.19678" fill="#002EB4"/>
<path d="M69.9179 7.80563H71.0896C71.0565 7.96497 70.9867 8.10439 70.8838 8.23053C70.7809 8.35667 70.6515 8.45294 70.5021 8.52597C70.3494 8.599 70.1834 8.63219 69.9975 8.63219C69.815 8.63219 69.649 8.599 69.493 8.53261C69.3369 8.46622 69.2042 8.37659 69.088 8.26041C68.9718 8.14422 68.8822 8.00813 68.8191 7.84879C68.756 7.68945 68.7228 7.51684 68.7228 7.33427C68.7228 7.14505 68.7527 6.97244 68.8158 6.81974C68.8789 6.66373 68.9652 6.53095 69.078 6.41476C69.1909 6.29858 69.3204 6.20895 69.4731 6.14256C69.6258 6.07617 69.7917 6.04298 69.971 6.04298C70.1867 6.04298 70.3859 6.08613 70.5685 6.17244C70.7511 6.25875 70.9104 6.38821 71.0465 6.5575L71.6174 6.0297C71.4282 5.79402 71.1892 5.61476 70.8938 5.48198C70.6017 5.35252 70.293 5.28613 69.9677 5.28613C69.6722 5.28613 69.4 5.33924 69.1444 5.44215C68.8921 5.54505 68.6697 5.69111 68.4805 5.877C68.2913 6.0629 68.1419 6.28198 68.0357 6.52763C67.9295 6.77659 67.873 7.04215 67.873 7.33095C67.873 7.61974 67.9262 7.8853 68.0324 8.13427C68.1386 8.38323 68.288 8.599 68.4838 8.78489C68.6797 8.97078 68.9021 9.11684 69.1544 9.21974C69.4067 9.32265 69.6822 9.37576 69.9776 9.37576C70.2631 9.37576 70.5286 9.32597 70.771 9.22306C71.0133 9.12016 71.2224 8.97742 71.4017 8.79485C71.5776 8.61227 71.717 8.39651 71.8166 8.14754C71.9162 7.89858 71.966 7.6297 71.966 7.33427V7.0853H69.9145V7.80563H69.9179Z" fill="white"/>
<path d="M75.9692 5.88042C75.78 5.69453 75.5543 5.54847 75.302 5.44557C75.0464 5.34266 74.7742 5.28955 74.4821 5.28955C74.1867 5.28955 73.9111 5.34266 73.6589 5.44557C73.4033 5.54847 73.1809 5.69453 72.9917 5.88042C72.7991 6.06631 72.6531 6.2854 72.5435 6.53104C72.4373 6.78001 72.3809 7.04557 72.3809 7.33436C72.3809 7.62316 72.434 7.88872 72.5435 8.13768C72.6497 8.38665 72.7991 8.60241 72.9917 8.78831C73.1809 8.9742 73.4066 9.12026 73.6589 9.22316C73.9145 9.32607 74.19 9.37918 74.4821 9.37918C74.7742 9.37918 75.0464 9.32607 75.302 9.22316C75.5576 9.12026 75.78 8.9742 75.9692 8.78831C76.1585 8.60241 76.3078 8.38333 76.4141 8.13768C76.5203 7.88872 76.5734 7.62316 76.5734 7.33436C76.5734 7.04889 76.5203 6.78001 76.4141 6.53104C76.3078 6.2854 76.1585 6.06963 75.9692 5.88042ZM75.6373 7.84557C75.5742 8.0049 75.4846 8.141 75.3717 8.25719C75.2589 8.37337 75.1261 8.46299 74.9734 8.52938C74.8207 8.59577 74.658 8.62897 74.4788 8.62897C74.2995 8.62897 74.1369 8.59577 73.9842 8.52938C73.8315 8.46299 73.6987 8.37337 73.5858 8.25719C73.473 8.141 73.3834 8.0049 73.3203 7.84557C73.2572 7.68623 73.224 7.51362 73.224 7.3244C73.224 7.14183 73.2572 6.97586 73.3203 6.81984C73.3834 6.66382 73.473 6.53104 73.5858 6.41486C73.6987 6.29868 73.8315 6.20905 73.9842 6.14266C74.1369 6.07627 74.3029 6.04308 74.4854 6.04308C74.658 6.04308 74.8207 6.07627 74.9734 6.14266C75.1261 6.20905 75.2556 6.29868 75.3717 6.41486C75.4846 6.53104 75.5742 6.66382 75.6373 6.81984C75.7004 6.97586 75.7336 7.14515 75.7336 7.33436C75.7336 7.51694 75.7004 7.68623 75.6373 7.84557Z" fill="white"/>
<path d="M77.7627 8.12773L77.859 5.32275H77.0723L77.1685 8.12773H77.7627Z" fill="white"/>
<path d="M77.7885 8.59225C77.6955 8.50263 77.5893 8.45947 77.4698 8.45947C77.3404 8.45947 77.2341 8.50263 77.1445 8.59225C77.0549 8.68188 77.0117 8.7881 77.0117 8.91756C77.0117 9.0437 77.0549 9.14993 77.1445 9.23624C77.2341 9.32586 77.3404 9.36902 77.4698 9.36902C77.5893 9.36902 77.6989 9.32586 77.7885 9.23624C77.8814 9.14661 77.9279 9.04039 77.9279 8.91756C77.9279 8.7881 77.8814 8.67856 77.7885 8.59225Z" fill="white"/>
<path d="M75.3684 6.41475C75.2556 6.29857 75.1228 6.20894 74.9701 6.14255C74.8174 6.07616 74.6547 6.04297 74.4821 6.04297C74.2995 6.04297 74.1336 6.07616 73.9809 6.14255C73.8282 6.20894 73.6954 6.29857 73.5825 6.41475C73.4697 6.53094 73.38 6.66372 73.317 6.81973C73.2539 6.97575 73.2207 7.14172 73.2207 7.3243C73.2207 7.51351 73.2539 7.68612 73.317 7.84546C73.38 8.00479 73.4697 8.14089 73.5825 8.25708C73.6954 8.37326 73.8282 8.46289 73.9809 8.52928C74.1336 8.59567 74.2995 8.62886 74.4755 8.62886C74.6514 8.62886 74.8174 8.59567 74.9701 8.52928C75.1228 8.46289 75.2522 8.37326 75.3684 8.25708C75.4813 8.14089 75.5709 8.00479 75.634 7.84546C75.697 7.68612 75.7302 7.51683 75.7302 7.33426C75.7302 7.14504 75.697 6.97243 75.634 6.81973C75.5709 6.66372 75.4846 6.53094 75.3684 6.41475Z" fill="#FF6400"/>
<path d="M72.8948 0.449707C69.1006 0.449707 66.0234 3.52689 66.0234 7.32108C66.0234 11.1153 69.1006 14.1924 72.8948 14.1924C76.689 14.1924 79.7662 11.1153 79.7662 7.32108C79.7662 3.52689 76.689 0.449707 72.8948 0.449707ZM77.8575 5.32274L77.7612 8.12772H77.167L77.0707 5.32274H77.8575ZM77.1405 8.59245C77.2301 8.50282 77.3363 8.45967 77.4658 8.45967C77.5853 8.45967 77.6948 8.50282 77.7844 8.59245C77.8774 8.68207 77.9239 8.7883 77.9239 8.91776C77.9239 9.0439 77.8774 9.15012 77.7844 9.23643C77.6915 9.32606 77.5853 9.36921 77.4658 9.36921C77.3363 9.36921 77.2301 9.32606 77.1405 9.23643C77.0508 9.1468 77.0077 9.04058 77.0077 8.91776C77.0077 8.7883 77.0508 8.67875 77.1405 8.59245ZM76.4135 8.13767C76.3073 8.38664 76.1579 8.6024 75.9687 8.7883C75.7795 8.97419 75.5537 9.12025 75.3014 9.22315C75.0458 9.32606 74.7736 9.37917 74.4815 9.37917C74.1861 9.37917 73.9106 9.32606 73.6583 9.22315C73.4027 9.12025 73.1803 8.97419 72.9911 8.7883C72.7985 8.6024 72.6525 8.38332 72.5429 8.13767C72.4367 7.88871 72.3803 7.62315 72.3803 7.33435C72.3803 7.04888 72.4334 6.78 72.5429 6.53103C72.6492 6.28207 72.7985 6.0663 72.9911 5.88041C73.1803 5.69452 73.406 5.54846 73.6583 5.44556C73.9139 5.34265 74.1894 5.28954 74.4815 5.28954C74.7736 5.28954 75.0458 5.34265 75.3014 5.44556C75.557 5.54846 75.7795 5.69452 75.9687 5.88041C76.1579 6.0663 76.3073 6.28539 76.4135 6.53103C76.5197 6.78 76.5728 7.04556 76.5728 7.33435C76.5695 7.62315 76.5164 7.88871 76.4135 8.13767ZM68.0351 8.13767C67.9288 7.88871 67.8757 7.62315 67.8757 7.33435C67.8757 7.04888 67.9288 6.78 68.0384 6.53103C68.1446 6.28207 68.294 6.0663 68.4832 5.88041C68.6724 5.69452 68.8915 5.54846 69.1471 5.44556C69.3994 5.34265 69.6749 5.28954 69.9703 5.28954C70.2956 5.28954 70.6044 5.35593 70.8965 5.48539C71.1886 5.61485 71.4309 5.79743 71.6201 6.03311L71.0492 6.56091C70.9131 6.39162 70.7537 6.26216 70.5712 6.17585C70.3886 6.08954 70.1894 6.04639 69.9736 6.04639C69.7911 6.04639 69.6251 6.07958 69.4757 6.14597C69.323 6.21236 69.1936 6.30199 69.0807 6.41817C68.9678 6.53435 68.8815 6.66713 68.8185 6.82315C68.7554 6.97917 68.7255 7.14846 68.7255 7.33767C68.7255 7.52357 68.7587 7.69618 68.8218 7.8522C68.8848 8.01153 68.9745 8.14763 69.0907 8.26382C69.2068 8.38 69.3396 8.46962 69.4956 8.53601C69.6517 8.6024 69.8176 8.6356 70.0002 8.6356C70.1861 8.6356 70.3521 8.59909 70.5048 8.52938C70.6575 8.45635 70.7836 8.36008 70.8865 8.23394C70.9894 8.1078 71.0591 7.96838 71.0923 7.80904H69.9205V7.09535H71.972V7.34431C71.972 7.63975 71.9222 7.90863 71.8226 8.15759C71.723 8.40655 71.5836 8.619 71.4077 8.80489C71.2284 8.98747 71.0193 9.1302 70.777 9.23311C70.5346 9.33601 70.2691 9.38581 69.9836 9.38581C69.6882 9.38581 69.416 9.3327 69.1604 9.22979C68.9081 9.12689 68.6824 8.98083 68.4898 8.79494C68.2907 8.6024 68.1413 8.38332 68.0351 8.13767Z" fill="#FF6400"/>
</svg>
