<svg width="20" height="20" viewBox="0 0 20 20" fill="none" xmlns="http://www.w3.org/2000/svg">
<rect width="20" height="20" rx="4" fill="#FF6400"/>
<path fill-rule="evenodd" clip-rule="evenodd" d="M3.02254 9.11132C2.82591 8.40168 3.24438 7.67666 3.95722 7.49195L12.7981 5.2011C13.5109 5.01638 14.2482 5.44193 14.4448 6.15157L15.5691 10.2093C15.7657 10.9189 15.3473 11.644 14.6344 11.8287L5.79357 14.1195C5.08074 14.3042 4.34347 13.8787 4.14685 13.169L3.02254 9.11132ZM11.0093 9.21627C11.3474 10.4364 10.8543 11.6242 9.90807 11.8694C8.96182 12.1146 7.92067 11.3243 7.58261 10.1042C7.24455 8.88409 7.73758 7.69623 8.68383 7.45104C9.63008 7.20585 10.6712 7.99616 11.0093 9.21627ZM15.9289 6.13381C15.879 5.94435 15.6801 5.82988 15.4844 5.87815C15.2888 5.92641 15.1706 6.11913 15.2204 6.30859L16.4786 11.0929C16.6265 11.655 16.2812 12.228 15.7031 12.38L8.37933 14.3051C8.1845 14.3563 8.06942 14.5508 8.12229 14.7395C8.17516 14.9282 8.37597 15.0396 8.5708 14.9884L15.8946 13.0633C16.8581 12.81 17.4335 11.855 17.1871 10.9181L15.9289 6.13381Z" fill="#FCFCFC"/>
</svg>
