<svg width="24" height="24" viewBox="0 0 24 24" fill="none" xmlns="http://www.w3.org/2000/svg">
<path d="M14.314 6.52897C14.1211 6.72568 14.0131 6.99016 14.0131 7.26562C14.0131 7.54107 14.1211 7.80555 14.314 8.00227L15.9977 9.68604C16.1944 9.87886 16.4589 9.98686 16.7344 9.98686C17.0098 9.98686 17.2743 9.87886 17.471 9.68604L20.4162 6.74084C20.9104 6.24663 21.743 6.40661 21.8791 7.09215C22.0329 7.86697 22.0409 8.66806 21.8977 9.45362C21.6677 10.7164 21.0582 11.879 20.1506 12.7866C19.243 13.6942 18.0804 14.3036 16.8177 14.5337C16.0115 14.6806 15.189 14.6684 14.3954 14.5027C13.5805 14.3325 12.6931 14.464 12.1044 15.0527L5.81092 21.3461C5.39227 21.7648 4.82445 22 4.23239 22C3.64032 22 3.0725 21.7648 2.65385 21.3461C2.2352 20.9275 2 20.3597 2 19.7676C2 19.1755 2.2352 18.6077 2.65385 18.1891L8.94734 11.8956C9.53598 11.307 9.66747 10.4195 9.49734 9.60463C9.33163 8.81096 9.31945 7.98846 9.46633 7.18233C9.6964 5.91959 10.3058 4.75696 11.2134 3.84937C12.121 2.94179 13.2836 2.33235 14.5464 2.10227C15.3319 1.95914 16.133 1.96706 16.9079 2.1209C17.5934 2.257 17.7534 3.08956 17.2592 3.58377L14.3245 6.51844L14.314 6.52897Z" fill="#14142B"/>
<path d="M5.81092 21.3461L12.1044 15.0526C8.94734 14.5 8.94734 11.8955 8.94734 11.8955L2.65385 18.189C2.2352 18.6076 2 19.1755 2 19.7675C2 20.3596 2.2352 20.9274 2.65385 21.3461C3.0725 21.7647 3.64032 21.9999 4.23239 21.9999C4.82445 21.9999 5.39227 21.7647 5.81092 21.3461Z" fill="#FF7F2E"/>
<path d="M1.99995 19.4648L6.99994 14C6.49994 14.5 2.47054 18.3793 2.47054 18.3793C2.16923 18.6672 1.99995 19.0577 1.99995 19.4648Z" fill="#FE924C"/>
<path d="M14.0131 7.26562C14.0131 6.99016 14.1211 6.72568 14.3139 6.52897L14.3244 6.51844L17.2591 3.58377C17.7533 3.08956 17.5934 2.257 16.9078 2.1209C16.133 1.96706 15.3319 1.95914 14.5463 2.10227C13.2836 2.33235 12.121 2.94179 11.2134 3.84937C10.3058 4.75696 9.69636 5.91959 9.46629 7.18233C9.31941 7.98846 9.33159 8.81096 9.4973 9.60463C10.4999 7 14.227 7.90152 14.227 7.90152L14.3139 8.00227C14.3139 8.00227 14.0131 7.54107 14.0131 7.26562Z" fill="#35354B"/>
</svg>
