<svg width="24" height="24" viewBox="0 0 24 24" fill="none" xmlns="http://www.w3.org/2000/svg">
<path d="M6 16C6 14.3431 7.34315 13 9 13H15C16.6569 13 18 14.3431 18 16V19C18 19.5523 17.5523 20 17 20H7C6.44772 20 6 19.5523 6 19V16Z" stroke="#A0A3BD" stroke-width="2"/>
<path d="M8 16.5C8 15.6716 8.67157 15 9.5 15H12.5C13.3284 15 14 15.6716 14 16.5C14 17.3284 13.3284 18 12.5 18H9.5C8.67157 18 8 17.3284 8 16.5Z" fill="#D6D8E7"/>
<circle cx="12" cy="7" r="3" stroke="#A0A3BD" stroke-width="2"/>
</svg>
