<svg width="18" height="19" viewBox="0 0 18 19" fill="none" xmlns="http://www.w3.org/2000/svg">
<path d="M5.92 0H2.54C1.14 0 0 1.15 0 2.561V5.97C0 7.39 1.14 8.53 2.54 8.53H5.92C7.33 8.53 8.46 7.39 8.46 5.97V2.561C8.46 1.15 7.33 0 5.92 0Z" fill="#130F26"/>
<path d="M5.92 9.5293H2.54C1.14 9.5293 0 10.6703 0 12.0903V15.4993C0 16.9093 1.14 18.0593 2.54 18.0593H5.92C7.33 18.0593 8.46 16.9093 8.46 15.4993V12.0903C8.46 10.6703 7.33 9.5293 5.92 9.5293Z" fill="#FF7223"/>
<path d="M15.38 0H12C10.59 0 9.45996 1.15 9.45996 2.561V5.97C9.45996 7.39 10.59 8.53 12 8.53H15.38C16.78 8.53 17.92 7.39 17.92 5.97V2.561C17.92 1.15 16.78 0 15.38 0Z" fill="#FF7223"/>
<path d="M15.38 9.5293H12C10.59 9.5293 9.45996 10.6703 9.45996 12.0903V15.4993C9.45996 16.9093 10.59 18.0593 12 18.0593H15.38C16.78 18.0593 17.92 16.9093 17.92 15.4993V12.0903C17.92 10.6703 16.78 9.5293 15.38 9.5293Z" fill="#FF7223"/>
</svg>
