<svg width="24" height="24" viewBox="0 0 24 24" fill="none" xmlns="http://www.w3.org/2000/svg">
<path fill-rule="evenodd" clip-rule="evenodd" d="M21 12C21 11.1716 20.3112 10.5 19.4615 10.5H4.53846C3.68879 10.5 3 11.1716 3 12C3 12.8284 3.68879 13.5 4.53846 13.5H19.4615C20.3112 13.5 21 12.8284 21 12Z" fill="#14142B"/>
<path fill-rule="evenodd" clip-rule="evenodd" d="M11.5485 4.4135C10.9465 3.86217 9.97041 3.86217 9.36839 4.4135L4.35454 9.0052C2.54849 10.6592 2.54849 13.3408 4.35454 14.9948L9.36839 19.5865C9.97041 20.1378 10.9465 20.1378 11.5485 19.5865C12.1505 19.0352 12.1505 18.1413 11.5485 17.59L6.53463 12.9983C5.93262 12.4469 5.93262 11.5531 6.53463 11.0017L11.5485 6.41003C12.1505 5.8587 12.1505 4.96482 11.5485 4.4135Z" fill="#14142B"/>
</svg>
