<svg width="24" height="24" viewBox="0 0 24 24" fill="none" xmlns="http://www.w3.org/2000/svg">
<path fill-rule="evenodd" clip-rule="evenodd" d="M2 5C2 3.34315 3.34315 2 5 2H15C16.6569 2 18 3.34315 18 5V19C18 20.6569 16.6569 22 15 22H5C3.34315 22 2 20.6569 2 19V5ZM4.28585 8C4.28585 7.44772 4.73356 7 5.28585 7H13.5716C14.1238 7 14.5716 7.44772 14.5716 8C14.5716 8.55228 14.1238 9 13.5716 9H5.28585C4.73356 9 4.28585 8.55228 4.28585 8ZM5.28585 11C4.73356 11 4.28585 11.4477 4.28585 12C4.28585 12.5523 4.73356 13 5.28585 13H13.5716C14.1238 13 14.5716 12.5523 14.5716 12C14.5716 11.4477 14.1238 11 13.5716 11H5.28585ZM4.28585 16C4.28585 15.4477 4.73356 15 5.28585 15H9.00013C9.55241 15 10.0001 15.4477 10.0001 16C10.0001 16.5523 9.55242 17 9.00013 17H5.28585C4.73356 17 4.28585 16.5523 4.28585 16ZM21 4C20.4477 4 20 4.44772 20 5V20C20 20.5523 20.4477 21 21 21C21.5523 21 22 20.5523 22 20V5C22 4.44772 21.5523 4 21 4Z" fill="#002EB4"/>
</svg>
