<svg width="48" height="48" viewBox="0 0 48 48" fill="none" xmlns="http://www.w3.org/2000/svg">
<circle cx="24" cy="24" r="24" fill="#F7F7FC"/>
<path fill-rule="evenodd" clip-rule="evenodd" d="M33 24C33 23.1716 32.3112 22.5 31.4615 22.5H16.5385C15.6888 22.5 15 23.1716 15 24C15 24.8284 15.6888 25.5 16.5385 25.5H31.4615C32.3112 25.5 33 24.8284 33 24Z" fill="black"/>
<path fill-rule="evenodd" clip-rule="evenodd" d="M23.5485 16.4135C22.9465 15.8622 21.9704 15.8622 21.3684 16.4135L16.3545 21.0052C14.5485 22.6592 14.5485 25.3408 16.3545 26.9948L21.3684 31.5865C21.9704 32.1378 22.9465 32.1378 23.5485 31.5865C24.1505 31.0352 24.1505 30.1413 23.5485 29.59L18.5346 24.9983C17.9326 24.4469 17.9326 23.5531 18.5346 23.0017L23.5485 18.41C24.1505 17.8587 24.1505 16.9648 23.5485 16.4135Z" fill="black"/>
</svg>
