<svg width="14" height="16" viewBox="0 0 14 16" fill="none" xmlns="http://www.w3.org/2000/svg">
<path d="M8 3.875C9.035 3.875 9.875 4.715 9.875 5.75C9.875 6.305 9.6275 6.7925 9.2525 7.1375L11.975 9.86C12.71 8.465 13.25 7.01 13.25 5.75C13.25 2.8475 10.9025 0.5 8 0.5C6.515 0.5 5.18 1.1225 4.22 2.1125L6.6125 4.505C6.9575 4.115 7.445 3.875 8 3.875ZM11.2775 11.075L7.805 7.6025L7.7225 7.52L1.4525 1.25L0.5 2.2025L2.885 4.5875C2.8025 4.9625 2.75 5.3525 2.75 5.75C2.75 9.6875 8 15.5 8 15.5C8 15.5 9.2525 14.1125 10.535 12.2375L13.0475 14.75L14 13.7975L11.2775 11.075Z" fill="#002EB4"/>
</svg>
