<svg width="18" height="4" viewBox="0 0 18 4" fill="none" xmlns="http://www.w3.org/2000/svg">
<path fill-rule="evenodd" clip-rule="evenodd" d="M3.99935 1.99992C3.99935 2.92039 3.25316 3.66659 2.33268 3.66659C1.41221 3.66659 0.666016 2.92039 0.666016 1.99992C0.666016 1.07944 1.41221 0.333252 2.33268 0.333252C3.25316 0.333252 3.99935 1.07944 3.99935 1.99992ZM10.666 1.99992C10.666 2.92039 9.91982 3.66659 8.99935 3.66659C8.07887 3.66659 7.33268 2.92039 7.33268 1.99992C7.33268 1.07944 8.07887 0.333252 8.99935 0.333252C9.91982 0.333252 10.666 1.07944 10.666 1.99992ZM15.666 3.66659C16.5865 3.66659 17.3327 2.92039 17.3327 1.99992C17.3327 1.07944 16.5865 0.333252 15.666 0.333252C14.7455 0.333252 13.9993 1.07944 13.9993 1.99992C13.9993 2.92039 14.7455 3.66659 15.666 3.66659Z" fill="#002EB4"/>
</svg>
