<svg width="9" height="10" viewBox="0 0 9 10" fill="none" xmlns="http://www.w3.org/2000/svg">
<path fill-rule="evenodd" clip-rule="evenodd" d="M2.95 0H6.035C7.39 0 8.485 0.535 8.5 1.895V9.485C8.5 9.57 8.48 9.655 8.44 9.73C8.375 9.85 8.265 9.94 8.13 9.98C8 10.02 7.855 10 7.735 9.93L4.495 8.31L1.25 9.93C1.1755 9.9695 1.09 9.995 1.005 9.995C0.725 9.995 0.5 9.765 0.5 9.485V1.895C0.5 0.535 1.6 0 2.95 0ZM2.61 3.81H6.375C6.59 3.81 6.765 3.6345 6.765 3.415C6.765 3.195 6.59 3.02 6.375 3.02H2.61C2.395 3.02 2.22 3.195 2.22 3.415C2.22 3.6345 2.395 3.81 2.61 3.81Z" fill="#002EB4"/>
</svg>
