<svg width="16" height="16" viewBox="0 0 16 16" fill="none" xmlns="http://www.w3.org/2000/svg">
<path fill-rule="evenodd" clip-rule="evenodd" d="M3.83325 1.75016C3.83325 1.52004 4.0198 1.3335 4.24992 1.3335C4.48004 1.3335 4.66659 1.52004 4.66659 1.75016V2.07894H11.3333V1.75016C11.3333 1.52004 11.5198 1.3335 11.7499 1.3335C11.98 1.3335 12.1666 1.52004 12.1666 1.75016V2.07894H13.3333C14.0696 2.07894 14.6666 2.67589 14.6666 3.41227V4.06237C14.6666 4.43056 14.3681 4.72904 13.9999 4.72904H1.99992C1.63173 4.72904 1.33325 4.43056 1.33325 4.06237V3.41227C1.33325 2.67589 1.93021 2.07894 2.66659 2.07894H3.83325V1.75016ZM1.99992 5.39144C1.63173 5.39144 1.33325 5.68992 1.33325 6.05811V12.6668C1.33325 13.7714 2.22868 14.6668 3.33325 14.6668H12.6666C13.7712 14.6668 14.6666 13.7714 14.6666 12.6668V6.05811C14.6666 5.68992 14.3681 5.39144 13.9999 5.39144H1.99992ZM3.33333 6.71645C2.96514 6.71645 2.66667 7.01493 2.66667 7.38312V8.03736C2.66667 8.40555 2.96514 8.70403 3.33333 8.70403H4C4.36819 8.70403 4.66667 8.40555 4.66667 8.03736V7.38312C4.66667 7.01493 4.36819 6.71645 4 6.71645H3.33333ZM2.66659 10.0332C2.66659 9.66505 2.96506 9.36658 3.33325 9.36658H3.99992C4.36811 9.36658 4.66659 9.66505 4.66659 10.0332V10.6875C4.66659 11.0557 4.36811 11.3542 3.99992 11.3542H3.33325C2.96506 11.3542 2.66659 11.0557 2.66659 10.6875V10.0332ZM5.99992 6.66679C5.63173 6.66679 5.33325 6.96527 5.33325 7.33346V7.9877C5.33325 8.35589 5.63173 8.65436 5.99992 8.65436H6.66659C7.03477 8.65436 7.33325 8.35589 7.33325 7.9877V7.33346C7.33325 6.96527 7.03478 6.66679 6.66659 6.66679H5.99992ZM11.3333 7.38312C11.3333 7.01493 11.6317 6.71645 11.9999 6.71645H12.6666C13.0348 6.71645 13.3333 7.01493 13.3333 7.38312V8.03736C13.3333 8.40555 13.0348 8.70403 12.6666 8.70403H11.9999C11.6317 8.70403 11.3333 8.40555 11.3333 8.03736V7.38312ZM11.9999 11.3541C11.6317 11.3541 11.3333 11.6526 11.3333 12.0208V12.675C11.3333 13.0432 11.6317 13.3417 11.9999 13.3417H12.6666C13.0348 13.3417 13.3333 13.0432 13.3333 12.675V12.0208C13.3333 11.6526 13.0348 11.3541 12.6666 11.3541H11.9999ZM8.66642 12.0208C8.66642 11.6526 8.9649 11.3541 9.33309 11.3541H9.99976C10.3679 11.3541 10.6664 11.6526 10.6664 12.0208V12.675C10.6664 13.0432 10.3679 13.3417 9.99976 13.3417H9.33309C8.9649 13.3417 8.66642 13.0432 8.66642 12.675V12.0208Z" fill="#6E7191"/>
</svg>
