
<svg width="24" height="24" viewBox="0 0 24 24" fill="none" xmlns="http://www.w3.org/2000/svg">
<path d="M2 5.11719C2 4.01262 2.89543 3.11719 4 3.11719H20C21.1046 3.11719 22 4.01262 22 5.11719V6.09234C22 6.64462 21.5523 7.09234 21 7.09234H3C2.44772 7.09234 2 6.64462 2 6.09234V5.11719Z" fill="#A0A3BD"/>
<path fill-rule="evenodd" clip-rule="evenodd" d="M2 9.08789C2 8.53561 2.44772 8.08789 3 8.08789H21C21.5523 8.08789 22 8.53561 22 9.08789V19.0009C22 20.6578 20.6569 22.0009 19 22.0009H5C3.34315 22.0009 2 20.6578 2 19.0009V9.08789ZM4.00012 11.0754C4.00012 10.5231 4.44784 10.0754 5.00012 10.0754H6.00012C6.55241 10.0754 7.00012 10.5231 7.00012 11.0754V12.0568C7.00012 12.6091 6.55241 13.0568 6.00012 13.0568H5.00012C4.44784 13.0568 4.00012 12.6091 4.00012 12.0568V11.0754ZM5 14.0506C4.44772 14.0506 4 14.4983 4 15.0506V16.032C4 16.5842 4.44772 17.032 5 17.032H6C6.55228 17.032 7 16.5842 7 16.032V15.0506C7 14.4983 6.55228 14.0506 6 14.0506H5ZM8 11.0009C8 10.4486 8.44772 10.0009 9 10.0009H10C10.5523 10.0009 11 10.4486 11 11.0009V11.9823C11 12.5346 10.5523 12.9823 10 12.9823H9C8.44772 12.9823 8 12.5346 8 11.9823V11.0009ZM18 10.0754C17.4477 10.0754 17 10.5231 17 11.0754V12.0568C17 12.6091 17.4477 13.0568 18 13.0568H19C19.5523 13.0568 20 12.6091 20 12.0568V11.0754C20 10.5231 19.5523 10.0754 19 10.0754H18ZM17 18.0319C17 17.4796 17.4477 17.0319 18 17.0319H19C19.5523 17.0319 20 17.4796 20 18.0319V19.0133C20 19.5655 19.5523 20.0133 19 20.0133H18C17.4477 20.0133 17 19.5655 17 19.0133V18.0319ZM13.9998 17.0319C13.4475 17.0319 12.9998 17.4796 12.9998 18.0319V19.0133C12.9998 19.5655 13.4475 20.0133 13.9998 20.0133H14.9998C15.552 20.0133 15.9998 19.5655 15.9998 19.0133V18.0319C15.9998 17.4796 15.552 17.0319 14.9998 17.0319H13.9998Z" fill="#A0A3BD"/>
<path d="M5.75 2.625C5.75 2.27982 6.02982 2 6.375 2C6.72018 2 7 2.27982 7 2.625V3.24223H5.75V2.625Z" fill="#A0A3BD"/>
<path d="M17 2.625C17 2.27982 17.2798 2 17.625 2C17.9702 2 18.25 2.27982 18.25 2.625V3.24223H17V2.625Z" fill="#A0A3BD"/>
</svg>
