<svg width="32" height="32" viewBox="0 0 32 32" fill="none" xmlns="http://www.w3.org/2000/svg">
<circle cx="16" cy="16" r="16" fill="#FCFCFC"/>
<path fill-rule="evenodd" clip-rule="evenodd" d="M9 9.13333C7.34315 9.13333 6 10.4765 6 12.1333V20C6 21.6569 7.34315 23 9 23H23C24.6569 23 26 21.6569 26 20V12.1333C26 10.4765 24.6569 9.13333 23 9.13333H9ZM16 20C18.2091 20 20 18.2091 20 16C20 13.7908 18.2091 12 16 12C13.7909 12 12 13.7908 12 16C12 18.2091 13.7909 20 16 20Z" fill="black"/>
<path d="M11 9.13334C11 7.95513 11.9551 7 13.1333 7L18.8667 7C20.0449 7 21 7.95513 21 9.13334H11Z" fill="black"/>
</svg>
