<svg width="32" height="32" viewBox="0 0 32 32" fill="none" xmlns="http://www.w3.org/2000/svg">
<circle cx="16" cy="16" r="16" fill="#FCFCFC"/>
<path fill-rule="evenodd" clip-rule="evenodd" d="M9 9.13379C7.34315 9.13379 6 10.4769 6 12.1338V20.0005C6 21.6573 7.34315 23.0005 9 23.0005H23C24.6569 23.0005 26 21.6573 26 20.0005V12.1338C26 10.4769 24.6569 9.13379 23 9.13379H9ZM16 20.0004C18.2091 20.0004 20 18.2096 20 16.0004C20 13.7913 18.2091 12.0004 16 12.0004C13.7909 12.0004 12 13.7913 12 16.0004C12 18.2096 13.7909 20.0004 16 20.0004Z" fill="#002EB4"/>
<path d="M11 9.13334C11 7.95513 11.9551 7 13.1333 7L18.8667 7C20.0449 7 21 7.95513 21 9.13334H11Z" fill="#002EB4"/>
</svg>
