<svg width="28" height="28" viewBox="0 0 28 28" fill="none" xmlns="http://www.w3.org/2000/svg">
<path d="M13.1783 4.09431C12.8122 4.18806 12.3256 4.4068 12.0265 4.61215C11.5935 4.91125 11.1114 5.46481 10.8614 5.9514L10.7676 6.14336H6.9731C3.2366 6.14336 3.17857 6.14336 3.08928 6.23265C3 6.32193 3 6.37996 3 15.0717C3 23.7634 3 23.8214 3.08928 23.9107C3.1741 23.9955 3.2366 24 4.0714 24C4.9062 24 4.96869 23.9955 5.05351 23.9107C5.1428 23.8214 5.1428 23.7634 5.1428 17.8395V11.8575H14.0711H22.9994V17.8395C22.9994 23.7634 22.9994 23.8214 23.0887 23.9107C23.1735 23.9955 23.236 24 24.0708 24C24.9056 24 24.9681 23.9955 25.0529 23.9107C25.1422 23.8214 25.1422 23.7634 25.1422 15.0717C25.1422 6.37996 25.1422 6.32193 25.0529 6.23265C24.9637 6.14336 24.9056 6.14336 21.1691 6.14336H17.3746L17.2808 5.9514C17.0309 5.46481 16.5487 4.91125 16.1157 4.61215C15.8121 4.40234 15.33 4.18806 14.9461 4.08985C14.4684 3.96931 13.6515 3.96931 13.1783 4.09431ZM15.0264 4.90679C15.7273 5.1791 16.2586 5.6657 16.5978 6.34425C16.7094 6.56299 16.83 6.77281 16.8701 6.79959C16.9282 6.84423 17.763 6.85763 20.687 6.85763H24.428V9.00042V11.1432H19.9638H15.4996V10.5629C15.4996 10.2415 15.5175 9.98254 15.5398 9.98254C15.6202 9.98254 16.0711 9.49594 16.2273 9.24149C16.6425 8.54954 16.7005 7.62546 16.3702 6.87995C15.9952 6.02729 14.83 5.25499 14.5131 5.64784C14.4372 5.74159 14.4282 5.83533 14.4282 6.7237V7.69242L14.2497 7.77278C14.0756 7.84867 14.0667 7.84867 13.8925 7.77278L13.714 7.69242V6.7237C13.714 5.83533 13.7051 5.74159 13.6292 5.64784C13.3122 5.25499 12.1515 6.02729 11.7721 6.87995C11.4417 7.62546 11.4998 8.54954 11.9149 9.24149C12.0712 9.49594 12.5221 9.98254 12.6024 9.98254C12.6247 9.98254 12.6426 10.2415 12.6426 10.5629V11.1432H8.17843H3.71427V9.00042V6.85763H7.4597C11.6828 6.85763 11.2989 6.89334 11.4596 6.50049C11.6739 5.98265 12.0846 5.49606 12.5712 5.18357C13.0935 4.84875 13.4595 4.75501 14.1604 4.77733C14.6336 4.78626 14.7631 4.80858 15.0264 4.90679ZM13.0354 8.18348C13.089 8.25491 13.9684 8.64329 14.0711 8.64329C14.2363 8.64329 15.0756 8.22812 15.1157 8.12991C15.1291 8.08974 15.1425 7.71028 15.1425 7.29065L15.147 6.52281L15.3523 6.74602C15.647 7.06744 15.7809 7.37993 15.8032 7.82189C15.8389 8.47365 15.6336 8.91114 15.0845 9.35309L14.7854 9.59416V10.3665V11.1432H14.0711H13.3569V10.3665V9.59416L13.0578 9.35309C12.5087 8.91114 12.3033 8.47365 12.339 7.82189C12.3613 7.38886 12.4908 7.07637 12.781 6.75049L12.9774 6.52728L13.0042 7.35315C13.0176 7.80403 13.031 8.17902 13.0354 8.18348ZM4.42853 17.5716V23.2857H4.0714H3.71427V17.5716V11.8575H4.0714H4.42853V17.5716ZM24.428 17.5716V23.2857H24.0708H23.7137V17.5716V11.8575H24.0708H24.428V17.5716Z" fill="#002EB4"/>
<path d="M14.5182 13.0182C14.4378 13.0985 14.4289 13.1655 14.4289 13.6565V14.2056L14.2726 14.2815C14.1833 14.3217 14.103 14.3574 14.0941 14.3574C14.0807 14.3574 14.0717 14.2369 14.0717 14.0896C14.0717 13.6387 14.0896 13.6431 12.8307 13.6431C11.6522 13.6431 11.3441 13.6878 10.7817 13.9512C9.97364 14.3306 9.29062 15.0494 8.96028 15.8618L8.85314 16.1208L8.23708 16.1431C7.56299 16.1699 7.46478 16.1966 7.21032 16.4645C7.12997 16.5449 7.03622 16.6877 7.00051 16.777C6.9023 17.0091 6.91123 17.46 7.0139 17.6832C7.17461 18.0314 7.5496 18.2859 7.90673 18.2859H8.08084L8.04066 18.4421C8.01387 18.5359 8.00048 19.1653 8.00941 19.951L8.0228 21.2992L8.19244 21.6117L8.35761 21.9197V22.5715C8.35761 23.2991 8.40226 23.4598 8.67457 23.7188C8.92903 23.9598 9.08527 24 9.78614 24C10.487 24 10.6433 23.9598 10.8977 23.7188C11.0897 23.5357 11.2147 23.2679 11.2147 23.0223V22.8304L11.362 22.8572C11.4379 22.875 12.0361 22.8974 12.6878 22.9107C14.0896 22.942 14.036 22.9554 14.0717 22.5134L14.0941 22.2233L14.2637 22.2902L14.4289 22.3572V22.9107C14.4289 23.7054 14.3083 23.6429 15.8574 23.6429C17.4065 23.6429 17.2859 23.7054 17.2859 22.9107V22.3572L17.4913 22.2768L17.6922 22.2009L18.0359 22.5402C18.393 22.8929 18.5671 22.9956 18.7323 22.9465C18.8841 22.9018 20.4912 21.2769 20.5224 21.1385C20.5626 20.9644 20.4957 20.8572 20.1073 20.4644L19.7725 20.1206L19.8484 19.9198L19.9287 19.7144H20.4823C21.2769 19.7144 21.2144 19.8349 21.2144 18.2859C21.2144 16.7368 21.2769 16.8573 20.4823 16.8573H19.9287L19.8484 16.652L19.7725 16.4511L20.1073 16.1074C20.4957 15.7145 20.5626 15.6029 20.5224 15.4377C20.4823 15.2681 18.8707 13.6565 18.71 13.6208C18.5359 13.5807 18.4288 13.6476 18.0359 14.036L17.6922 14.3708L17.4913 14.2949L17.2859 14.2146V13.661C17.2859 12.8664 17.4065 12.9289 15.8574 12.9289C14.6655 12.9289 14.603 12.9333 14.5182 13.0182ZM16.5717 14.1699C16.5717 14.786 16.5672 14.7815 17.0181 14.9511C17.1788 15.0136 17.4109 15.1074 17.5404 15.161C17.835 15.2949 17.9288 15.2592 18.3395 14.844L18.6475 14.536L19.1252 15.0136L19.6028 15.4913L19.2725 15.8306C19.0939 16.0181 18.9287 16.2234 18.9154 16.2859C18.893 16.3708 18.9287 16.5047 19.0403 16.7547C19.1252 16.9466 19.2189 17.1743 19.2457 17.2636C19.3394 17.5538 19.4198 17.5895 19.9912 17.6118L20.5001 17.6252V18.3127V19.0001H19.9734C19.3573 19.0001 19.3618 18.9957 19.1921 19.4466C19.1296 19.6073 19.0359 19.8394 18.9823 19.9689C18.8484 20.2635 18.8841 20.3572 19.2993 20.7679L19.6073 21.076L19.1296 21.5536L18.652 22.0313L18.3127 21.701C18.1252 21.5224 17.9198 21.3572 17.8573 21.3438C17.7725 21.3215 17.6386 21.3572 17.3886 21.4688C17.1966 21.5536 16.969 21.6474 16.8797 21.6742C16.5895 21.7679 16.5538 21.8483 16.5315 22.4197L16.5181 22.9286H15.8306H15.1431V22.4018C15.1431 21.7902 15.1342 21.7768 14.7369 21.6385C14.603 21.5938 14.4021 21.509 14.286 21.451C14.0851 21.3528 14.0717 21.3394 14.0717 21.1742C14.0717 21.0804 14.0851 21.009 14.1075 21.0179C14.8574 21.4063 15.2012 21.5001 15.8574 21.5001C16.8217 21.5001 17.5716 21.1831 18.2056 20.5046C18.7234 19.9555 18.9734 19.4242 19.0761 18.6653C19.1609 18.0091 19.0002 17.2145 18.6609 16.6431C18.4555 16.2949 17.9556 15.777 17.6252 15.5717C17.0493 15.2101 16.5583 15.0717 15.8529 15.0717C15.2949 15.0717 14.844 15.1699 14.4244 15.3931C14.2682 15.4735 14.1253 15.5449 14.1075 15.5538C14.0851 15.5627 14.0717 15.4913 14.0717 15.3976C14.0717 15.2324 14.0851 15.219 14.286 15.1208C14.4021 15.0628 14.603 14.9779 14.7369 14.9333C15.1342 14.7949 15.1431 14.7815 15.1431 14.1699V13.6431H15.8574H16.5717V14.1699ZM13.3575 15.9511V17.5404L12.8218 17.5091C11.545 17.4377 9.47365 17.0404 9.47365 16.8663C9.47365 16.7234 9.62097 16.2458 9.75043 15.9868C10.0227 15.4199 10.4915 14.9511 11.054 14.6788C11.545 14.4378 11.9066 14.3753 12.8352 14.3619L13.3575 14.3574V15.9511ZM16.6833 15.96C17.0627 16.094 17.3216 16.2636 17.6207 16.5627C18.0895 17.0404 18.3261 17.6207 18.3261 18.2859C18.3261 18.9644 18.0895 19.5269 17.594 20.0314C17.2815 20.3483 16.8529 20.5894 16.4154 20.6921C16.0672 20.7769 15.5181 20.759 15.1655 20.6474C14.7771 20.5269 14.6923 20.4867 14.3485 20.2278L14.0717 20.018V18.2814V16.5449L14.353 16.3395C15.0539 15.8172 15.8842 15.6788 16.6833 15.96ZM8.71475 16.9556C8.71475 17.0091 8.63886 17.1698 8.54957 17.3127C8.39333 17.5538 8.36654 17.5716 8.2103 17.5716C7.96477 17.5716 7.74156 17.4645 7.70585 17.3305C7.62549 17.0002 7.82191 16.8618 8.37101 16.8573C8.69243 16.8573 8.71475 16.8618 8.71475 16.9556ZM9.80847 17.8127C10.8486 18.0671 11.8263 18.2189 12.795 18.268L13.3575 18.2993V18.8305V19.3573H12.2638C11.2638 19.3573 11.1522 19.3662 10.9959 19.4466C10.8084 19.5403 10.6165 19.7457 10.5629 19.9019C10.5361 19.9823 10.5183 19.9376 10.4959 19.7233C10.4736 19.5046 10.4379 19.4064 10.3352 19.2769C10.112 19.0001 9.96471 18.9287 9.38437 18.8171C9.08974 18.7591 8.82635 18.701 8.79957 18.6876C8.67903 18.6118 9.1567 17.6386 9.29509 17.6832C9.3308 17.6921 9.56294 17.7502 9.80847 17.8127ZM9.64329 19.6698C9.77275 19.7278 9.77275 19.9108 9.64329 20.0001C9.57187 20.0537 9.43348 20.0715 9.12991 20.0715H8.71475V19.7635V19.4599L9.12991 19.5403C9.35312 19.5849 9.58526 19.643 9.64329 19.6698ZM13.3575 20.4153V20.7546L12.9155 20.7278C12.4111 20.6921 11.4781 20.5403 11.3486 20.4733C11.2191 20.4019 11.2281 20.1698 11.362 20.1162C11.4156 20.0939 11.8888 20.076 12.4111 20.076L13.3575 20.0715V20.4153ZM10.4915 20.3572C10.4959 20.4644 10.5183 20.6028 10.5406 20.6653C10.5986 20.8126 10.8442 21.0894 10.987 21.1608C11.2236 21.2858 12.603 21.5001 13.1432 21.5001H13.3575V21.8572V22.2188L12.9021 22.192C12.6477 22.1786 12.2504 22.1563 12.0182 22.1429C11.0138 22.0849 9.47812 21.7947 9.19688 21.6117C8.9826 21.4688 8.80403 21.201 8.77278 20.9688L8.746 20.7858H9.29062C9.7415 20.7858 9.86204 20.7724 10.0049 20.6965C10.1879 20.6072 10.3888 20.3974 10.4334 20.2501C10.4736 20.1251 10.4781 20.134 10.4915 20.3572ZM9.88436 22.6072C10.5584 22.7411 10.5629 22.7411 10.4379 23.0357C10.362 23.2232 10.1924 23.2857 9.78614 23.2857C9.22812 23.2857 9.07188 23.1473 9.07188 22.6563C9.07188 22.442 9.07634 22.4286 9.17456 22.4554C9.22813 22.4733 9.54954 22.5402 9.88436 22.6072Z" fill="#002EB4"/>
</svg>
