<svg xmlns="http://www.w3.org/2000/svg" xmlns:xlink="http://www.w3.org/1999/xlink" version="1.1" width="1000" height="1000" viewBox="0 0 1000 1000" xml:space="preserve">
<desc>Created with Fabric.js 3.5.0</desc>
<defs>
</defs>
<rect x="0" y="0" width="100%" height="100%" fill="none"/>
<g transform="matrix(-78.2015 0 0 78.2015 500 499.9999)" id="791313">
<path style="stroke: none; stroke-width: 1; stroke-dasharray: none; stroke-linecap: butt; stroke-dashoffset: 0; stroke-linejoin: miter; stroke-miterlimit: 4; is-custom-font: none; font-file-url: none; fill: rgb(172,171,168); fill-rule: nonzero; opacity: 1;" vector-effect="non-scaling-stroke" transform=" translate(-9, -9)" d="M 12.0227 3.35225 C 12.2224 3.55195 12.2406 3.86445 12.0772 4.08466 L 12.0227 4.14775 L 7.17075 9 L 12.0227 13.8523 C 12.2224 14.052 12.2406 14.3645 12.0772 14.5847 L 12.0227 14.6477 C 11.823 14.8474 11.5105 14.8656 11.2903 14.7022 L 11.2273 14.6477 L 5.97725 9.39775 C 5.77755 9.19805 5.7594 8.88555 5.92279 8.66534 L 5.97725 8.60225 L 11.2273 3.35225 C 11.4469 3.13258 11.8031 3.13258 12.0227 3.35225 Z" stroke-linecap="round"/>
</g>
</svg>