<svg xmlns="http://www.w3.org/2000/svg" xmlns:xlink="http://www.w3.org/1999/xlink" version="1.1" width="1000" height="1000" viewBox="0 0 1000 1000" xml:space="preserve">
<desc>Created with Fabric.js 3.5.0</desc>
<defs>
</defs>
<rect x="0" y="0" width="100%" height="100%" fill="none"/>
<g transform="matrix(78.2015 0 0 78.2015 499.9999 499.9997)" id="700253">
<path style="stroke: none; stroke-width: 1; stroke-dasharray: none; stroke-linecap: butt; stroke-dashoffset: 0; stroke-linejoin: miter; stroke-miterlimit: 4; is-custom-font: none; font-file-url: none; fill: rgb(0,0,0); fill-rule: nonzero; opacity: 1;" vector-effect="non-scaling-stroke" transform=" translate(-9, -9)" d="M 5.97725 14.6477 C 5.77755 14.448 5.7594 14.1355 5.92279 13.9153 L 5.97725 13.8523 L 10.8293 9 L 5.97725 4.14775 C 5.77755 3.94805 5.7594 3.63555 5.92279 3.41534 L 5.97725 3.35225 C 6.17695 3.15255 6.48945 3.1344 6.70966 3.29779 L 6.77275 3.35225 L 12.0227 8.60225 C 12.2224 8.80195 12.2406 9.11445 12.0772 9.33466 L 12.0227 9.39775 L 6.77275 14.6477 C 6.55308 14.8674 6.19692 14.8674 5.97725 14.6477 Z" stroke-linecap="round"/>
</g>
</svg>