<svg width="9" height="12" viewBox="0 0 9 12" fill="none" xmlns="http://www.w3.org/2000/svg">
<path fill-rule="evenodd" clip-rule="evenodd" d="M1.23887 7.46125C0.893093 7.72058 0.823016 8.21112 1.08235 8.55689L2.96059 11.0612C3.89971 12.3134 5.77795 12.3134 6.71707 11.0612L8.59531 8.55689C8.85465 8.21112 8.78457 7.72058 8.43879 7.46125C8.09302 7.20192 7.60248 7.272 7.34315 7.61777L5.46491 10.1221C5.15187 10.5395 4.52579 10.5395 4.21275 10.1221L2.33451 7.61777C2.07518 7.272 1.58464 7.20192 1.23887 7.46125Z" fill="#002EB4"/>
<path fill-rule="evenodd" clip-rule="evenodd" d="M1.23887 4.53875C0.893093 4.27942 0.823016 3.78888 1.08235 3.44311L2.96059 0.938783C3.89971 -0.313378 5.77795 -0.313378 6.71707 0.938783L8.59531 3.44311C8.85465 3.78888 8.78457 4.27941 8.43879 4.53875C8.09302 4.79808 7.60248 4.728 7.34315 4.38223L5.46491 1.8779C5.15187 1.46052 4.52579 1.46052 4.21275 1.8779L2.33451 4.38223C2.07518 4.728 1.58464 4.79808 1.23887 4.53875Z" fill="#002EB4"/>
</svg>
