<svg width="16" height="16" viewBox="0 0 16 16" fill="none" xmlns="http://www.w3.org/2000/svg">
<rect x="1.33333" y="1.33334" width="13.3333" height="13.3333" rx="6.66667" fill="#FF6400"/>
<path fill-rule="evenodd" clip-rule="evenodd" d="M10.5224 10.4892C10.321 10.7154 9.98344 10.7269 9.76855 10.5148L5.50189 6.30431C5.287 6.09225 5.27611 5.73698 5.47757 5.51078C5.67903 5.28459 6.01654 5.27312 6.23143 5.48518L10.4981 9.69571C10.713 9.90777 10.7239 10.263 10.5224 10.4892Z" fill="white"/>
<path fill-rule="evenodd" clip-rule="evenodd" d="M10.4892 5.47759C10.7154 5.67905 10.7269 6.01656 10.5148 6.23145L6.3043 10.4981C6.09224 10.713 5.73696 10.7239 5.51077 10.5224C5.28457 10.321 5.27311 9.98346 5.48517 9.76857L9.69569 5.50191C9.90775 5.28702 10.263 5.27614 10.4892 5.47759Z" fill="white"/>
</svg>
