<svg width="16" height="16" viewBox="0 0 16 16" fill="none" xmlns="http://www.w3.org/2000/svg">
<path fill-rule="evenodd" clip-rule="evenodd" d="M7.99992 14.6666C11.6818 14.6666 14.6666 11.6818 14.6666 7.99992C14.6666 4.31802 11.6818 1.33325 7.99992 1.33325C4.31802 1.33325 1.33325 4.31802 1.33325 7.99992C1.33325 11.6818 4.31802 14.6666 7.99992 14.6666ZM10.5223 10.4891C10.3209 10.7153 9.98337 10.7268 9.76848 10.5147L8.00505 8.77451L6.30422 10.498C6.09216 10.7129 5.73689 10.7238 5.51069 10.5223C5.28449 10.3209 5.27303 9.98337 5.48509 9.76848L7.22532 8.00505L5.50182 6.30422C5.28693 6.09216 5.27604 5.73689 5.4775 5.51069C5.67896 5.28449 6.01647 5.27303 6.23136 5.48509L7.99479 7.22532L9.69562 5.50182C9.90767 5.28693 10.263 5.27604 10.4891 5.4775C10.7153 5.67896 10.7268 6.01647 10.5147 6.23136L8.77451 7.99479L10.498 9.69562C10.7129 9.90767 10.7238 10.263 10.5223 10.4891Z" fill="#D6D8E7"/>
</svg>
