<svg width="16" height="16" viewBox="0 0 16 16" fill="none" xmlns="http://www.w3.org/2000/svg">
<path fill-rule="evenodd" clip-rule="evenodd" d="M8.00001 1.33333C4.31811 1.33333 1.33334 4.3181 1.33334 8C1.33334 11.6819 4.31811 14.6667 8.00001 14.6667C11.6819 14.6667 14.6667 11.6819 14.6667 8C14.6667 4.3181 11.6819 1.33333 8.00001 1.33333ZM8.00001 3.99999C7.63182 3.99999 7.33334 4.29847 7.33334 4.66666V7.99999C7.33334 8.16753 7.39514 8.32063 7.49719 8.43775L7.49612 8.43882L7.52171 8.46441L7.5356 8.47829L8.89706 9.83976C9.15742 10.1001 9.57954 10.1001 9.83989 9.83976C10.1002 9.5794 10.1002 9.15728 9.83989 8.89692L8.66668 7.72371V4.66666C8.66668 4.29847 8.3682 3.99999 8.00001 3.99999Z" fill="#00BA88"/>
</svg>