
<svg width="16" height="17" viewBox="0 0 16 17" fill="none" xmlns="http://www.w3.org/2000/svg">
<path fill-rule="evenodd" clip-rule="evenodd" d="M8.00016 1.83333C4.31826 1.83333 1.3335 4.8181 1.3335 8.5C1.3335 12.1819 4.31826 15.1667 8.00016 15.1667C11.6821 15.1667 14.6668 12.1819 14.6668 8.5C14.6668 4.8181 11.6821 1.83333 8.00016 1.83333ZM8.00016 4.49999C7.63197 4.49999 7.3335 4.79847 7.3335 5.16666V8.49999C7.3335 8.66753 7.3953 8.82063 7.49734 8.93775L7.49628 8.93882L7.52187 8.96441L7.53575 8.97829L8.89721 10.3398C9.15757 10.6001 9.57969 10.6001 9.84005 10.3398C10.1004 10.0794 10.1004 9.65728 9.84005 9.39692L8.66683 8.22371V5.16666C8.66683 4.79847 8.36835 4.49999 8.00016 4.49999Z" fill="#ED2E2E"/>
</svg>