<svg width="14" height="14" viewBox="0 0 14 14" fill="none" xmlns="http://www.w3.org/2000/svg">
<path fill-rule="evenodd" clip-rule="evenodd" d="M6.66667 0C2.98477 0 0 2.98477 0 6.66667C0 10.3486 2.98477 13.3333 6.66667 13.3333C10.3486 13.3333 13.3333 10.3486 13.3333 6.66667C13.3333 2.98477 10.3486 0 6.66667 0ZM6.66667 2.66667C6.29848 2.66667 6 2.96514 6 3.33333V6.66667C6 6.8342 6.0618 6.98731 6.16385 7.10442L6.16278 7.10549L6.18837 7.13108L6.20225 7.14496L7.56372 8.50643C7.82407 8.76678 8.24619 8.76678 8.50655 8.50643C8.7669 8.24607 8.7669 7.82395 8.50655 7.5636L7.33333 6.39038V3.33333C7.33333 2.96514 7.03486 2.66667 6.66667 2.66667Z" fill="#6E7191"/>
</svg>
