<svg width="24" height="24" viewBox="0 0 24 24" fill="none" xmlns="http://www.w3.org/2000/svg">
<path fill-rule="evenodd" clip-rule="evenodd" d="M12 2C6.47715 2 2 6.47715 2 12C2 17.5228 6.47715 22 12 22C17.5228 22 22 17.5228 22 12C22 6.47715 17.5228 2 12 2ZM12 6C11.4477 6 11 6.44772 11 7V12C11 12.2513 11.0927 12.481 11.2458 12.6566L11.2442 12.6582L11.2826 12.6967C11.2894 12.7037 11.2963 12.7106 11.3033 12.7174L13.3456 14.7596C13.7361 15.1502 14.3693 15.1502 14.7598 14.7596C15.1504 14.3691 15.1504 13.7359 14.7598 13.3454L13 11.5856V7C13 6.44772 12.5523 6 12 6Z" fill="#A0A3BD"/>
</svg>
