<svg width="20" height="20" viewBox="0 0 20 20" fill="none" xmlns="http://www.w3.org/2000/svg">
<rect width="20" height="20" rx="10" fill="#FCFCFC"/>
<path fill-rule="evenodd" clip-rule="evenodd" d="M13.7836 13.7338C13.4814 14.0731 12.9752 14.0903 12.6528 13.7722L6.25285 7.45645C5.93052 7.13837 5.91419 6.60545 6.21637 6.26616C6.51856 5.92686 7.02483 5.90967 7.34715 6.22776L13.7472 12.5435C14.0695 12.8616 14.0858 13.3945 13.7836 13.7338Z" fill="#002EB4"/>
<path fill-rule="evenodd" clip-rule="evenodd" d="M13.7338 6.21637C14.0731 6.51856 14.0903 7.02482 13.7722 7.34715L7.45645 13.7471C7.13837 14.0695 6.60545 14.0858 6.26616 13.7836C5.92686 13.4814 5.90967 12.9752 6.22776 12.6528L12.5435 6.25285C12.8616 5.93052 13.3945 5.91419 13.7338 6.21637Z" fill="#002EB4"/>
</svg>
