<svg width="16" height="17" viewBox="0 0 16 17" fill="none" xmlns="http://www.w3.org/2000/svg">
<path fill-rule="evenodd" clip-rule="evenodd" d="M11.5371 13.7296C11.9669 14.1537 12.6419 14.1308 13.0449 13.6784C13.4478 13.226 13.426 12.5154 12.9962 12.0913L9.54921 8.68965L13.0297 5.16278C13.4538 4.73301 13.4309 4.05799 12.9785 3.65507C12.5261 3.25216 11.8155 3.27394 11.3914 3.70371L7.98976 7.15072L4.46289 3.67026C4.03312 3.24614 3.3581 3.26906 2.95518 3.72145C2.55227 4.17385 2.57405 4.8844 3.00382 5.30852L6.45083 8.71017L2.97037 12.237C2.54625 12.6668 2.56917 13.3418 3.02156 13.7447C3.47396 14.1477 4.18451 14.1259 4.60863 13.6961L8.01028 10.2491L11.5371 13.7296Z" fill="#D6D8E7"/>
</svg>
