<svg width="14" height="14" viewBox="0 0 14 14" fill="none" xmlns="http://www.w3.org/2000/svg">
<path fill-rule="evenodd" clip-rule="evenodd" d="M4.1132 0.333008H9.8932C12.1532 0.333008 13.6665 1.91967 13.6665 4.27967V9.72701C13.6665 12.0803 12.1532 13.6663 9.8932 13.6663H4.1132C1.8532 13.6663 0.333199 12.0803 0.333199 9.72701V4.27967C0.333199 1.91967 1.8532 0.333008 4.1132 0.333008ZM9.00653 8.99967C9.2332 8.77367 9.2332 8.40701 9.00653 8.18034L7.81986 6.99367L9.00653 5.80634C9.2332 5.58034 9.2332 5.20701 9.00653 4.98034C8.77986 4.75301 8.4132 4.75301 8.17986 4.98034L6.99987 6.16634L5.8132 4.98034C5.57986 4.75301 5.2132 4.75301 4.98653 4.98034C4.75986 5.20701 4.75986 5.58034 4.98653 5.80634L6.1732 6.99367L4.98653 8.17367C4.75986 8.40701 4.75986 8.77367 4.98653 8.99967C5.09986 9.11301 5.2532 9.17367 5.39987 9.17367C5.5532 9.17367 5.69986 9.11301 5.8132 8.99967L6.99987 7.82034L8.18653 8.99967C8.29986 9.12034 8.44653 9.17367 8.5932 9.17367C8.74653 9.17367 8.8932 9.11301 9.00653 8.99967Z" fill="white"/>
</svg>
