<svg width="18" height="18" viewBox="0 0 18 18" fill="none" xmlns="http://www.w3.org/2000/svg">
<path fill-rule="evenodd" clip-rule="evenodd" d="M8.99984 17.3332C13.6022 17.3332 17.3332 13.6022 17.3332 8.99984C17.3332 4.39746 13.6022 0.666504 8.99984 0.666504C4.39746 0.666504 0.666504 4.39746 0.666504 8.99984C0.666504 13.6022 4.39746 17.3332 8.99984 17.3332ZM12.1529 12.1114C11.901 12.3941 11.4791 12.4084 11.2105 12.1434L9.00625 9.96808L6.88022 12.1225C6.61514 12.3911 6.17105 12.4047 5.8883 12.1529C5.60556 11.901 5.59123 11.4791 5.8563 11.2105L8.03159 9.00625L5.87721 6.88022C5.6086 6.61514 5.595 6.17105 5.84682 5.8883C6.09864 5.60556 6.52053 5.59123 6.78913 5.8563L8.99343 8.03159L11.1195 5.87721C11.3845 5.6086 11.8286 5.595 12.1114 5.84682C12.3941 6.09864 12.4084 6.52053 12.1434 6.78913L9.96808 8.99343L12.1225 11.1195C12.3911 11.3845 12.4047 11.8286 12.1529 12.1114Z" fill="#D6D8E7"/>
</svg>