<svg width="14" height="14" viewBox="0 0 14 14" fill="none" xmlns="http://www.w3.org/2000/svg">
<path fill-rule="evenodd" clip-rule="evenodd" d="M6.99967 13.6666C10.6816 13.6666 13.6663 10.6818 13.6663 6.99992C13.6663 3.31802 10.6816 0.333252 6.99967 0.333252C3.31778 0.333252 0.333008 3.31802 0.333008 6.99992C0.333008 10.6818 3.31778 13.6666 6.99967 13.6666ZM9.52209 9.48915C9.32064 9.71534 8.98312 9.7268 8.76824 9.51474L7.0048 7.77451L5.30398 9.49802C5.09192 9.71291 4.73664 9.72379 4.51045 9.52234C4.28425 9.32088 4.27279 8.98337 4.48485 8.76848L6.22508 7.00505L4.50157 5.30422C4.28669 5.09216 4.2758 4.73689 4.47726 4.51069C4.67871 4.28449 5.01622 4.27303 5.23111 4.48509L6.99454 6.22532L8.69537 4.50182C8.90743 4.28693 9.26271 4.27604 9.4889 4.4775C9.7151 4.67896 9.72656 5.01647 9.5145 5.23136L7.77427 6.99479L9.49778 8.69562C9.71266 8.90767 9.72355 9.26295 9.52209 9.48915Z" fill="#D6D8E7"/>
</svg>
