<svg width="12" height="12" viewBox="0 0 12 12" fill="none" xmlns="http://www.w3.org/2000/svg">
<path fill-rule="evenodd" clip-rule="evenodd" d="M7.17834 6.00016L11.5892 1.58936C11.915 1.26353 11.915 0.736865 11.5892 0.411031C11.2633 0.0851981 10.7367 0.0851981 10.4108 0.411031L6.00001 4.82182L1.58918 0.411031C1.26335 0.0851981 0.736682 0.0851981 0.410848 0.411031C0.0850151 0.736865 0.0850151 1.26353 0.410848 1.58936L4.82167 6.00016L0.410848 10.4111C0.0850151 10.7368 0.0850151 11.2635 0.410848 11.5893C0.573348 11.7518 0.786681 11.8335 1.00001 11.8335C1.21335 11.8335 1.42668 11.7518 1.58918 11.5893L6.00001 7.17857L10.4108 11.5893C10.5733 11.7518 10.7867 11.8335 11 11.8335C11.2133 11.8335 11.4267 11.7518 11.5892 11.5893C11.915 11.2635 11.915 10.7368 11.5892 10.4111L7.17834 6.00016Z" fill="white"/>
</svg>
