<svg width="15" height="15" viewBox="0 0 15 15" fill="none" xmlns="http://www.w3.org/2000/svg">
<path fill-rule="evenodd" clip-rule="evenodd" d="M8.16683 2.83325H4.16683C3.43045 2.83325 2.8335 3.43021 2.8335 4.16659V8.16659C2.8335 8.90297 3.43045 9.49992 4.16683 9.49992H8.16683C8.90321 9.49992 9.50016 8.90297 9.50016 8.16659V4.16659C9.50016 3.43021 8.90321 2.83325 8.16683 2.83325ZM4.16683 0.833252C2.32588 0.833252 0.833496 2.32564 0.833496 4.16659V8.16659C0.833496 10.0075 2.32588 11.4999 4.16683 11.4999H8.16683C10.0078 11.4999 11.5002 10.0075 11.5002 8.16659V4.16659C11.5002 2.32564 10.0078 0.833252 8.16683 0.833252H4.16683Z" fill="#00966D"/>
<path fill-rule="evenodd" clip-rule="evenodd" d="M13.5002 5.16659C14.0524 5.16659 14.5002 5.6143 14.5002 6.16659V10.1666C14.5002 12.5598 12.5601 14.4999 10.1668 14.4999H6.16683C5.61454 14.4999 5.16683 14.0522 5.16683 13.4999C5.16683 12.9476 5.61454 12.4999 6.16683 12.4999H10.1668C11.4555 12.4999 12.5002 11.4552 12.5002 10.1666V6.16659C12.5002 5.6143 12.9479 5.16659 13.5002 5.16659Z" fill="#00966D"/>
</svg>
