<svg width="16" height="17" viewBox="0 0 16 17" fill="none" xmlns="http://www.w3.org/2000/svg">
<path fill-rule="evenodd" clip-rule="evenodd" d="M8.66659 3.83325H4.66659C3.93021 3.83325 3.33325 4.43021 3.33325 5.16659V9.16659C3.33325 9.90297 3.93021 10.4999 4.66659 10.4999H8.66659C9.40297 10.4999 9.99992 9.90297 9.99992 9.16659V5.16659C9.99992 4.43021 9.40297 3.83325 8.66659 3.83325ZM4.66659 1.83325C2.82564 1.83325 1.33325 3.32564 1.33325 5.16659V9.16659C1.33325 11.0075 2.82564 12.4999 4.66659 12.4999H8.66659C10.5075 12.4999 11.9999 11.0075 11.9999 9.16659V5.16659C11.9999 3.32564 10.5075 1.83325 8.66659 1.83325H4.66659Z" fill="#FCFCFC"/>
<path fill-rule="evenodd" clip-rule="evenodd" d="M13.9999 6.16659C14.5522 6.16659 14.9999 6.6143 14.9999 7.16659V11.1666C14.9999 13.5598 13.0598 15.4999 10.6666 15.4999H6.66659C6.1143 15.4999 5.66659 15.0522 5.66659 14.4999C5.66659 13.9476 6.1143 13.4999 6.66659 13.4999H10.6666C11.9552 13.4999 12.9999 12.4552 12.9999 11.1666V7.16659C12.9999 6.6143 13.4476 6.16659 13.9999 6.16659Z" fill="#FCFCFC"/>
</svg>
