<svg width="16" height="16" viewBox="0 0 16 16" fill="none" xmlns="http://www.w3.org/2000/svg">
<path fill-rule="evenodd" clip-rule="evenodd" d="M8.66665 3.33325H4.66665C3.93027 3.33325 3.33331 3.93021 3.33331 4.66659V8.66659C3.33331 9.40297 3.93027 9.99992 4.66665 9.99992H8.66665C9.40303 9.99992 9.99998 9.40297 9.99998 8.66659V4.66659C9.99998 3.93021 9.40303 3.33325 8.66665 3.33325ZM4.66665 1.33325C2.8257 1.33325 1.33331 2.82564 1.33331 4.66659V8.66659C1.33331 10.5075 2.8257 11.9999 4.66665 11.9999H8.66665C10.5076 11.9999 12 10.5075 12 8.66659V4.66659C12 2.82564 10.5076 1.33325 8.66665 1.33325H4.66665Z" fill="#A0A3BD"/>
<path fill-rule="evenodd" clip-rule="evenodd" d="M14 5.6665C14.5522 5.6665 15 6.11422 15 6.6665V10.6665C15 13.0597 13.0599 14.9998 10.6666 14.9998H6.66663C6.11434 14.9998 5.66663 14.5521 5.66663 13.9998C5.66663 13.4476 6.11434 12.9998 6.66663 12.9998H10.6666C11.9553 12.9998 13 11.9552 13 10.6665V6.6665C13 6.11422 13.4477 5.6665 14 5.6665Z" fill="#A0A3BD"/>
</svg>
