<svg width="17" height="17" viewBox="0 0 17 17" fill="none" xmlns="http://www.w3.org/2000/svg">
<path fill-rule="evenodd" clip-rule="evenodd" d="M9.16659 3.83325H5.16659C4.43021 3.83325 3.83325 4.43021 3.83325 5.16659V9.16659C3.83325 9.90297 4.43021 10.4999 5.16659 10.4999H9.16659C9.90297 10.4999 10.4999 9.90297 10.4999 9.16659V5.16659C10.4999 4.43021 9.90297 3.83325 9.16659 3.83325ZM5.16659 1.83325C3.32564 1.83325 1.83325 3.32564 1.83325 5.16659V9.16659C1.83325 11.0075 3.32564 12.4999 5.16659 12.4999H9.16659C11.0075 12.4999 12.4999 11.0075 12.4999 9.16659V5.16659C12.4999 3.32564 11.0075 1.83325 9.16659 1.83325H5.16659Z" fill="#002EB4"/>
<path fill-rule="evenodd" clip-rule="evenodd" d="M14.4999 6.16659C15.0522 6.16659 15.4999 6.6143 15.4999 7.16659V11.1666C15.4999 13.5598 13.5598 15.4999 11.1666 15.4999H7.16659C6.6143 15.4999 6.16659 15.0522 6.16659 14.4999C6.16659 13.9476 6.6143 13.4999 7.16659 13.4999H11.1666C12.4552 13.4999 13.4999 12.4552 13.4999 11.1666V7.16659C13.4999 6.6143 13.9476 6.16659 14.4999 6.16659Z" fill="#002EB4"/>
</svg>
