<svg width="20" height="20" viewBox="0 0 20 20" fill="none" xmlns="http://www.w3.org/2000/svg">
<path d="M12.2218 10.0001C12.2218 11.2272 11.227 12.2221 9.99986 12.2221C8.7727 12.2221 7.77788 11.2272 7.77788 10.0001C7.77788 8.77291 8.7727 7.7781 9.99986 7.7781C11.227 7.7781 12.2218 8.77291 12.2218 10.0001Z" fill="#ACABA8"/>
<path fill-rule="evenodd" clip-rule="evenodd" d="M11.111 16.2571C11.111 16.8679 11.6572 17.3402 12.2402 17.158C14.5805 16.4267 16.4279 14.5795 17.1596 12.2394C17.3418 11.6564 16.8695 11.1101 16.2587 11.1101H15.5542C14.9407 11.1101 14.4433 10.6127 14.4433 9.99911C14.4433 9.38552 14.9407 8.88811 15.5542 8.88811H16.2588C16.8696 8.88811 17.3419 8.34183 17.1597 7.75887C16.4281 5.41853 14.5806 3.57115 12.2402 2.83983C11.6572 2.65767 11.111 3.12999 11.111 3.74072V4.44404C11.111 5.05762 10.6136 5.55503 9.99999 5.55503C9.38641 5.55503 8.889 5.05763 8.889 4.44404V3.74122C8.889 3.1304 8.34262 2.65806 7.75964 2.84039C5.42006 3.5721 3.57329 5.41913 2.84192 7.75887C2.6597 8.34183 3.13203 8.88811 3.7428 8.88811H4.44396C5.05755 8.88811 5.55496 9.38552 5.55496 9.99911C5.55496 10.6127 5.05755 11.1101 4.44397 11.1101H3.74291C3.13212 11.1101 2.65979 11.6564 2.84205 12.2394C3.5735 14.5789 5.42019 16.4258 7.75964 17.1575C8.34262 17.3398 8.889 16.8675 8.889 16.2566V15.554C8.889 14.9404 9.38641 14.443 9.99999 14.443C10.6136 14.443 11.111 14.9404 11.111 15.554V16.2571ZM0.00211358 10.0682C0.0393229 15.5521 4.49123 19.9875 9.98152 19.9978L10.0008 19.9978L10.0183 19.9978C15.5325 19.9884 19.9997 15.5154 19.9997 9.99892C19.9997 4.47667 15.5231 0 10.0008 0C4.50152 0 0.0391451 4.4395 0.00211081 9.93006C0.000710465 9.95289 1.01399e-09 9.97592 0 9.99911C-1.01399e-09 10.0223 0.000711398 10.0453 0.00211358 10.0682Z" fill="#ACABA8"/>
</svg>
