<svg width="28" height="28" viewBox="0 0 28 28" fill="none" xmlns="http://www.w3.org/2000/svg">
<ellipse cx="13.9998" cy="14.0001" rx="2.96264" ry="2.96264" fill="#14142B"/>
<path fill-rule="evenodd" clip-rule="evenodd" d="M15.4813 22.7293C15.4813 23.34 16.0262 23.8114 16.6158 23.6521C20.0359 22.7279 22.7295 20.0347 23.6542 16.6148C23.8136 16.0251 23.3422 15.4801 22.7314 15.4801H21.4056C20.5875 15.4801 19.9243 14.8169 19.9243 13.9988C19.9243 13.1807 20.5875 12.5175 21.4056 12.5175H22.7315C23.3423 12.5175 23.8137 11.9725 23.6543 11.3829C22.7298 7.9627 20.0361 5.26923 16.6158 4.34504C16.0262 4.18573 15.4813 4.65711 15.4813 5.26784V6.59204C15.4813 7.41016 14.8181 8.07337 14 8.07337C13.1818 8.07337 12.5186 7.41016 12.5186 6.59205V5.26842C12.5186 4.65759 11.9736 4.18619 11.3839 4.34567C7.96472 5.27046 5.27205 7.96348 4.34776 11.3829C4.18838 11.9725 4.65977 12.5175 5.27054 12.5175H6.59191C7.41002 12.5175 8.07324 13.1807 8.07324 13.9988C8.07324 14.8169 7.41003 15.4801 6.59191 15.4801H5.27067C4.65988 15.4801 4.18849 16.0251 4.3479 16.6148C5.27232 20.0339 7.96489 22.7267 11.3839 23.6514C11.9736 23.8109 12.5186 23.3395 12.5186 22.7287V21.4053C12.5186 20.5872 13.1818 19.924 14 19.924C14.8181 19.924 15.4813 20.5872 15.4813 21.4053V22.7293ZM0.669444 14.0909C0.719057 21.4029 6.65493 27.3166 13.9753 27.3304L14.001 27.3305L14.0243 27.3304C21.3766 27.3179 27.3329 21.3538 27.3329 13.9986C27.3329 6.63555 21.364 0.666656 14.001 0.666656C6.66866 0.666656 0.718819 6.58599 0.66944 13.9067C0.667573 13.9372 0.666626 13.9679 0.666626 13.9988C0.666626 14.0297 0.667575 14.0605 0.669444 14.0909Z" fill="#14142B"/>
</svg>
