<svg width="11" height="10" viewBox="0 0 11 10" fill="none" xmlns="http://www.w3.org/2000/svg">
<path fill-rule="evenodd" clip-rule="evenodd" d="M9.69954 3.57299L10.0597 3.93299C10.3448 4.21299 10.4998 4.59299 10.4998 4.99299C10.5048 5.39299 10.3498 5.77349 10.0697 6.05799C10.0663 6.06166 10.063 6.06488 10.0597 6.0681C10.058 6.06972 10.0563 6.07133 10.0547 6.07299L9.69954 6.42799C9.55948 6.56799 9.47946 6.75799 9.47946 6.95849V7.47299C9.47946 8.30299 8.80421 8.97849 7.97391 8.97849H7.45872C7.25865 8.97849 7.06858 9.05799 6.92853 9.19799L6.5684 9.55799C6.27329 9.85349 5.88815 9.99799 5.50301 9.99799C5.11787 9.99799 4.73274 9.85349 4.43763 9.56349L4.0725 9.19799C3.93245 9.05799 3.74238 8.97849 3.5423 8.97849H3.02712C2.19682 8.97849 1.52157 8.30299 1.52157 7.47299V6.95849C1.52157 6.75799 1.44154 6.56799 1.30149 6.42299L0.941361 6.06799C0.356149 5.48349 0.351147 4.52799 0.936359 3.93849L1.30149 3.57299C1.44154 3.43299 1.52157 3.24299 1.52157 3.03799V2.52799C1.52157 1.69799 2.19682 1.02349 3.02712 1.02349H3.5423C3.74238 1.02349 3.93245 0.942994 4.0725 0.802994L4.43263 0.442994C5.01784 -0.146506 5.97318 -0.146506 6.5634 0.438494L6.92853 0.802994C7.06858 0.942994 7.25865 1.02349 7.45872 1.02349H7.97391C8.80421 1.02349 9.47946 1.69799 9.47946 2.52799V3.04349C9.47946 3.24299 9.55948 3.43299 9.69954 3.57299ZM4.21255 6.72299C4.33259 6.72299 4.44263 6.67799 4.52266 6.59299L7.09359 4.02349C7.26365 3.85349 7.26365 3.57299 7.09359 3.40299C6.92353 3.23349 6.64843 3.23349 6.47837 3.40299L3.90744 5.97299C3.73737 6.14299 3.73737 6.42299 3.90744 6.59299C3.98747 6.67799 4.09751 6.72299 4.21255 6.72299ZM6.34832 6.28299C6.34832 6.52799 6.54339 6.72299 6.78848 6.72299C7.02857 6.72299 7.22364 6.52799 7.22364 6.28299C7.22364 6.04349 7.02857 5.84799 6.78848 5.84799C6.54339 5.84799 6.34832 6.04349 6.34832 6.28299ZM4.21755 3.27799C4.45764 3.27799 4.65271 3.47299 4.65271 3.71299C4.65271 3.95849 4.45764 4.15299 4.21755 4.15299C3.97746 4.15299 3.77739 3.95849 3.77739 3.71299C3.77739 3.47299 3.97746 3.27799 4.21755 3.27799Z" fill="#16A163"/>
</svg>
