<svg width="60" height="60" viewBox="0 0 60 60" fill="none" xmlns="http://www.w3.org/2000/svg">
<rect width="60" height="60" rx="16" fill="#2C59D1"/>
<path fill-rule="evenodd" clip-rule="evenodd" d="M23 20C21.3431 20 20 21.3431 20 23V37C20 38.6569 21.3431 40 23 40H33C34.6569 40 36 38.6569 36 37V23C36 21.3431 34.6569 20 33 20H23ZM23.2858 25C22.7336 25 22.2858 25.4477 22.2858 26C22.2858 26.5523 22.7336 27 23.2858 27H31.5716C32.1238 27 32.5716 26.5523 32.5716 26C32.5716 25.4477 32.1238 25 31.5716 25H23.2858ZM22.2858 30C22.2858 29.4477 22.7336 29 23.2858 29H31.5716C32.1238 29 32.5716 29.4477 32.5716 30C32.5716 30.5523 32.1238 31 31.5716 31H23.2858C22.7336 31 22.2858 30.5523 22.2858 30ZM23.2858 33C22.7336 33 22.2858 33.4477 22.2858 34C22.2858 34.5523 22.7336 35 23.2858 35H27.0001C27.5524 35 28.0001 34.5523 28.0001 34C28.0001 33.4477 27.5524 33 27.0001 33H23.2858Z" fill="#FCFCFC"/>
<rect x="38" y="22" width="2" height="17" rx="1" fill="#FCFCFC"/>
</svg>
