<svg width="44" height="44" viewBox="0 0 44 44" fill="none" xmlns="http://www.w3.org/2000/svg">
<rect opacity="0.32" width="44" height="44" rx="12" fill="#CDEAFF"/>
<path fill-rule="evenodd" clip-rule="evenodd" d="M15 11C13.3431 11 12 12.3431 12 14V28C12 29.6569 13.3431 31 15 31H25C26.6569 31 28 29.6569 28 28V14C28 12.3431 26.6569 11 25 11H15ZM15.2858 16C14.7336 16 14.2858 16.4477 14.2858 17C14.2858 17.5523 14.7336 18 15.2858 18H23.5716C24.1238 18 24.5716 17.5523 24.5716 17C24.5716 16.4477 24.1238 16 23.5716 16H15.2858ZM14.2858 21C14.2858 20.4477 14.7336 20 15.2858 20H23.5716C24.1238 20 24.5716 20.4477 24.5716 21C24.5716 21.5523 24.1238 22 23.5716 22H15.2858C14.7336 22 14.2858 21.5523 14.2858 21ZM15.2858 24C14.7336 24 14.2858 24.4477 14.2858 25C14.2858 25.5523 14.7336 26 15.2858 26H19.0001C19.5524 26 20.0001 25.5523 20.0001 25C20.0001 24.4477 19.5524 24 19.0001 24H15.2858Z" fill="#002EB4"/>
<rect x="30" y="13" width="2" height="17" rx="1" fill="#002EB4"/>
</svg>
