<svg width="28" height="28" viewBox="0 0 28 28" fill="none" xmlns="http://www.w3.org/2000/svg">
<path d="M17.1108 4.07104C17.0757 4.11011 17.0014 4.26245 16.9468 4.41089C16.728 4.99292 16.5679 5.15698 16.0132 5.37183C15.6499 5.50854 15.5757 5.56714 15.5405 5.71948C15.4975 5.91479 15.603 6.04761 15.8804 6.14917C16.5288 6.38745 16.7358 6.57886 16.9311 7.12964C17.0639 7.50464 17.1421 7.59448 17.3374 7.59448C17.5171 7.59448 17.6108 7.50464 17.7085 7.23511C17.9429 6.59839 18.1069 6.42261 18.6694 6.20386C18.8686 6.12964 19.0561 6.03589 19.0835 6.00464C19.1577 5.91479 19.146 5.66089 19.06 5.56714C19.021 5.52417 18.8804 5.45386 18.7475 5.40698C18.4194 5.29761 18.1225 5.12183 18.0014 4.96167C17.9429 4.88745 17.8374 4.67261 17.7632 4.48511C17.6889 4.29761 17.603 4.11011 17.5639 4.07104C17.478 3.97729 17.1968 3.97339 17.1108 4.07104ZM17.7905 5.68042L17.9389 5.78589L17.7671 5.91089C17.6733 5.97729 17.5366 6.11401 17.4702 6.20776L17.3452 6.37964L17.2202 6.21558C17.1186 6.08276 16.9624 5.94214 16.7788 5.81714C16.7749 5.81323 16.896 5.67651 17.0522 5.52026L17.3374 5.22729L17.4897 5.39917C17.5757 5.49683 17.7124 5.62183 17.7905 5.68042Z" fill="#002EB4"/>
<path d="M22.2282 4.42261C22.193 4.45776 22.111 4.62183 22.0485 4.78198C21.904 5.13745 21.7594 5.27808 21.404 5.40308C21.025 5.53589 20.9196 5.70386 21.0485 5.95386C21.0915 6.03589 21.1735 6.09058 21.3844 6.1687C21.7672 6.31714 21.8961 6.44214 22.0446 6.80542C22.1813 7.13745 22.275 7.24292 22.4352 7.24292C22.6071 7.24292 22.7321 7.11011 22.8454 6.80933C22.9782 6.46167 23.1305 6.30542 23.4547 6.19214C23.7829 6.07495 23.8805 5.9812 23.8805 5.7937C23.8805 5.59839 23.7946 5.51245 23.4665 5.39136C23.1227 5.26245 22.9782 5.11792 22.8454 4.76245C22.7907 4.61011 22.7086 4.45776 22.6618 4.4187C22.5563 4.32886 22.3102 4.33276 22.2282 4.42261Z" fill="#002EB4"/>
<path d="M20.3384 6.31314C20.2525 6.35611 20.1939 6.45767 20.0728 6.78189C19.9868 7.01626 19.7876 7.21548 19.5532 7.30142C19.2212 7.42642 19.1275 7.48111 19.0806 7.57876C18.9712 7.81704 19.0845 7.9772 19.4712 8.12173C19.8189 8.25454 19.9751 8.41079 20.0923 8.73111C20.2095 9.05533 20.3189 9.17251 20.5025 9.16861C20.6939 9.1647 20.7642 9.08658 20.8931 8.76236C21.0376 8.38736 21.1353 8.28579 21.4907 8.14126C21.8814 7.9772 21.9282 7.93423 21.9282 7.73111C21.9282 7.53189 21.8697 7.46939 21.5376 7.34048C21.1587 7.19204 21.0572 7.09439 20.9126 6.74673C20.8462 6.57876 20.7603 6.41079 20.7251 6.37564C20.6392 6.2897 20.4478 6.25454 20.3384 6.31314Z" fill="#002EB4"/>
<path d="M12.3379 8.59448C10.9355 8.6687 9.15039 8.88354 8.70508 9.03198C8.32227 9.15698 7.89648 9.43823 7.63477 9.73511C7.38867 10.0085 7.22461 10.325 6.81055 11.3132C6.63086 11.739 6.47461 12.0867 6.46289 12.0867C6.45117 12.0867 6.40039 12.0242 6.35352 11.95C6.24414 11.782 6.00586 11.657 5.79883 11.657C5.57227 11.657 4.50977 11.8484 4.38867 11.9109C4.25586 11.9812 4.08789 12.1609 4.04102 12.2937C3.98633 12.4343 3.98633 12.9109 4.04102 13.0515C4.08789 13.1843 4.25586 13.364 4.38867 13.4343C4.44336 13.4617 4.69727 13.5281 4.95508 13.5867C5.21289 13.6453 5.44727 13.7 5.47461 13.7078C5.50586 13.7195 5.43164 13.864 5.26758 14.1179C4.94727 14.6101 4.81836 14.8718 4.67773 15.2898L4.56445 15.6218L4.55273 17.9382C4.54492 19.9187 4.54883 20.2898 4.59961 20.489C4.79883 21.2664 5.35352 21.8015 6.16992 22.0085C6.4668 22.0867 6.63477 22.0867 13.959 22.0867C21.2832 22.0867 21.4512 22.0867 21.748 22.0085C22.5645 21.8015 23.1191 21.2664 23.3184 20.489C23.3691 20.2898 23.373 19.9187 23.3652 17.9382L23.3535 15.6218L23.2402 15.2898C23.0996 14.8718 22.9355 14.5476 22.6348 14.0867C22.4824 13.8523 22.4121 13.7195 22.4434 13.7078C22.4707 13.7 22.7012 13.6492 22.959 13.5906C23.4707 13.4812 23.5762 13.4343 23.7324 13.2703C23.877 13.1179 23.9199 12.9851 23.9199 12.6726C23.9199 12.5242 23.9004 12.3562 23.877 12.2937C23.8301 12.1609 23.6621 11.9812 23.5254 11.9109C23.373 11.8289 22.252 11.6453 22.0371 11.6648C21.834 11.6843 21.5996 11.8367 21.5293 11.9929C21.5059 12.0437 21.4746 12.0867 21.459 12.0867C21.4434 12.0867 21.2871 11.739 21.1074 11.3132C20.6934 10.325 20.5293 10.0085 20.2832 9.73511C20.0098 9.42261 19.5723 9.14136 19.1816 9.02026C18.7637 8.89526 17.8105 8.76636 16.4199 8.64526C15.9395 8.6062 12.877 8.56714 12.3379 8.59448ZM15.7559 9.27417C16.9395 9.34448 18.291 9.49292 18.7949 9.61011C19.252 9.71167 19.666 9.99682 19.9434 10.3953C20.0059 10.489 20.2793 11.0945 20.5566 11.7429L21.0566 12.9265L21.6777 13.864C22.7363 15.4695 22.709 15.3757 22.709 17.407V18.8835H14.2715H5.83008L5.73633 18.9812C5.60352 19.1101 5.60352 19.321 5.73633 19.45L5.83008 19.5476H14.2754H22.7168L22.7012 19.946C22.6895 20.2507 22.666 20.3953 22.5996 20.5398C22.4785 20.8093 22.2832 21.032 22.041 21.1765C21.5996 21.4382 22.1348 21.4226 13.959 21.4226C5.7832 21.4226 6.31836 21.4382 5.87695 21.1765C5.63477 21.032 5.44336 20.8132 5.31836 20.5398C5.22852 20.3484 5.22852 20.3406 5.2168 18.1453C5.20508 15.2937 5.1543 15.5164 6.14258 14.0085L6.66211 13.2195H13.5332H20.4082L20.502 13.1218C20.627 13.0007 20.627 12.8289 20.5059 12.6843L20.4121 12.575L13.7285 12.5632C9.99805 12.5593 7.04492 12.5398 7.04492 12.5203C7.04492 12.4382 7.88086 10.532 7.98242 10.3875C8.13477 10.1648 8.46289 9.87573 8.69336 9.75854C8.93945 9.63354 9.23633 9.56714 9.99414 9.47339C10.6035 9.39917 11.8496 9.28589 12.3574 9.26245C13.0059 9.2312 15.1777 9.23901 15.7559 9.27417ZM5.93164 12.6179C6.06055 12.8953 6.06445 12.9187 6.00586 13.0085C5.9707 13.0593 5.91211 13.1023 5.87695 13.1023C5.8418 13.1023 5.56055 13.0437 5.24805 12.9734L4.68164 12.8445V12.6726V12.5007L5.15039 12.4148C5.8418 12.2937 5.77539 12.2742 5.93164 12.6179ZM22.748 12.4109L23.2363 12.5007V12.6726V12.8445L22.6699 12.9734C22.3574 13.0437 22.0762 13.1023 22.0449 13.1023C22.0098 13.1023 21.9551 13.0554 21.9238 12.9929C21.8652 12.8914 21.8652 12.8757 21.9902 12.6023C22.084 12.4031 22.1426 12.321 22.1895 12.321C22.2285 12.325 22.4785 12.364 22.748 12.4109Z" fill="#002EB4"/>
<path d="M6.30225 15.1179C6.16944 15.1726 5.98585 15.3953 5.92335 15.5789C5.83741 15.8367 5.83741 16.3015 5.92725 16.5632C5.99757 16.782 6.19288 17.0085 6.38819 17.1101C6.49366 17.1648 9.27882 17.5945 9.53663 17.5945C9.66944 17.5945 9.81788 17.4265 9.81788 17.2742C9.81788 17.0281 8.90382 15.5046 8.646 15.325C8.48194 15.2117 6.50538 15.0359 6.30225 15.1179ZM7.29835 15.7976C7.55616 15.8171 7.88429 15.8484 8.02491 15.8601L8.27882 15.8835L8.5171 16.2429C8.646 16.4382 8.77882 16.6531 8.81397 16.7156L8.87257 16.8367L7.84522 16.6921C7.27882 16.614 6.77882 16.5359 6.73585 16.5203C6.59913 16.4773 6.52491 16.321 6.521 16.0789C6.5171 15.7234 6.48975 15.7312 7.29835 15.7976Z" fill="#002EB4"/>
<path d="M20.4824 15.1335C19.4512 15.239 19.3457 15.2585 19.209 15.3757C18.9395 15.614 18.0996 17.0476 18.0996 17.2742C18.0996 17.4265 18.248 17.5945 18.3809 17.5945C18.5215 17.5945 21.2246 17.2078 21.3848 17.1648C21.6621 17.0906 21.9004 16.8445 21.9902 16.5398C22.1348 16.0632 22.0488 15.5007 21.7871 15.2468L21.6504 15.114L21.2324 15.1062C21.002 15.1062 20.666 15.1179 20.4824 15.1335ZM21.3691 15.8054C21.4238 15.8953 21.3965 16.2937 21.3301 16.3992C21.2441 16.5281 21.1582 16.5476 20.0059 16.7039L19.0449 16.8367L19.1035 16.7195C19.1348 16.6531 19.2715 16.4382 19.4004 16.239L19.6387 15.8835L19.9551 15.8523C21.0918 15.7507 21.3262 15.7429 21.3691 15.8054Z" fill="#002EB4"/>
<path d="M9.79465 15.4343C9.68137 15.4578 9.58762 15.5632 9.56418 15.7039C9.54855 15.7937 9.6384 16.0203 9.98605 16.7507C10.2712 17.3562 10.4626 17.7117 10.5251 17.7546C10.6071 17.8171 10.8532 17.8406 12.2946 17.9226L13.9665 18.0203L15.6345 17.9226C17.0837 17.8406 17.3103 17.8171 17.3962 17.7546C17.4587 17.7117 17.6462 17.3562 17.9353 16.7507C18.404 15.7546 18.4236 15.6765 18.2556 15.5046C18.1618 15.4148 18.1228 15.4148 16.7321 15.5203C15.0564 15.6492 14.0954 15.6921 13.4509 15.6648C12.8767 15.6375 10.2439 15.4617 9.99387 15.4304C9.93137 15.4226 9.83762 15.4265 9.79465 15.4343ZM11.4001 16.2039C13.615 16.3718 14.2829 16.3718 16.5486 16.2039C16.9978 16.1726 17.3845 16.1492 17.4118 16.157C17.4939 16.1765 17.0134 17.1609 16.9118 17.1843C16.865 17.1921 16.1696 17.2351 15.365 17.2781L13.9001 17.3562L12.4275 17.2703C11.6189 17.2234 10.947 17.1726 10.9392 17.1648C10.9275 17.1531 10.8142 16.9226 10.6853 16.6453L10.447 16.1492H10.5525C10.6111 16.1492 10.9939 16.1765 11.4001 16.2039Z" fill="#002EB4"/>
<path d="M4.75586 21.6492C4.70898 21.657 4.63867 21.696 4.59961 21.7429C4.5332 21.8132 4.52539 21.8992 4.52539 22.6492C4.52539 23.4695 4.52539 23.4734 4.63086 23.6492C4.68945 23.7546 4.79492 23.8601 4.88867 23.9148C5.03711 23.9968 5.08008 24.0007 6.08398 24.0007C7.21289 24.0007 7.23633 23.9968 7.44336 23.7781C7.59961 23.614 7.63086 23.489 7.63086 23.0046C7.63086 22.571 7.62695 22.5593 7.5293 22.4812C7.39258 22.3718 7.23242 22.3757 7.09961 22.4929C6.99805 22.5789 6.99023 22.6101 6.97461 22.95C6.96289 23.1609 6.93945 23.3289 6.91211 23.3445C6.8457 23.3914 5.33008 23.3796 5.24414 23.3367C5.17383 23.2976 5.16992 23.2468 5.16992 22.5593C5.16992 21.8484 5.16602 21.825 5.08398 21.7468C4.98633 21.6609 4.88086 21.6296 4.75586 21.6492Z" fill="#002EB4"/>
<path d="M22.9551 21.6492C22.9043 21.657 22.8301 21.7078 22.7871 21.7625C22.7168 21.8562 22.709 21.9187 22.709 22.571C22.709 23.071 22.6934 23.2976 22.6621 23.3289C22.5957 23.3953 21.0684 23.3953 20.9824 23.3289C20.9316 23.2898 20.916 23.1921 20.9043 22.9148C20.8926 22.5867 20.8848 22.5398 20.7988 22.4734C20.6699 22.3679 20.4629 22.3757 20.3457 22.4968C20.252 22.5867 20.248 22.6179 20.248 23.0125C20.248 23.5085 20.3145 23.6921 20.5449 23.8679L20.6895 23.9812H21.8105H22.9316L23.0723 23.8718C23.3496 23.6609 23.373 23.5632 23.373 22.6414C23.373 21.8445 23.3691 21.825 23.2871 21.7468C23.1855 21.657 23.084 21.6296 22.9551 21.6492Z" fill="#002EB4"/>
</svg>
