<svg width="9" height="10" viewBox="0 0 9 10" fill="none" xmlns="http://www.w3.org/2000/svg">
<path fill-rule="evenodd" clip-rule="evenodd" d="M0.505219 8.99419C0.231852 8.72083 0.231852 8.27761 0.505219 8.00424L4.00522 4.50424C4.27859 4.23088 4.7218 4.23088 4.99517 4.50424L8.49517 8.00424C8.76854 8.27761 8.76854 8.72083 8.49517 8.99419C8.2218 9.26756 7.77859 9.26756 7.50522 8.99419L4.50019 5.98917L1.49517 8.99419C1.2218 9.26756 0.778586 9.26756 0.505219 8.99419ZM0.50522 4.79419C0.231853 4.52083 0.231853 4.07761 0.50522 3.80424L4.00522 0.304243C4.27859 0.0308765 4.7218 0.0308765 4.99517 0.304243L8.49517 3.80424C8.76854 4.07761 8.76854 4.52083 8.49517 4.79419C8.2218 5.06756 7.77859 5.06756 7.50522 4.79419L4.50019 1.78917L1.49517 4.79419C1.2218 5.06756 0.778587 5.06756 0.50522 4.79419Z" fill="#A0A3BD"/>
</svg>
