<svg width="9" height="10" viewBox="0 0 9 10" fill="none" xmlns="http://www.w3.org/2000/svg">
<path fill-rule="evenodd" clip-rule="evenodd" d="M8.49478 1.00581C8.76815 1.27917 8.76815 1.72239 8.49478 1.99576L4.99478 5.49576C4.72141 5.76912 4.2782 5.76912 4.00483 5.49576L0.50483 1.99576C0.231463 1.72239 0.231463 1.27917 0.50483 1.00581C0.778197 0.73244 1.22141 0.73244 1.49478 1.00581L4.49981 4.01083L7.50483 1.00581C7.7782 0.732439 8.22141 0.732439 8.49478 1.00581ZM8.49478 5.20581C8.76815 5.47917 8.76815 5.92239 8.49478 6.19576L4.99478 9.69576C4.72141 9.96912 4.2782 9.96912 4.00483 9.69576L0.50483 6.19576C0.231463 5.92239 0.231463 5.47917 0.50483 5.20581C0.778197 4.93244 1.22141 4.93244 1.49478 5.20581L4.4998 8.21083L7.50483 5.20581C7.7782 4.93244 8.22141 4.93244 8.49478 5.20581Z" fill="#A0A3BD"/>
</svg>
