<svg width="48" height="48" viewBox="0 0 48 48" fill="none" xmlns="http://www.w3.org/2000/svg">
<circle cx="24" cy="24" r="24" fill="#183A92"/>
<path fill-rule="evenodd" clip-rule="evenodd" d="M15 31C15 29.8954 15.8954 29 17 29L33 29C34.1046 29 35 29.8954 35 31C35 32.1046 34.1046 33 33 33L17 33C15.8954 33 15 32.1046 15 31Z" fill="#FCFCFC"/>
<path fill-rule="evenodd" clip-rule="evenodd" d="M25 14C26.1046 14 27 14.8954 27 16L27 23C27 24.1046 26.1046 25 25 25C23.8954 25 23 24.1046 23 23L23 16C23 14.8954 23.8954 14 25 14Z" fill="#FCFCFC"/>
<path fill-rule="evenodd" clip-rule="evenodd" d="M30.5999 20.8001C31.2626 21.6838 31.0835 22.9374 30.1999 23.6001L26.1999 26.6001C25.4888 27.1335 24.511 27.1335 23.7999 26.6001L19.7999 23.6001C18.9162 22.9374 18.7371 21.6838 19.3999 20.8001C20.0626 19.9165 21.3162 19.7374 22.1999 20.4001L24.9999 22.5001L27.7999 20.4001C28.6835 19.7374 29.9371 19.9165 30.5999 20.8001Z" fill="#FCFCFC"/>
</svg>
