<svg width="24" height="24" viewBox="0 0 24 24" fill="none" xmlns="http://www.w3.org/2000/svg">
<path d="M13.39 7.095C13.7814 6.70531 14.4159 6.70531 14.8072 7.095L16.9684 9.24696C17.3597 9.63665 17.3597 10.2685 16.9684 10.6582L7.79617 19.7914C7.38945 20.1964 6.8276 20.4078 6.25354 20.372L4.67136 20.2732C4.16728 20.2418 3.7655 19.8417 3.7339 19.3398L3.6347 17.7643C3.59872 17.1927 3.81109 16.6332 4.21781 16.2282L13.39 7.095Z" fill="#00BA88"/>
<path d="M17.682 2.7056C18.0734 2.31591 18.7079 2.31591 19.0992 2.7056L21.2911 4.88817C21.6825 5.27786 21.6825 5.90968 21.2911 6.29937L19.0899 8.49126C18.6985 8.88096 18.064 8.88096 17.6726 8.49127L15.4808 6.3087C15.0894 5.919 15.0894 5.28719 15.4808 4.8975L17.682 2.7056Z" fill="#00BA88"/>
</svg>
