<svg width="48" height="48" viewBox="0 0 48 48" fill="none" xmlns="http://www.w3.org/2000/svg">
<circle cx="24" cy="24" r="24" fill="#F7F7FC"/>
<path d="M25.39 19.095C25.7814 18.7053 26.4159 18.7053 26.8072 19.095L28.9684 21.247C29.3597 21.6366 29.3597 22.2685 28.9684 22.6582L19.7962 31.7914C19.3895 32.1964 18.8276 32.4078 18.2535 32.372L16.6714 32.2732C16.1673 32.2418 15.7655 31.8417 15.7339 31.3398L15.6347 29.7643C15.5987 29.1927 15.8111 28.6332 16.2178 28.2282L25.39 19.095Z" fill="#14142B"/>
<path d="M29.682 14.7056C30.0734 14.3159 30.7079 14.3159 31.0992 14.7056L33.2911 16.8882C33.6825 17.2779 33.6825 17.9097 33.2911 18.2994L31.0899 20.4913C30.6985 20.881 30.064 20.881 29.6726 20.4913L27.4808 18.3087C27.0894 17.919 27.0894 17.2872 27.4808 16.8975L29.682 14.7056Z" fill="#14142B"/>
</svg>
