<svg width="16" height="16" viewBox="0 0 16 16" fill="none" xmlns="http://www.w3.org/2000/svg">
<path fill-rule="evenodd" clip-rule="evenodd" d="M14.6667 8C14.6667 11.6819 11.6819 14.6667 8.00004 14.6667C4.31814 14.6667 1.33337 11.6819 1.33337 8C1.33337 4.3181 4.31814 1.33333 8.00004 1.33333C11.6819 1.33333 14.6667 4.3181 14.6667 8ZM8.66671 11.3333C8.66671 11.7015 8.36823 12 8.00004 12C7.63185 12 7.33337 11.7015 7.33337 11.3333C7.33337 10.9651 7.63185 10.6667 8.00004 10.6667C8.36823 10.6667 8.66671 10.9651 8.66671 11.3333ZM8.00004 3.99999C7.63185 3.99999 7.33337 4.29847 7.33337 4.66666V9.33333C7.33337 9.70152 7.63185 10 8.00004 10C8.36823 10 8.66671 9.70152 8.66671 9.33333V4.66666C8.66671 4.29847 8.36823 3.99999 8.00004 3.99999Z" fill="#00BA88"/>
</svg>
