<svg width="40" height="40" viewBox="0 0 40 40" fill="none" xmlns="http://www.w3.org/2000/svg">
<rect width="40" height="40" rx="12" fill="url(#paint0_linear)"/>
<mask id="mask0" mask-type="alpha" maskUnits="userSpaceOnUse" x="0" y="0" width="40" height="40">
<rect width="40" height="40" rx="12" fill="#C4C4C4"/>
</mask>
<g mask="url(#mask0)">
<g opacity="0.4">
<rect x="-10" y="39.2676" width="16.6667" height="11.6667" rx="1" transform="rotate(-45 -10 39.2676)" fill="#5B89FF"/>
<rect x="-3.33334" y="18.4517" width="16.6667" height="11.6667" rx="1" transform="rotate(-45 -3.33334 18.4517)" fill="#5B89FF"/>
<rect x="6.68407" y="28.8877" width="10.2124" height="7.14867" rx="1" transform="rotate(-45 6.68407 28.8877)" fill="#5B89FF"/>
<rect x="25" y="10.5547" width="4.92686" height="9.04046" rx="1" transform="rotate(-45 25 10.5547)" fill="#5B89FF"/>
<rect width="5.2707" height="9.04046" rx="1" transform="matrix(0.707106 -0.707107 0.707106 0.707107 32.0799 18.0708)" fill="#5B89FF"/>
<rect x="30" y="5.55469" width="10.2124" height="23.4058" rx="1" transform="rotate(-45 30 5.55469)" fill="#5B89FF"/>
<rect x="13.3333" y="8.8877" width="10.2124" height="7.14867" rx="1" transform="rotate(-45 13.3333 8.8877)" fill="#5B89FF"/>
<rect width="10.2124" height="7.14867" rx="1" transform="matrix(0.707107 -0.707106 0.707107 0.707106 21.6667 0.554688)" fill="#5B89FF"/>
<rect x="3.18237" y="-1.26318" width="10.2124" height="12.0762" rx="1" transform="rotate(-45 3.18237 -1.26318)" fill="#5B89FF"/>
<rect x="-5" y="7.22119" width="10.2124" height="7.14867" rx="1" transform="rotate(-45 -5 7.22119)" fill="#5B89FF"/>
<rect x="16.123" y="19.4316" width="10.2441" height="14.2901" rx="1" transform="rotate(-45 16.123 19.4316)" fill="#5B89FF"/>
<rect x="28.3333" y="31.3501" width="10.0865" height="14.2901" rx="1" transform="rotate(-45 28.3333 31.3501)" fill="#5B89FF"/>
<rect x="6.66667" y="42.2295" width="20.2616" height="8.01123" rx="1" transform="rotate(-45 6.66667 42.2295)" fill="#5B89FF"/>
<rect x="20" y="44.3271" width="12.4035" height="8.01123" rx="1" transform="rotate(-45 20 44.3271)" fill="#5B89FF"/>
</g>
</g>
<path fill-rule="evenodd" clip-rule="evenodd" d="M24.9406 30.7214C29.8584 28.7583 33.3333 23.9516 33.3333 18.3333C33.3333 10.9695 27.3638 5 20 5C12.6362 5 6.66667 10.9695 6.66667 18.3333C6.66667 23.9517 10.1417 28.7584 15.0596 30.7214L20 35L24.9406 30.7214Z" fill="url(#paint1_linear)"/>
<ellipse cx="20" cy="18.4921" rx="11.4286" ry="11.4286" fill="url(#paint2_linear)"/>
<g clip-path="url(#clip0)">
<path d="M20.0001 9C16.2836 9 13.0441 11.1445 11.4939 14.2711L13.4217 16.2152C13.9384 16.7363 14.1769 17.4378 14.1968 18.1593C14.1968 18.1593 14.1968 18.1593 14.1968 18.1793C14.1968 19.1614 14.5744 20.0432 15.2899 20.7447C16.0054 21.4662 16.86 21.827 17.8338 21.847C18.1915 21.847 18.5294 21.807 18.8673 21.7068L16.0054 18.8207L16.542 16.7964L18.5493 16.2553L21.3913 19.1213C21.4907 18.7806 21.5503 18.4399 21.5305 18.0791C21.5305 17.097 21.1528 16.2352 20.4374 15.5137C19.7219 14.7922 18.8673 14.4114 17.8934 14.4114C17.8139 14.4114 17.7543 14.4114 17.5953 14.3913C16.9196 14.3112 16.3035 14.0105 15.8265 13.5295L15.3892 13.0886C16.6215 12.0464 18.2313 11.4051 19.9803 11.4051C23.8955 11.4051 27.0953 14.5918 27.0953 18.52C27.0953 18.7405 27.0754 18.9409 27.0754 19.1614C27.0556 19.4821 27.1549 19.8027 27.3736 20.0232L28.9635 21.6266C29.3014 20.6445 29.4802 19.6023 29.4802 18.52C29.5001 13.2489 25.247 9 20.0001 9Z" fill="white"/>
<path d="M26.5786 20.8047C26.0619 20.2836 25.8035 19.5821 25.8035 18.8606C25.8035 18.8606 25.8035 18.8606 25.8035 18.8406C25.8035 17.8585 25.4259 16.9766 24.7104 16.2752C23.9949 15.5537 23.1403 15.1929 22.1665 15.1729C21.8087 15.1729 21.4709 15.2129 21.133 15.3131L23.9751 18.1792L23.4385 20.2034L21.4311 20.7446L18.5891 17.8785C18.4897 18.2193 18.45 18.56 18.45 18.9207C18.45 19.9028 18.8276 20.7646 19.5431 21.4861C20.2585 22.2077 21.1131 22.5885 22.087 22.5885C22.1665 22.5885 22.2261 22.5885 22.3851 22.6085C23.0608 22.6887 23.6769 22.9893 24.1539 23.4703L24.5912 23.9112C23.359 24.9534 21.7491 25.5948 20.0002 25.5948C16.0849 25.6148 12.8851 22.4281 12.8851 18.4999C12.8851 18.2994 12.8851 18.1191 12.905 17.9387C12.9249 17.5779 12.8255 17.2172 12.5671 16.9766L11.0169 15.4134C10.679 16.3754 10.5002 17.4176 10.5002 18.4999C10.5002 23.7509 14.7533 27.9999 20.0002 27.9999C23.7167 27.9999 26.9562 25.8553 28.5064 22.7288L26.5786 20.8047Z" fill="white"/>
</g>
<defs>
<linearGradient id="paint0_linear" x1="-6.42857" y1="-5.07937" x2="36.912" y2="52.0373" gradientUnits="userSpaceOnUse">
<stop stop-color="#628CFF"/>
<stop offset="1" stop-color="#0432AE"/>
</linearGradient>
<linearGradient id="paint1_linear" x1="30.4762" y1="28.9682" x2="7.43098" y2="26.3356" gradientUnits="userSpaceOnUse">
<stop stop-color="#FF6400"/>
<stop offset="1" stop-color="#FFB68D"/>
</linearGradient>
<linearGradient id="paint2_linear" x1="-0.952367" y1="34.6825" x2="47.6191" y2="-6.26985" gradientUnits="userSpaceOnUse">
<stop stop-color="#FF6400"/>
<stop offset="1" stop-color="#FFB68D"/>
</linearGradient>
<clipPath id="clip0">
<rect width="19" height="19" fill="white" transform="translate(10.5002 9)"/>
</clipPath>
</defs>
</svg>
