<svg width="41" height="40" viewBox="0 0 41 40" fill="none" xmlns="http://www.w3.org/2000/svg">
<g clip-path="url(#clip0)">
<rect x="0.5" width="40" height="40" rx="12" fill="#A0A3BD"/>
<mask id="mask0" mask-type="alpha" maskUnits="userSpaceOnUse" x="0" y="0" width="41" height="40">
<rect x="0.5" width="40" height="40" rx="12" fill="#C4C4C4"/>
</mask>
<g mask="url(#mask0)">
<g opacity="0.4">
<rect x="-9.5" y="39.2676" width="16.6667" height="11.6667" rx="1" transform="rotate(-45 -9.5 39.2676)" fill="#D6D8E7"/>
<rect x="-2.8335" y="18.4517" width="16.6667" height="11.6667" rx="1" transform="rotate(-45 -2.8335 18.4517)" fill="#D6D8E7"/>
<rect x="7.18408" y="28.8877" width="10.2124" height="7.14867" rx="1" transform="rotate(-45 7.18408 28.8877)" fill="#D6D8E7"/>
<rect x="25.5" y="10.5547" width="4.92686" height="9.04046" rx="1" transform="rotate(-45 25.5 10.5547)" fill="#D6D8E7"/>
<rect x="32.5801" y="18.0708" width="5.2707" height="9.04047" rx="1" transform="rotate(-45 32.5801 18.0708)" fill="#D6D8E7"/>
<rect x="30.5" y="5.55469" width="10.2124" height="23.4058" rx="1" transform="rotate(-45 30.5 5.55469)" fill="#D6D8E7"/>
<rect x="13.8335" y="8.8877" width="10.2124" height="7.14867" rx="1" transform="rotate(-45 13.8335 8.8877)" fill="#D6D8E7"/>
<rect x="22.1665" y="0.554688" width="10.2124" height="7.14867" rx="1" transform="rotate(-45 22.1665 0.554688)" fill="#D6D8E7"/>
<rect x="3.68213" y="-1.26318" width="10.2124" height="12.0762" rx="1" transform="rotate(-45 3.68213 -1.26318)" fill="#D6D8E7"/>
<rect x="-4.5" y="7.22119" width="10.2124" height="7.14867" rx="1" transform="rotate(-45 -4.5 7.22119)" fill="#D6D8E7"/>
<rect x="16.623" y="19.4316" width="10.2441" height="14.2901" rx="1" transform="rotate(-45 16.623 19.4316)" fill="#D6D8E7"/>
<rect x="28.8335" y="31.3501" width="10.0865" height="14.2901" rx="1" transform="rotate(-45 28.8335 31.3501)" fill="#D6D8E7"/>
<rect x="7.1665" y="42.2295" width="20.2616" height="8.01123" rx="1" transform="rotate(-45 7.1665 42.2295)" fill="#D6D8E7"/>
<rect x="20.5" y="44.3271" width="12.4035" height="8.01123" rx="1" transform="rotate(-45 20.5 44.3271)" fill="#D6D8E7"/>
</g>
</g>
<path fill-rule="evenodd" clip-rule="evenodd" d="M30.8629 25.8274C32.3168 23.6917 33.1667 21.1118 33.1667 18.3333C33.1667 10.9695 27.1971 5 19.8333 5C12.4695 5 6.5 10.9695 6.5 18.3333C6.5 25.6971 12.4695 31.6667 19.8333 31.6667C22.6118 31.6667 25.1917 30.8168 27.3274 29.3629L31.1038 33.1394C32.0801 34.1157 33.6631 34.1157 34.6394 33.1394C35.6157 32.1631 35.6157 30.5801 34.6394 29.6038L30.8629 25.8274Z" fill="url(#paint0_linear)"/>
<circle cx="19.8334" cy="18.4921" r="11.4286" fill="url(#paint1_linear)"/>
<g clip-path="url(#clip1)">
<path d="M19.9999 9C16.2834 9 13.0439 11.1445 11.4937 14.2711L13.4215 16.2152C13.9382 16.7363 14.1767 17.4378 14.1966 18.1593C14.1966 18.1593 14.1966 18.1593 14.1966 18.1793C14.1966 19.1614 14.5742 20.0432 15.2897 20.7447C16.0052 21.4662 16.8598 21.827 17.8336 21.847C18.1914 21.847 18.5292 21.807 18.8671 21.7068L16.0052 18.8207L16.5418 16.7964L18.5491 16.2553L21.3911 19.1213C21.4905 18.7806 21.5501 18.4399 21.5303 18.0791C21.5303 17.097 21.1526 16.2352 20.4372 15.5137C19.7217 14.7922 18.8671 14.4114 17.8932 14.4114C17.8137 14.4114 17.7541 14.4114 17.5951 14.3913C16.9194 14.3112 16.3033 14.0105 15.8263 13.5295L15.389 13.0886C16.6213 12.0464 18.2311 11.4051 19.9801 11.4051C23.8953 11.4051 27.0951 14.5918 27.0951 18.52C27.0951 18.7405 27.0752 18.9409 27.0752 19.1614C27.0554 19.4821 27.1547 19.8027 27.3734 20.0232L28.9633 21.6266C29.3012 20.6445 29.4801 19.6023 29.4801 18.52C29.4999 13.2489 25.2468 9 19.9999 9Z" fill="white"/>
<path d="M26.5785 20.8047C26.0617 20.2836 25.8033 19.5821 25.8033 18.8606C25.8033 18.8606 25.8033 18.8606 25.8033 18.8406C25.8033 17.8585 25.4257 16.9766 24.7103 16.2752C23.9948 15.5537 23.1402 15.1929 22.1663 15.1729C21.8086 15.1729 21.4707 15.2129 21.1328 15.3131L23.9749 18.1792L23.4383 20.2034L21.431 20.7446L18.5889 17.8785C18.4895 18.2193 18.4498 18.56 18.4498 18.9207C18.4498 19.9028 18.8274 20.7646 19.5429 21.4861C20.2584 22.2077 21.113 22.5885 22.0868 22.5885C22.1663 22.5885 22.2259 22.5885 22.3849 22.6085C23.0607 22.6887 23.6768 22.9893 24.1538 23.4703L24.591 23.9112C23.3588 24.9534 21.749 25.5948 20 25.5948C16.0847 25.6148 12.8849 22.4281 12.8849 18.4999C12.8849 18.2994 12.8849 18.1191 12.9048 17.9387C12.9247 17.5779 12.8253 17.2172 12.5669 16.9766L11.0167 15.4134C10.6789 16.3754 10.5 17.4176 10.5 18.4999C10.5 23.7509 14.7531 27.9999 20 27.9999C23.7165 27.9999 26.9561 25.8553 28.5063 22.7288L26.5785 20.8047Z" fill="white"/>
</g>
</g>
<defs>
<linearGradient id="paint0_linear" x1="33.7663" y1="30.3367" x2="7.43417" y2="27.0779" gradientUnits="userSpaceOnUse">
<stop stop-color="#D6D8E7"/>
<stop offset="1" stop-color="#F7F7F7"/>
<stop offset="1" stop-color="#EFF0F7"/>
</linearGradient>
<linearGradient id="paint1_linear" x1="-1.11903" y1="34.6825" x2="47.4524" y2="-6.26986" gradientUnits="userSpaceOnUse">
<stop stop-color="#D6D8E7"/>
<stop offset="1" stop-color="#EFF0F7"/>
</linearGradient>
<clipPath id="clip0">
<rect width="40" height="40" fill="white" transform="translate(0.5)"/>
</clipPath>
<clipPath id="clip1">
<rect width="19" height="19" fill="white" transform="translate(10.5 9)"/>
</clipPath>
</defs>
</svg>
