<svg width="48" height="48" viewBox="0 0 48 48" fill="none" xmlns="http://www.w3.org/2000/svg">
<path fill-rule="evenodd" clip-rule="evenodd" d="M27.7973 6.56159C27.4052 6.17267 26.7694 6.17267 26.3773 6.56159L26.1514 6.78561H25.1641C24.6118 6.78561 24.1641 7.23332 24.1641 7.78561V8.57238C24.1641 9.12467 24.6118 9.57238 25.1641 9.57238H26.8593L33.885 16.5409C34.2772 16.9299 34.9129 16.9299 35.305 16.5409L35.8718 15.9788C36.2639 15.5899 36.2639 14.9593 35.8718 14.5704L30.8194 9.55916C31.2942 9.48133 31.6564 9.06916 31.6564 8.57238V7.78561C31.6564 7.23332 31.2087 6.78561 30.6564 6.78561H28.0231L27.7973 6.56159Z" fill="#FF6400"/>
<path fill-rule="evenodd" clip-rule="evenodd" d="M22.7593 30.3566V22.5791H25.5689V30.3566C25.5689 33.9289 26.9996 37.3549 29.5464 39.8809L31.7133 42.0302L29.7265 44.0007L27.5597 41.8515C24.486 38.8028 22.7593 34.668 22.7593 30.3566Z" fill="#FF6400"/>
<rect x="20.418" y="20.7207" width="7.49235" height="3.7157" rx="1" fill="#FF6400"/>
<path d="M16.6719 6.0197C16.6719 5.43314 17.1744 4.97253 17.7587 5.02348L27.9338 5.91072C28.4505 5.95577 28.8469 6.38832 28.8469 6.90694V11.3601C28.8469 11.9124 28.3992 12.3601 27.8469 12.3601H17.6719C17.1196 12.3601 16.6719 11.9124 16.6719 11.3601V6.0197Z" fill="#FF6400"/>
<path opacity="0.3" d="M21.3105 7.49551C21.3105 7.01167 21.7125 6.6247 22.196 6.64313L27.0974 6.82997C27.5054 6.84552 27.8281 7.18074 27.8281 7.58897C27.8281 8.00845 27.488 8.34851 27.0685 8.34851H22.1635C21.6924 8.34851 21.3105 7.96661 21.3105 7.49551Z" fill="#FF6400"/>
<path d="M20.418 12.3604H26.9738V20.7207H21.1464L20.418 12.3604Z" fill="#FF6400"/>
<rect x="12" y="4" width="5.58644" height="9.56525" rx="1" fill="#FF6400"/>
<rect opacity="0.3" x="13.8623" y="4.86914" width="2.79322" height="1.73914" rx="0.869568" fill="#FF6400"/>
</svg>
