<svg width="16" height="17" viewBox="0 0 16 17" fill="none" xmlns="http://www.w3.org/2000/svg">
<path fill-rule="evenodd" clip-rule="evenodd" d="M5 2.83331C5 2.28103 5.44772 1.83331 6 1.83331C6.55228 1.83331 7 2.28103 7 2.83331V4.83331H9V2.83331C9 2.28103 9.44772 1.83331 10 1.83331C10.5523 1.83331 11 2.28103 11 2.83331V4.8499C11.5675 4.94512 12 5.43871 12 6.03331V6.83331C12 8.69715 10.7252 10.2633 9 10.7073V14.1666C9 14.7189 8.55229 15.1666 8 15.1666C7.44772 15.1666 7 14.7189 7 14.1666V10.7073C5.27477 10.2633 4 8.69715 4 6.83331V6.03331C4 5.43871 4.43246 4.94512 5 4.8499V2.83331Z" fill="#D6D8E7"/>
</svg>
