<svg width="16" height="17" viewBox="0 0 16 17" fill="none" xmlns="http://www.w3.org/2000/svg">
<path fill-rule="evenodd" clip-rule="evenodd" d="M9.82203 2.90027C10.0726 2.64331 10.0569 2.24158 9.78713 2.00297C9.51732 1.76437 9.0955 1.77924 8.84497 2.0362L7.86791 3.03831C7.5244 3.39063 7.3335 3.85363 7.3335 4.33441V5.64288H3.96842C3.61776 5.64288 3.3335 5.92715 3.3335 6.2778C3.3335 6.62846 3.61776 6.91272 3.96842 6.91272H4.0527C4.05147 6.93952 4.05184 6.96671 4.0539 6.99418L4.62057 14.5497C4.64666 14.8976 4.93652 15.1665 5.28537 15.1665H10.715C11.0638 15.1665 11.3537 14.8976 11.3798 14.5497L11.9464 6.99418C11.9485 6.96671 11.9489 6.93952 11.9476 6.91272H12.0319C12.3826 6.91272 12.6668 6.62846 12.6668 6.2778C12.6668 5.92715 12.3826 5.64288 12.0319 5.64288H8.66683V4.33441C8.66683 4.17415 8.73046 4.01982 8.84497 3.90238L9.82203 2.90027Z" fill="#D6D8E7"/>
</svg>
