<svg width="16" height="17" viewBox="0 0 16 17" fill="none" xmlns="http://www.w3.org/2000/svg">
<path fill-rule="evenodd" clip-rule="evenodd" d="M7.33309 5.3014C7.05433 5.07224 6.84444 4.76957 6.73133 4.42551C6.57303 3.94396 6.61731 3.42078 6.85443 2.97107C7.09154 2.52137 7.50207 2.18197 7.9957 2.02754C8.33834 1.92035 8.70519 2.10442 8.81507 2.43868C8.92495 2.77295 8.73626 3.13082 8.39361 3.23801C8.22907 3.28948 8.09223 3.40262 8.01319 3.55252C7.93415 3.70242 7.91939 3.87681 7.97216 4.03733C8.02493 4.19785 8.1409 4.33135 8.29456 4.40845C8.44822 4.48555 8.62699 4.49995 8.79153 4.44848C9.13417 4.34128 9.50102 4.52536 9.6109 4.85962C9.72078 5.19388 9.53209 5.55175 9.18944 5.65894C9.01858 5.7124 8.84261 5.74217 8.66642 5.74867V7.17301C8.66642 7.18429 8.66614 7.19551 8.66559 7.20665C10.1892 7.3901 11.6215 8.19904 12.7138 9.50982C13.566 10.5325 14.1637 11.8036 14.4579 13.1812C14.6885 14.2614 13.771 15.1667 12.6664 15.1667H7.99976H3.33309C2.22852 15.1667 1.311 14.2614 1.54165 13.1812C1.83581 11.8036 2.43348 10.5325 3.28571 9.50982C4.37802 8.19904 5.81035 7.3901 7.33392 7.20665C7.33337 7.19551 7.33309 7.18429 7.33309 7.17301V5.3014Z" fill="#D6D8E7"/>
</svg>
