<svg width="16" height="17" viewBox="0 0 16 17" fill="none" xmlns="http://www.w3.org/2000/svg">
<path fill-rule="evenodd" clip-rule="evenodd" d="M8.99974 3.42411C8.67687 3.87219 8.17297 4.06093 7.87425 3.84568C7.57554 3.63044 7.59512 3.09271 7.91799 2.64463C8.24086 2.19655 8.74476 2.00781 9.04348 2.22306C9.3422 2.43831 9.32261 2.97604 8.99974 3.42411ZM13.6664 12.7574C13.3435 13.2055 12.8396 13.3943 12.5409 13.179C12.2422 12.9638 12.2618 12.426 12.5847 11.978C12.9075 11.5299 13.4114 11.3411 13.7101 11.5564C14.0089 11.7716 13.9893 12.3094 13.6664 12.7574ZM5 3.16665C5.1841 3.16665 5.33333 3.01741 5.33333 2.83332C5.33333 2.64922 5.1841 2.49998 5 2.49998C4.81591 2.49998 4.66667 2.64922 4.66667 2.83332C4.66667 3.01741 4.81591 3.16665 5 3.16665ZM12.6667 3.70116C12.6667 3.88525 12.5174 4.03449 12.3333 4.03449C12.1492 4.03449 12 3.88525 12 3.70116C12 3.51706 12.1492 3.36782 12.3333 3.36782C12.5174 3.36782 12.6667 3.51706 12.6667 3.70116ZM2.33333 7.16665C2.51743 7.16665 2.66667 7.01741 2.66667 6.83332C2.66667 6.64922 2.51743 6.49998 2.33333 6.49998C2.14924 6.49998 2 6.64922 2 6.83332C2 7.01741 2.14924 7.16665 2.33333 7.16665ZM14 8.83332C14 9.01741 13.8508 9.16665 13.6667 9.16665C13.4826 9.16665 13.3333 9.01741 13.3333 8.83332C13.3333 8.64922 13.4826 8.49998 13.6667 8.49998C13.8508 8.49998 14 8.64922 14 8.83332ZM5.69644 4.66497L5.45671 4.377C5.28732 4.17354 4.95749 4.25995 4.90963 4.52032L4.90956 4.52032L4.62185 5.37787C3.81811 7.77349 3.35894 10.2712 3.25812 12.796L3.22203 13.6998L3.22209 13.6998C3.17423 13.9602 3.45176 14.1583 3.68243 14.0284L4.00891 13.8445L4.31973 14.2179C4.52564 14.4652 4.87884 14.5301 5.15924 14.3722L5.58254 14.1338L5.89336 14.5071C6.09927 14.7545 6.45247 14.8194 6.73287 14.6615L7.15617 14.4231L7.46699 14.7964C7.6729 15.0438 8.0261 15.1087 8.3065 14.9508L8.7298 14.7124L9.04062 15.0857C9.24653 15.3331 9.59973 15.398 9.88013 15.2401L10.3034 15.0017L10.5432 15.2896C10.7125 15.4931 11.0424 15.4067 11.0902 15.1463L11.0902 15.1463L11.3779 14.2887C12.1816 11.8931 12.6408 9.39542 12.7416 6.87058L12.7777 5.96678L12.7778 5.96678C12.8256 5.70641 12.5481 5.50834 12.3174 5.63826L11.991 5.82214L11.6801 5.44877C11.4742 5.20144 11.121 5.13651 10.8406 5.29444L10.4173 5.53284L10.1065 5.15948C9.9006 4.91215 9.5474 4.84722 9.267 5.00515L8.8437 5.24355L8.53288 4.87019C8.32697 4.62286 7.97377 4.55793 7.69337 4.71586L7.27007 4.95426L6.95925 4.5809C6.75334 4.33357 6.40014 4.26864 6.11974 4.42657L5.69644 4.66497ZM10.6227 10.3155C10.3564 11.764 8.96627 12.7223 7.51778 12.456C6.0693 12.1897 5.11093 10.7996 5.37722 9.35116C5.6435 7.90268 7.0336 6.94431 8.48209 7.2106C9.93057 7.47688 10.8889 8.86698 10.6227 10.3155Z" fill="#D6D8E7"/>
</svg>
