<svg width="16" height="17" viewBox="0 0 16 17" fill="none" xmlns="http://www.w3.org/2000/svg">
<path d="M9.3335 12.5C9.3335 13.2364 8.73654 13.8334 8.00016 13.8334C7.26378 13.8334 6.66683 13.2364 6.66683 12.5C6.66683 11.7636 7.26378 11.1667 8.00016 11.1667C8.73654 11.1667 9.3335 11.7636 9.3335 12.5Z" fill="#D6D8E7"/>
<path fill-rule="evenodd" clip-rule="evenodd" d="M9.9583 9.77668C8.87685 8.71446 7.12347 8.71446 6.04202 9.77668L5.57595 10.2345C5.21547 10.5885 4.63101 10.5885 4.27053 10.2345C3.91004 9.88039 3.91004 9.30632 4.27053 8.95225L4.73659 8.49447C6.53901 6.72409 9.46131 6.72409 11.2637 8.49447L11.7298 8.95225C12.0903 9.30632 12.0903 9.88039 11.7298 10.2345C11.3693 10.5885 10.7849 10.5885 10.4244 10.2345L9.9583 9.77668Z" fill="#D6D8E7"/>
<path fill-rule="evenodd" clip-rule="evenodd" d="M12.7142 7.19998C10.1107 4.47776 5.88961 4.47776 3.28612 7.19998L2.95931 7.54169C2.58738 7.93058 1.98437 7.93058 1.61244 7.54169C1.24051 7.1528 1.24051 6.52229 1.61244 6.1334L1.93925 5.79169C5.2866 2.29169 10.7137 2.29169 14.0611 5.79169L14.3879 6.1334C14.7598 6.52229 14.7598 7.1528 14.3879 7.54169C14.016 7.93058 13.4129 7.93058 13.041 7.54169L12.7142 7.19998Z" fill="#D6D8E7"/>
</svg>
