<svg width="16" height="17" viewBox="0 0 16 17" fill="none" xmlns="http://www.w3.org/2000/svg">
<path fill-rule="evenodd" clip-rule="evenodd" d="M6.00022 1.83331C5.26384 1.83331 4.66688 2.43027 4.66688 3.16665V7.83331H11.3336V3.16665C11.3336 2.43027 10.7366 1.83331 10.0002 1.83331H6.00022ZM3.52274 9.81529C3.31517 9.10877 3.9305 8.49998 4.66688 8.49998L8.00022 8.49998L11.3336 8.49998C12.0699 8.49998 12.6853 9.10877 12.4777 9.81529C12.2594 10.5583 11.8575 11.2423 11.3 11.7998C10.8768 12.2231 10.3806 12.5566 9.84107 12.7882L9.55577 14.5H9.66688C9.85098 14.5 10.0002 14.6492 10.0002 14.8333C10.0002 15.0174 9.85098 15.1666 9.66688 15.1666H6.33355C6.14946 15.1666 6.00022 15.0174 6.00022 14.8333C6.00022 14.6492 6.14946 14.5 6.33355 14.5H6.44466L6.15937 12.7882C5.6198 12.5566 5.12363 12.2231 4.70039 11.7998C4.1429 11.2423 3.74104 10.5583 3.52274 9.81529Z" fill="#D6D8E7"/>
</svg>
