<svg width="16" height="17" viewBox="0 0 16 17" fill="none" xmlns="http://www.w3.org/2000/svg">
<path fill-rule="evenodd" clip-rule="evenodd" d="M2.66683 1.83331C1.93045 1.83331 1.3335 2.43027 1.3335 3.16665V6.06724C1.3335 6.35386 1.3797 6.6386 1.47034 6.91051L1.69626 7.58828C1.87775 8.13274 2.38727 8.49998 2.96118 8.49998H13.0392C13.6131 8.49998 14.1226 8.13274 14.3041 7.58828L14.53 6.91051C14.6206 6.6386 14.6668 6.35386 14.6668 6.06724V3.16665C14.6668 2.43027 14.0699 1.83331 13.3335 1.83331H2.66683ZM13.3335 4.16665C13.3335 4.71893 12.8858 5.16665 12.3335 5.16665C11.7812 5.16665 11.3335 4.71893 11.3335 4.16665C11.3335 3.61436 11.7812 3.16665 12.3335 3.16665C12.8858 3.16665 13.3335 3.61436 13.3335 4.16665ZM4.66683 9.16665C5.03502 9.16665 5.3335 9.46512 5.3335 9.83331V10.5C5.3335 11.9727 4.13959 13.1666 2.66683 13.1666H2.00016C1.63197 13.1666 1.3335 12.8682 1.3335 12.5C1.3335 12.1318 1.63197 11.8333 2.00016 11.8333H2.66683C3.40321 11.8333 4.00016 11.2364 4.00016 10.5V9.83331C4.00016 9.46512 4.29864 9.16665 4.66683 9.16665ZM6.66683 9.16665C7.03502 9.16665 7.3335 9.46512 7.3335 9.83331V11.8333C7.3335 13.6743 5.84111 15.1666 4.00016 15.1666H3.3335C2.96531 15.1666 2.66683 14.8682 2.66683 14.5C2.66683 14.1318 2.96531 13.8333 3.3335 13.8333H4.00016C5.10473 13.8333 6.00016 12.9379 6.00016 11.8333V9.83331C6.00016 9.46512 6.29864 9.16665 6.66683 9.16665ZM9.3335 9.16665C8.96531 9.16665 8.66683 9.46512 8.66683 9.83331V11.8333C8.66683 13.6743 10.1592 15.1666 12.0002 15.1666H12.6668C13.035 15.1666 13.3335 14.8682 13.3335 14.5C13.3335 14.1318 13.035 13.8333 12.6668 13.8333H12.0002C10.8956 13.8333 10.0002 12.9379 10.0002 11.8333V9.83331C10.0002 9.46512 9.70169 9.16665 9.3335 9.16665ZM10.6668 9.83331C10.6668 9.46512 10.9653 9.16665 11.3335 9.16665C11.7017 9.16665 12.0002 9.46512 12.0002 9.83331V10.5C12.0002 11.2364 12.5971 11.8333 13.3335 11.8333H14.0002C14.3684 11.8333 14.6668 12.1318 14.6668 12.5C14.6668 12.8682 14.3684 13.1666 14.0002 13.1666H13.3335C11.8607 13.1666 10.6668 11.9727 10.6668 10.5V9.83331Z" fill="#D6D8E7"/>
</svg>
