<svg width="16" height="17" viewBox="0 0 16 17" fill="none" xmlns="http://www.w3.org/2000/svg">
<path fill-rule="evenodd" clip-rule="evenodd" d="M2.55336 8.04449L2.81844 7.13719C3.27336 5.58017 4.7884 4.5 6.51734 4.5H9.48226C11.2112 4.5 12.7262 5.58017 13.1812 7.13719L13.4462 8.04449C14.1429 8.38834 14.6222 9.10589 14.6222 9.93536C14.6222 10.6514 14.265 11.2841 13.7191 11.6649V12.5C13.7191 12.8682 13.4206 13.1667 13.0524 13.1667H11.9776C11.6095 13.1667 11.311 12.8682 11.311 12.5V12.0427H4.68862V12.5C4.68862 12.8682 4.39015 13.1667 4.02196 13.1667H2.94716C2.57897 13.1667 2.28049 12.8682 2.28049 12.5V11.6649C1.7346 11.2841 1.37744 10.6514 1.37744 9.93536C1.37744 9.10588 1.85667 8.38834 2.55336 8.04449ZM4.66646 9.83333C4.66646 10.2015 4.36799 10.5 3.9998 10.5C3.63161 10.5 3.33313 10.2015 3.33313 9.83333C3.33313 9.46514 3.63161 9.16667 3.9998 9.16667C4.36799 9.16667 4.66646 9.46514 4.66646 9.83333ZM11.9998 10.5C12.368 10.5 12.6665 10.2015 12.6665 9.83333C12.6665 9.46514 12.368 9.16667 11.9998 9.16667C11.6316 9.16667 11.3331 9.46514 11.3331 9.83333C11.3331 10.2015 11.6316 10.5 11.9998 10.5Z" fill="#D6D8E7"/>
</svg>
