<svg width="16" height="17" viewBox="0 0 16 17" fill="none" xmlns="http://www.w3.org/2000/svg">
<path fill-rule="evenodd" clip-rule="evenodd" d="M4.77473 3.8416C3.46767 3.90633 2.43557 4.95423 2.37909 6.27392L2.37416 6.3891L2.61588 6.3996C2.80691 6.40789 2.88906 6.41928 3.00764 6.45393C3.31018 6.54236 3.56416 6.69053 3.78389 6.90678C3.99233 7.11192 4.13913 7.33833 4.23775 7.60674C4.28665 7.73982 4.51185 8.24214 4.53129 8.26148C4.53847 8.26864 4.59995 8.25975 4.66789 8.24173C5.37657 8.05387 7.22668 7.89013 8.32557 7.91804C9.43353 7.94616 10.6816 8.0725 11.2762 8.21669C11.3739 8.24037 11.4562 8.2572 11.4591 8.25411C11.462 8.251 11.5488 8.05228 11.6519 7.81247C11.8951 7.24678 11.9821 7.10487 12.2222 6.88127C12.4334 6.68464 12.6939 6.53792 12.985 6.45165C13.0996 6.41768 13.1738 6.40807 13.3726 6.40146L13.6185 6.39325V6.34767C13.6185 6.24025 13.5812 5.95056 13.5507 5.82142C13.4301 5.3099 13.2184 4.93011 12.853 4.56979C12.5496 4.27068 12.2636 4.09154 11.8951 3.96983C11.6631 3.89318 11.5208 3.86592 11.2538 3.84691C11.0524 3.83258 5.05626 3.82766 4.77473 3.8416ZM2.23629 7.07221C1.62617 7.22999 1.23387 7.86147 1.35565 8.48972C1.43549 8.90156 1.71897 9.24376 2.1104 9.40079C2.16341 9.42206 2.20889 9.44566 2.21145 9.45325C2.214 9.46081 2.26742 9.90925 2.33012 10.4497L2.44414 11.4325L2.50596 11.5559C2.68428 11.9121 3.08878 12.1481 3.66171 12.2303C3.82155 12.2533 4.3049 12.2555 8.08385 12.2513C12.7711 12.246 12.3884 12.2547 12.7266 12.1458C13.1461 12.0107 13.4482 11.7487 13.5489 11.4324C13.559 11.4007 13.5787 11.2712 13.5926 11.1445C13.6565 10.5658 13.7866 9.46407 13.7933 9.44553C13.7975 9.43422 13.8119 9.42496 13.8253 9.42496C13.8388 9.42496 13.919 9.39009 14.0035 9.34746C14.2551 9.2205 14.4682 8.98951 14.5738 8.72913C14.8425 8.06666 14.508 7.31819 13.8435 7.0952C13.6679 7.03624 13.3977 7.02201 13.2151 7.06209C12.9081 7.12952 12.619 7.33728 12.4603 7.60453C12.4369 7.64396 12.2749 8.001 12.1003 8.39797C11.9257 8.79492 11.7802 9.12223 11.7771 9.12532C11.774 9.12842 11.6863 9.1051 11.5822 9.07352C10.3979 8.71411 8.80957 8.51313 7.59206 8.56865C6.54381 8.61645 5.44632 8.79016 4.46757 9.06319C4.33607 9.09987 4.22638 9.12778 4.22381 9.12521C4.21406 9.1155 3.66947 7.88454 3.65756 7.84533C3.63281 7.7637 3.53492 7.58814 3.45748 7.48645C3.30921 7.29178 3.06634 7.13308 2.82245 7.0715C2.65318 7.02877 2.40308 7.02907 2.23629 7.07221ZM2.80246 12.9641C2.80738 13.4115 2.80925 13.4352 2.84592 13.5139C2.89047 13.6095 2.97945 13.7058 3.07446 13.7613C3.17295 13.8188 3.34912 13.8398 3.66613 13.8316C3.91691 13.8252 3.94937 13.8209 4.03365 13.7828C4.21506 13.7007 4.31642 13.569 4.34854 13.3736C4.35818 13.315 4.3661 13.159 4.36616 13.0268L4.3663 12.7865L3.96204 12.7769C3.33597 12.762 3.09666 12.7082 2.8358 12.5239L2.79733 12.4967L2.80246 12.9641ZM13.135 12.5468C12.8977 12.7131 12.5453 12.7808 11.9139 12.7814L11.6347 12.7817L11.6348 13.0244C11.6349 13.1579 11.6428 13.315 11.6524 13.3736C11.6845 13.5685 11.7849 13.6993 11.9673 13.7837C12.0577 13.8256 12.0676 13.8265 12.4099 13.8265C12.6457 13.8265 12.7828 13.8196 12.8301 13.8055C12.9179 13.7792 13.0259 13.6989 13.0969 13.607C13.1928 13.4829 13.2028 13.416 13.1978 12.9348L13.1934 12.5059L13.135 12.5468Z" fill="#D6D8E7"/>
</svg>
