<svg width="60" height="60" viewBox="0 0 60 60" fill="none" xmlns="http://www.w3.org/2000/svg">
<g filter="url(#filter0_dd)">
<circle cx="30" cy="26" r="10" fill="#ED2E2E"/>
</g>
<g filter="url(#filter1_dd)">
<circle cx="30" cy="26" r="13" stroke="#ED2E2E" stroke-width="2"/>
</g>
<path fill-rule="evenodd" clip-rule="evenodd" d="M33.7836 29.7338C33.4814 30.0731 32.9752 30.0903 32.6528 29.7722L26.2528 23.4565C25.9305 23.1384 25.9142 22.6055 26.2164 22.2662C26.5186 21.9269 27.0248 21.9097 27.3472 22.2278L33.7472 28.5435C34.0695 28.8616 34.0858 29.3945 33.7836 29.7338Z" fill="white"/>
<path fill-rule="evenodd" clip-rule="evenodd" d="M33.7338 22.2164C34.0731 22.5186 34.0903 23.0248 33.7722 23.3472L27.4565 29.7471C27.1384 30.0695 26.6055 30.0858 26.2662 29.7836C25.9269 29.4814 25.9097 28.9752 26.2278 28.6528L32.5435 22.2528C32.8616 21.9305 33.3945 21.9142 33.7338 22.2164Z" fill="white"/>
<defs>
<filter id="filter0_dd" x="4" y="4" width="52" height="52" filterUnits="userSpaceOnUse" color-interpolation-filters="sRGB">
<feFlood flood-opacity="0" result="BackgroundImageFix"/>
<feColorMatrix in="SourceAlpha" type="matrix" values="0 0 0 0 0 0 0 0 0 0 0 0 0 0 0 0 0 0 127 0"/>
<feOffset dy="4"/>
<feGaussianBlur stdDeviation="8"/>
<feColorMatrix type="matrix" values="0 0 0 0 0.113725 0 0 0 0 0.105882 0 0 0 0 0.219608 0 0 0 0.08 0"/>
<feBlend mode="normal" in2="BackgroundImageFix" result="effect1_dropShadow"/>
<feColorMatrix in="SourceAlpha" type="matrix" values="0 0 0 0 0 0 0 0 0 0 0 0 0 0 0 0 0 0 127 0"/>
<feOffset dy="4"/>
<feGaussianBlur stdDeviation="8"/>
<feColorMatrix type="matrix" values="0 0 0 0 0.113725 0 0 0 0 0.105882 0 0 0 0 0.219608 0 0 0 0.08 0"/>
<feBlend mode="normal" in2="effect1_dropShadow" result="effect2_dropShadow"/>
<feBlend mode="normal" in="SourceGraphic" in2="effect2_dropShadow" result="shape"/>
</filter>
<filter id="filter1_dd" x="0" y="0" width="60" height="60" filterUnits="userSpaceOnUse" color-interpolation-filters="sRGB">
<feFlood flood-opacity="0" result="BackgroundImageFix"/>
<feColorMatrix in="SourceAlpha" type="matrix" values="0 0 0 0 0 0 0 0 0 0 0 0 0 0 0 0 0 0 127 0"/>
<feOffset dy="4"/>
<feGaussianBlur stdDeviation="8"/>
<feColorMatrix type="matrix" values="0 0 0 0 0.113725 0 0 0 0 0.105882 0 0 0 0 0.219608 0 0 0 0.08 0"/>
<feBlend mode="normal" in2="BackgroundImageFix" result="effect1_dropShadow"/>
<feColorMatrix in="SourceAlpha" type="matrix" values="0 0 0 0 0 0 0 0 0 0 0 0 0 0 0 0 0 0 127 0"/>
<feOffset dy="4"/>
<feGaussianBlur stdDeviation="8"/>
<feColorMatrix type="matrix" values="0 0 0 0 0.113725 0 0 0 0 0.105882 0 0 0 0 0.219608 0 0 0 0.08 0"/>
<feBlend mode="normal" in2="effect1_dropShadow" result="effect2_dropShadow"/>
<feBlend mode="normal" in="SourceGraphic" in2="effect2_dropShadow" result="shape"/>
</filter>
</defs>
</svg>
