<svg width="24" height="24" viewBox="0 0 24 24" fill="none" xmlns="http://www.w3.org/2000/svg">
<path fill-rule="evenodd" clip-rule="evenodd" d="M11 2C10.4477 2 10 2.44772 10 3V4C10 4.55228 10.4477 5 11 5H13C13.5523 5 14 4.55228 14 4V3C14 2.44772 13.5523 2 13 2H11ZM7 4H8C8 5.65685 9.34315 7 11 7H13C14.6569 7 16 5.65685 16 4H17C18.6569 4 20 5.34315 20 7V19C20 20.6569 18.6569 22 17 22H7C5.34315 22 4 20.6569 4 19V7C4 5.34315 5.34315 4 7 4ZM6 12.2941C6 11.7093 6.47405 11.2353 7.05882 11.2353H15.9412C16.5259 11.2353 17 11.7093 17 12.2941C17 12.8789 16.5259 13.3529 15.9412 13.3529H7.05882C6.47405 13.3529 6 12.8789 6 12.2941ZM7.05882 15.4706C6.47405 15.4706 6 15.9446 6 16.5294C6 17.1142 6.47405 17.5882 7.05882 17.5882H11.9412C12.5259 17.5882 13 17.1142 13 16.5294C13 15.9446 12.5259 15.4706 11.9412 15.4706H7.05882Z" fill="#002EB4"/>
</svg>
