<svg width="16" height="16" viewBox="0 0 16 16" fill="none" xmlns="http://www.w3.org/2000/svg">
<path fill-rule="evenodd" clip-rule="evenodd" d="M11.3335 1.33398C10.2289 1.33398 9.3335 2.22942 9.3335 3.33398C9.3335 4.43855 10.2289 5.33398 11.3335 5.33398C12.4381 5.33398 13.3335 4.43855 13.3335 3.33398C13.3335 2.22942 12.4381 1.33398 11.3335 1.33398ZM2.00016 4.00065H8.66683V2.66732H2.00016C1.63197 2.66732 1.3335 2.96579 1.3335 3.33398C1.3335 3.70217 1.63197 4.00065 2.00016 4.00065ZM14.6668 3.33398C14.6668 2.96579 14.3684 2.66732 14.0002 2.66732V4.00065C14.3684 4.00065 14.6668 3.70217 14.6668 3.33398ZM14.6668 8.00065C14.6668 8.36884 14.3684 8.66732 14.0002 8.66732H8.66683V7.33398H14.0002C14.3684 7.33398 14.6668 7.63246 14.6668 8.00065ZM2.00016 8.66732H3.3335V7.33398H2.00016C1.63197 7.33398 1.3335 7.63246 1.3335 8.00065C1.3335 8.36884 1.63197 8.66732 2.00016 8.66732ZM12.6668 12.0007H14.0002C14.3684 12.0007 14.6668 12.2991 14.6668 12.6673C14.6668 13.0355 14.3684 13.334 14.0002 13.334H12.6668V12.0007ZM1.3335 12.6673C1.3335 13.0355 1.63197 13.334 2.00016 13.334H7.3335V12.0007H2.00016C1.63197 12.0007 1.3335 12.2991 1.3335 12.6673ZM4.00016 8.00065C4.00016 6.89608 4.89559 6.00065 6.00016 6.00065C7.10473 6.00065 8.00016 6.89608 8.00016 8.00065C8.00016 9.10522 7.10473 10.0007 6.00016 10.0007C4.89559 10.0007 4.00016 9.10522 4.00016 8.00065ZM10.0002 10.6673C8.89559 10.6673 8.00016 11.5627 8.00016 12.6673C8.00016 13.7719 8.89559 14.6673 10.0002 14.6673C11.1047 14.6673 12.0002 13.7719 12.0002 12.6673C12.0002 11.5627 11.1047 10.6673 10.0002 10.6673Z" fill="#FCFCFC"/>
</svg>
