<svg width="16" height="16" viewBox="0 0 16 16" fill="none" xmlns="http://www.w3.org/2000/svg">
<path fill-rule="evenodd" clip-rule="evenodd" d="M11.334 1.33333C10.2294 1.33333 9.33398 2.22876 9.33398 3.33333C9.33398 4.4379 10.2294 5.33333 11.334 5.33333C12.4386 5.33333 13.334 4.4379 13.334 3.33333C13.334 2.22876 12.4386 1.33333 11.334 1.33333ZM2.00065 4H8.66732V2.66666H2.00065C1.63246 2.66666 1.33398 2.96514 1.33398 3.33333C1.33398 3.70152 1.63246 4 2.00065 4ZM14.6673 3.33333C14.6673 2.96514 14.3688 2.66666 14.0007 2.66666V4C14.3688 4 14.6673 3.70152 14.6673 3.33333ZM14.6673 7.99999C14.6673 8.36818 14.3688 8.66666 14.0007 8.66666H8.66732V7.33333H14.0007C14.3688 7.33333 14.6673 7.6318 14.6673 7.99999ZM2.00065 8.66666H3.33398V7.33333H2.00065C1.63246 7.33333 1.33398 7.6318 1.33398 7.99999C1.33398 8.36818 1.63246 8.66666 2.00065 8.66666ZM12.6673 12H14.0007C14.3688 12 14.6673 12.2985 14.6673 12.6667C14.6673 13.0349 14.3688 13.3333 14.0007 13.3333H12.6673V12ZM1.33398 12.6667C1.33398 13.0349 1.63246 13.3333 2.00065 13.3333H7.33399V12H2.00065C1.63246 12 1.33398 12.2985 1.33398 12.6667ZM4.00065 8C4.00065 6.89543 4.89608 5.99999 6.00065 5.99999C7.10522 5.99999 8.00065 6.89543 8.00065 8C8.00065 9.10456 7.10522 10 6.00065 10C4.89608 10 4.00065 9.10456 4.00065 8ZM10.0007 10.6667C8.89608 10.6667 8.00065 11.5621 8.00065 12.6667C8.00065 13.7712 8.89608 14.6667 10.0007 14.6667C11.1052 14.6667 12.0007 13.7712 12.0007 12.6667C12.0007 11.5621 11.1052 10.6667 10.0007 10.6667Z" fill="#FF6400"/>
</svg>
