<svg width="26" height="16" viewBox="0 0 26 16" fill="none" xmlns="http://www.w3.org/2000/svg">
<path d="M8.00041 2C5.64547 2 3.60816 3.35866 2.62451 5.33457L3.8387 6.56046L3.84212 6.56305C4.16402 6.88806 4.32369 7.33204 4.32711 7.79153C4.32711 7.79412 4.32711 7.79584 4.32711 7.79843C4.33308 8.42517 4.56363 8.97346 5.01361 9.42778C5.46359 9.8821 6.00665 10.1157 6.6274 10.1209C6.85282 10.1226 7.0697 10.0916 7.27634 10.0304L5.47982 8.21654L5.82051 6.93289L7.0919 6.58891L8.89184 8.4062C8.95502 8.19499 8.98662 7.97516 8.98406 7.7467C8.97808 7.12427 8.74498 6.57598 8.29072 6.11821C7.83732 5.66044 7.29512 5.42423 6.67864 5.41733C6.63253 5.41647 6.58984 5.41819 6.49164 5.40699C6.07069 5.35698 5.67791 5.16388 5.37821 4.86128L5.099 4.57938C5.88113 3.91557 6.89296 3.5147 7.9987 3.5147C10.4792 3.5147 12.4891 5.52768 12.4891 8.0105C12.4891 8.14585 12.4832 8.27948 12.4712 8.41224C12.4524 8.61569 12.5207 8.81742 12.6642 8.96139L13.6709 9.9778C13.8844 9.3614 14.003 8.70018 14.003 8.0105C14.0039 4.69145 11.3159 2 8.00041 2Z" fill="#FF6400"/>
<path d="M12.1652 9.44771L12.1609 9.44513C11.839 9.12012 11.6793 8.67614 11.6759 8.21665C11.6759 8.21406 11.6759 8.21234 11.6759 8.20975C11.67 7.58301 11.4394 7.03472 10.9894 6.5804C10.5394 6.12607 9.99639 5.89245 9.37564 5.88728C9.15022 5.88555 8.93334 5.91659 8.7267 5.97779L10.5232 7.79164L10.1825 9.07529L8.91114 9.41926L7.1112 7.60198C7.04802 7.81319 7.01642 8.03302 7.01899 8.26148C7.02496 8.88391 7.25807 9.4322 7.71232 9.88997C8.16572 10.3477 8.70792 10.5839 9.32441 10.5908C9.37051 10.5917 9.41235 10.59 9.51055 10.6012C9.9315 10.6512 10.3243 10.8443 10.624 11.1469L10.9006 11.4262C10.1185 12.0883 9.10753 12.4883 8.00349 12.4883C5.52302 12.4883 3.51304 10.4753 3.51304 7.9925C3.51304 7.87095 3.51816 7.75112 3.52755 7.63215C3.54634 7.40456 3.4712 7.17955 3.31153 7.01834L2.33044 6.0278C2.11698 6.64333 2 7.30369 2 7.9925C2 11.3116 4.68795 14.003 8.00349 14.003C10.3576 14.003 12.394 12.6461 13.3777 10.671L12.1652 9.44771Z" fill="white"/>
<path d="M23.0604 8.72423H20.9724V10.8602H19.0284V8.72423H16.9404V6.88823H19.0284V4.74023H20.9724V6.88823H23.0604V8.72423Z" fill="#FF6400"/>
</svg>
