<svg width="13" height="13" viewBox="0 0 13 13" fill="none" xmlns="http://www.w3.org/2000/svg">
<path d="M6.00041 0C4.15766 0 2.5094 0.831918 1.40829 2.14053C0.85714 2.79554 1.02953 3.74349 1.63194 4.35171L1.83719 4.55894C1.8382 4.55996 1.83927 4.5609 1.84041 4.56176C1.84155 4.56262 1.84262 4.56356 1.84363 4.56458C2.16452 4.88945 2.3237 5.33276 2.32711 5.79153C2.32711 5.79412 2.32711 5.79584 2.32711 5.79843C2.33308 6.42517 2.56363 6.97346 3.01361 7.42778C3.46359 7.8821 4.00665 8.11573 4.6274 8.1209C4.92483 8.12318 5.02287 7.77447 4.81357 7.56315L3.93816 6.6793C3.65422 6.39263 3.54339 5.977 3.6469 5.58701L3.65228 5.56674C3.75638 5.17451 4.06397 4.86702 4.4557 4.76104C4.84761 4.65501 5.26842 4.76713 5.55413 5.05559L6.42143 5.93126C6.63338 6.14525 6.98743 6.04787 6.98406 5.7467C6.97808 5.12427 6.74498 4.57598 6.29072 4.11821C5.83732 3.66044 5.29512 3.42423 4.67864 3.41733C4.63253 3.41647 4.58984 3.41819 4.49164 3.40699C4.07069 3.35698 3.67791 3.16388 3.37821 2.86128C3.2276 2.70922 3.23769 2.45987 3.41239 2.33624C4.14336 1.81894 5.03539 1.5147 5.9987 1.5147C8.47917 1.5147 10.4891 3.52768 10.4891 6.0105C10.4891 6.14585 10.4832 6.27948 10.4712 6.41224C10.4524 6.61569 10.5207 6.81742 10.6642 6.96139C11.1284 7.43005 11.9124 7.24009 11.9756 6.58349C11.9937 6.39497 12.003 6.20386 12.003 6.0105C12.0039 2.69145 9.31595 0 6.00041 0Z" fill="white"/>
<path d="M10.167 7.44948C10.1658 7.44831 10.1645 7.44728 10.1631 7.44642C10.1616 7.44556 10.1603 7.44453 10.1592 7.44335C9.83844 7.1185 9.67934 6.6753 9.67593 6.21665C9.67593 6.21406 9.67593 6.21234 9.67593 6.20975C9.66996 5.58301 9.43941 5.03472 8.98943 4.5804C8.53945 4.12607 7.99639 3.89245 7.37564 3.88728C7.07821 3.885 6.98017 4.2337 7.18948 4.44503L8.06488 5.32887C8.34882 5.61555 8.45965 6.03118 8.35614 6.42117L8.35076 6.44144C8.24666 6.83367 7.93907 7.14116 7.54734 7.24714C7.15543 7.35317 6.73462 7.24104 6.44891 6.95258L5.58161 6.07692C5.36966 5.86293 5.01561 5.96031 5.01899 6.26148C5.02496 6.88391 5.25807 7.4322 5.71232 7.88997C6.16572 8.34774 6.70792 8.58395 7.32441 8.59085C7.37051 8.59171 7.41235 8.58998 7.51055 8.60119C7.9315 8.65119 8.32427 8.8443 8.62398 9.14689C8.77314 9.2975 8.76298 9.54448 8.58991 9.66687C7.85864 10.184 6.96646 10.4883 6.00349 10.4883C3.52302 10.4883 1.51304 8.47533 1.51304 5.9925C1.51304 5.87095 1.51816 5.75112 1.52755 5.63215C1.54634 5.40456 1.4712 5.17955 1.31153 5.01834C0.859052 4.5615 0.0951332 4.74633 0.0304858 5.38607C0.0103415 5.58541 0 5.7877 0 5.9925C0 9.31156 2.68795 12.003 6.00349 12.003C7.84506 12.003 9.49225 11.1726 10.5931 9.86548C11.1448 9.21042 10.9722 8.26195 10.3693 7.65367L10.167 7.44948Z" fill="#002EB4"/>
</svg>
