<svg width="14" height="14" viewBox="0 0 14 14" fill="none" xmlns="http://www.w3.org/2000/svg">
<path d="M6.35016 1.02541C6.64964 0.547092 7.35068 0.547093 7.65016 1.02541L9.40019 3.82046C9.50556 3.98875 9.67295 4.10952 9.86669 4.15703L13.0844 4.94608C13.635 5.08111 13.8517 5.74319 13.4861 6.17384L11.35 8.69032C11.2214 8.84184 11.1574 9.03725 11.1718 9.23491L11.4104 12.5176C11.4513 13.0794 10.8841 13.4886 10.3587 13.2764L7.28848 12.0366C7.10362 11.962 6.89671 11.962 6.71185 12.0366L3.64163 13.2764C3.11622 13.4886 2.54907 13.0794 2.58991 12.5176L2.82852 9.23491C2.84289 9.03725 2.77895 8.84184 2.65034 8.69032L0.514218 6.17384C0.148663 5.74319 0.365296 5.08111 0.915942 4.94608L4.13363 4.15703C4.32737 4.10952 4.49477 3.98875 4.60014 3.82045L6.35016 1.02541Z" fill="#FFCF71"/>
</svg>
