<svg width="24" height="24" viewBox="0 0 24 24" fill="none" xmlns="http://www.w3.org/2000/svg">
<mask id="path-1-outside-1" maskUnits="userSpaceOnUse" x="2" y="8" width="20" height="14" fill="black">
<rect fill="white" x="2" y="8" width="20" height="14"/>
<path fill-rule="evenodd" clip-rule="evenodd" d="M5.43557 13.9655L5.74077 12.9863C6.29032 11.2232 8.12054 10 10.2092 10H13.7909C15.8795 10 17.7097 11.2232 18.2592 12.9863L18.5644 13.9655C19.4093 14.3329 20 15.1749 20 16.1549C20 16.9977 19.5632 17.7384 18.9036 18.163C18.9072 18.1977 18.9091 18.2329 18.9091 18.2686V18.814C18.9091 19.3663 18.4614 19.814 17.9091 19.814H17C16.4477 19.814 16 19.3663 16 18.814V18.5413H8V18.814C8 19.3663 7.55229 19.814 7 19.814H6.09091C5.53863 19.814 5.09091 19.3663 5.09091 18.814V18.2686C5.09091 18.2329 5.09278 18.1977 5.09642 18.163C4.43684 17.7384 4 16.9977 4 16.1549C4 15.1749 4.59075 14.3329 5.43557 13.9655Z"/>
</mask>
<path d="M5.43557 13.9655L6.23315 15.7996L7.07259 15.4345L7.34497 14.5606L5.43557 13.9655ZM5.74077 12.9863L3.83137 12.3912H3.83137L5.74077 12.9863ZM18.2592 12.9863L16.3498 13.5815L16.3498 13.5815L18.2592 12.9863ZM18.5644 13.9655L16.655 14.5606L16.9274 15.4345L17.7669 15.7996L18.5644 13.9655ZM18.9036 18.163L17.821 16.4813L16.786 17.1475L16.9145 18.3717L18.9036 18.163ZM16 18.5413H18V16.5413H16V18.5413ZM8 18.5413V16.5413H6V18.5413H8ZM5.09642 18.163L7.0855 18.3717L7.21399 17.1475L6.17897 16.4813L5.09642 18.163ZM7.34497 14.5606L7.65017 13.5815L3.83137 12.3912L3.52617 13.3704L7.34497 14.5606ZM7.65017 13.5815C7.89613 12.7923 8.84174 12 10.2092 12V8C7.39933 8 4.68452 9.65401 3.83137 12.3912L7.65017 13.5815ZM10.2092 12H13.7909V8H10.2092V12ZM13.7909 12C15.1583 12 16.1039 12.7923 16.3498 13.5815L20.1686 12.3912C19.3155 9.65401 16.6007 8 13.7909 8V12ZM16.3498 13.5815L16.655 14.5606L20.4738 13.3704L20.1686 12.3912L16.3498 13.5815ZM17.7669 15.7996C17.9078 15.8609 18 15.9994 18 16.1549H22C22 14.3505 20.9107 12.8049 19.362 12.1314L17.7669 15.7996ZM18 16.1549C18 16.2893 17.933 16.4092 17.821 16.4813L19.9861 19.8446C21.1934 19.0675 22 17.706 22 16.1549H18ZM20.9091 18.2686C20.9091 18.163 20.9036 18.0581 20.8927 17.9542L16.9145 18.3717C16.9109 18.3372 16.9091 18.3027 16.9091 18.2686H20.9091ZM20.9091 18.814V18.2686H16.9091V18.814H20.9091ZM17.9091 21.814C19.5659 21.814 20.9091 20.4709 20.9091 18.814H16.9091C16.9091 18.2617 17.3568 17.814 17.9091 17.814V21.814ZM17 21.814H17.9091V17.814H17V21.814ZM14 18.814C14 20.4709 15.3431 21.814 17 21.814V17.814C17.5523 17.814 18 18.2617 18 18.814H14ZM14 18.5413V18.814H18V18.5413H14ZM16 16.5413H8V20.5413H16V16.5413ZM6 18.5413V18.814H10V18.5413H6ZM6 18.814C6 18.2617 6.44772 17.814 7 17.814V21.814C8.65685 21.814 10 20.4709 10 18.814H6ZM7 17.814H6.09091V21.814H7V17.814ZM6.09091 17.814C6.64319 17.814 7.09091 18.2617 7.09091 18.814H3.09091C3.09091 20.4709 4.43406 21.814 6.09091 21.814V17.814ZM7.09091 18.814V18.2686H3.09091V18.814H7.09091ZM7.09091 18.2686C7.09091 18.3027 7.08912 18.3372 7.0855 18.3717L3.10735 17.9542C3.09644 18.0581 3.09091 18.163 3.09091 18.2686H7.09091ZM6.17897 16.4813C6.06704 16.4092 6 16.2893 6 16.1549H2C2 17.706 2.80663 19.0675 4.01388 19.8446L6.17897 16.4813ZM6 16.1549C6 15.9994 6.09222 15.8609 6.23315 15.7996L4.638 12.1314C3.08928 12.8049 2 14.3505 2 16.1549H6Z" fill="#A0A3BD" mask="url(#path-1-outside-1)"/>
<path d="M3 7L10.3754 3.72202C11.4097 3.26235 12.5903 3.26235 13.6246 3.72202L21 7" stroke="#A0A3BD" stroke-width="2" stroke-linecap="round"/>
<rect x="7" y="11" width="8" height="7" rx="3" fill="#D6D8E7"/>
</svg>
