<svg width="24" height="24" viewBox="0 0 24 24" fill="none" xmlns="http://www.w3.org/2000/svg">
<path fill-rule="evenodd" clip-rule="evenodd" d="M3.83034 13.3167L4.22797 11.9558C4.91034 9.62026 7.18291 8 9.77632 8H14.2237C16.8171 8 19.0897 9.62026 19.772 11.9558L20.1697 13.3167C21.2147 13.8325 21.9335 14.9088 21.9335 16.153C21.9335 17.2272 21.3978 18.1762 20.579 18.7474V20C20.579 20.5523 20.1312 21 19.579 21H17.9668C17.4145 21 16.9668 20.5523 16.9668 20V19.3141H7.03324V20C7.03324 20.5523 6.58552 21 6.03324 21H4.42104C3.86876 21 3.42104 20.5523 3.42104 20V18.7474C2.6022 18.1762 2.06647 17.2272 2.06647 16.153C2.06647 14.9088 2.78531 13.8325 3.83034 13.3167ZM7 16C7 16.5523 6.55229 17 6 17C5.44772 17 5 16.5523 5 16C5 15.4477 5.44772 15 6 15C6.55229 15 7 15.4477 7 16ZM18 17C18.5523 17 19 16.5523 19 16C19 15.4477 18.5523 15 18 15C17.4477 15 17 15.4477 17 16C17 16.5523 17.4477 17 18 17Z" fill="#002EB4"/>
<rect opacity="0.16" x="6" y="11" width="8" height="7" rx="3" fill="#FCFCFC"/>
<path d="M3 7L10.3754 3.72202C11.4097 3.26235 12.5903 3.26235 13.6246 3.72202L21 7" stroke="#002EB4" stroke-width="2" stroke-linecap="round"/>
</svg>
