<svg width="52" height="52" viewBox="0 0 52 52" fill="none" xmlns="http://www.w3.org/2000/svg">
<path d="M19 15.5V29.5" stroke="#EE6D2D" stroke-width="2" stroke-linecap="round" stroke-linejoin="round"/>
<path d="M33 22.5C34.933 22.5 36.5 20.933 36.5 19C36.5 17.067 34.933 15.5 33 15.5C31.067 15.5 29.5 17.067 29.5 19C29.5 20.933 31.067 22.5 33 22.5Z" stroke="#EE6D2D" stroke-width="2" stroke-linecap="round" stroke-linejoin="round"/>
<path d="M19 36.5C20.933 36.5 22.5 34.933 22.5 33C22.5 31.067 20.933 29.5 19 29.5C17.067 29.5 15.5 31.067 15.5 33C15.5 34.933 17.067 36.5 19 36.5Z" stroke="#EE6D2D" stroke-width="2" stroke-linecap="round" stroke-linejoin="round"/>
<path d="M33 22.5C33 25.2848 31.8938 27.9555 29.9246 29.9246C27.9555 31.8938 25.2848 33 22.5 33" stroke="#EE6D2D" stroke-width="2" stroke-linecap="round" stroke-linejoin="round"/>
</svg>
