<svg width="14" height="15" viewBox="0 0 14 15" fill="none" xmlns="http://www.w3.org/2000/svg">
<path fill-rule="evenodd" clip-rule="evenodd" d="M5.54166 7.5C6.9914 7.5 8.16666 6.32475 8.16666 4.875C8.16666 3.42525 6.9914 2.25 5.54166 2.25C4.09191 2.25 2.91666 3.42525 2.91666 4.875C2.91666 6.32475 4.09191 7.5 5.54166 7.5ZM11.6667 11.5833L10.5 11.5833V10.4167C10.5 9.17676 9.85525 8.08744 8.88273 7.46568H10.5C11.7887 7.46568 12.8333 8.51035 12.8333 9.79901V10.4167C12.8333 11.061 12.311 11.5833 11.6667 11.5833ZM8.88066 6.67316C9.16942 6.13808 9.33332 5.52568 9.33332 4.875C9.33332 4.23482 9.17467 3.6317 8.89454 3.10281C9.18269 2.93132 9.51626 2.83333 9.87178 2.83333C10.9622 2.83333 11.8461 3.7551 11.8461 4.89216C11.8461 6.02921 10.9622 6.95098 9.87178 6.95098C9.51053 6.95098 9.17195 6.84981 8.88066 6.67316ZM3.49999 8.08333C2.21133 8.08333 1.16666 9.128 1.16666 10.4167V11.5833C1.16666 12.2277 1.68899 12.75 2.33332 12.75H8.16666C8.81099 12.75 9.33332 12.2277 9.33332 11.5833V10.4167C9.33332 9.128 8.28865 8.08333 6.99999 8.08333H3.49999Z" fill="#A0A3BD"/>
</svg>
