<svg width="9" height="10" viewBox="0 0 9 10" fill="none" xmlns="http://www.w3.org/2000/svg">
<path fill-rule="evenodd" clip-rule="evenodd" d="M4.36405 9.95683C4.41942 9.98576 4.48133 10.0005 4.54325 9.99998C4.60516 9.99949 4.66657 9.98429 4.72245 9.95487L6.50639 9.00123C7.01227 8.73156 7.40842 8.43003 7.71749 8.07897C8.38949 7.3141 8.75645 6.33791 8.7499 5.33132L8.72876 2.01099C8.72675 1.62856 8.47557 1.2873 8.10408 1.16326L4.78537 0.0497821C4.58553 -0.0178796 4.36656 -0.0164087 4.17025 0.0532142L0.864122 1.20641C0.49465 1.33535 0.247999 1.67906 0.250012 2.06198L0.271154 5.37986C0.277698 6.38792 0.657238 7.3597 1.34031 8.11673C1.6524 8.46288 2.05207 8.76 2.5635 9.02526L4.36405 9.95683ZM3.89177 6.05447C3.96627 6.12605 4.06292 6.16135 4.15957 6.16037C4.25621 6.15988 4.35236 6.1236 4.42585 6.05103L6.3754 4.12905C6.52188 3.98441 6.52037 3.75201 6.37238 3.60933C6.22388 3.46665 5.98478 3.46763 5.8383 3.61227L4.15403 5.27243L3.46441 4.60954C3.31592 4.46687 3.07732 4.46834 2.93034 4.61298C2.78386 4.75762 2.78537 4.99002 2.93386 5.1327L3.89177 6.05447Z" fill="#002EB4"/>
</svg>
