<svg width="52" height="52" viewBox="0 0 52 52" fill="none"
  xmlns="http://www.w3.org/2000/svg">
  <path d="M34.2541 36.3982H17.9207C17.3019 36.3982 16.7084 36.1524 16.2708 35.7148C15.8332 35.2772 15.5874 34.6837 15.5874 34.0649V17.7315C15.5874 17.1127 15.8332 16.5192 16.2708 16.0816C16.7084 15.644 17.3019 15.3982 17.9207 15.3982H30.7541L36.5874 21.2315V34.0649C36.5874 34.6837 36.3416 35.2772 35.904 35.7148C35.4664 36.1524 34.8729 36.3982 34.2541 36.3982Z" fill="#0432AE" />
  <path d="M31.9208 36.3982V27.0649H20.2542V36.3982" fill="#0432AE" />
  <path d="M31.9208 36.3982V27.0649H20.2542V36.3982" stroke="#D3E4FF" strokeWidth="2" strokeLinecap="round" strokeLinejoin="round" />
  <path d="M20.2542 15.3982V21.2315H29.5875" fill="#0432AE" />
  <path d="M20.2542 15.3982V21.2315H29.5875" stroke="#D3E4FF" strokeWidth="2" strokeLinecap="round" strokeLinejoin="round" />
</svg>