<svg width="24" height="24" viewBox="0 0 24 24" fill="none" xmlns="http://www.w3.org/2000/svg">
<path d="M3 10.7611C3 9.75385 3.50545 8.81385 4.34569 8.25843L10.3457 4.29227C11.3489 3.62914 12.6511 3.62914 13.6543 4.29227L19.6543 8.25843C20.4946 8.81385 21 9.75385 21 10.7611V18C21 19.6569 19.6569 21 18 21H6C4.34315 21 3 19.6569 3 18V10.7611Z" stroke="#A0A3BD" stroke-width="2"/>
<path d="M6 15.6004C6 14.4115 6.70219 13.3347 7.79021 12.8552L10.7902 11.5331C11.561 11.1935 12.439 11.1935 13.2098 11.5331L16.2098 12.8552C17.2978 13.3347 18 14.4115 18 15.6004V16C18 17.6569 16.6569 19 15 19H9C7.34315 19 6 17.6569 6 16V15.6004Z" fill="#D6D8E7"/>
</svg>
