<svg width="24" height="24" viewBox="0 0 24 24" fill="none" xmlns="http://www.w3.org/2000/svg">
<path d="M2 10.7611C2 9.41811 2.67393 8.16477 3.79425 7.42421L9.79425 3.45806C11.1318 2.57388 12.8682 2.57388 14.2058 3.45806L20.2058 7.42421C21.3261 8.16477 22 9.41811 22 10.7611V18C22 20.2091 20.2091 22 18 22H6C3.79086 22 2 20.2091 2 18V10.7611Z" fill="#002EB4"/>
<path opacity="0.16" d="M4 15.3117C4 14.0973 4.73212 13.0027 5.85449 12.539L10.8545 10.4733C11.5881 10.1702 12.4119 10.1702 13.1455 10.4733L18.1455 12.539C19.2679 13.0027 20 14.0973 20 15.3117V17C20 18.6569 18.6569 20 17 20H7C5.34315 20 4 18.6569 4 17V15.3117Z" fill="#FCFCFC"/>
</svg>
