<svg width="48" height="48" viewBox="0 0 48 48" fill="none" xmlns="http://www.w3.org/2000/svg">
<path d="M0 24C0 10.7452 10.7452 0 24 0C37.2548 0 48 10.7452 48 24C48 37.2548 37.2548 48 24 48C10.7452 48 0 37.2548 0 24Z" fill="#14142B" fill-opacity="0.5"/>
<path d="M33 22.7611V30C33 31.6569 31.6569 33 30 33H18C16.3431 33 15 31.6569 15 30V22.7611C15 21.7539 15.5054 20.8138 16.3457 20.2584L22.3457 16.2923C23.3489 15.6291 24.6511 15.6291 25.6543 16.2923L31.6543 20.2584C32.4946 20.8138 33 21.7539 33 22.7611Z" stroke="#FCFCFC" stroke-width="2"/>
<path d="M18 27.6004C18 26.4115 18.7022 25.3347 19.7902 24.8552L22.7902 23.5331C23.561 23.1935 24.439 23.1935 25.2098 23.5331L28.2098 24.8552C29.2978 25.3347 30 26.4115 30 27.6004V28C30 29.6569 28.6569 31 27 31H21C19.3431 31 18 29.6569 18 28V27.6004Z" fill="#FCFCFC"/>
</svg>
