<svg width="14" height="13" viewBox="0 0 14 13" fill="none" xmlns="http://www.w3.org/2000/svg">
<path fill-rule="evenodd" clip-rule="evenodd" d="M3.00016 0.666626C1.5274 0.666626 0.333496 2.00977 0.333496 3.66663V9.66663C0.333496 11.3235 1.5274 12.6666 3.00016 12.6666H11.0002C12.4729 12.6666 13.6668 11.3235 13.6668 9.66663V3.66663C13.6668 2.00977 12.4729 0.666626 11.0002 0.666626H3.00016ZM6.33352 4.04163C6.33352 4.66295 5.88578 5.1666 5.3335 5.1666C4.78121 5.1666 4.3335 4.66295 4.3335 4.04163C4.3335 3.42031 4.78124 2.91663 5.33352 2.91663C5.88581 2.91663 6.33352 3.42031 6.33352 4.04163ZM8.96249 6.48862L11.433 9.1892C11.7919 9.67833 11.4826 10.4166 10.9188 10.4166H3.08156C2.5178 10.4166 2.20854 9.67833 2.56741 9.1892L4.17019 7.67131C4.41789 7.3337 4.8689 7.30551 5.14832 7.61019L5.62607 8.13112C5.89299 8.42217 6.31994 8.41141 6.57501 8.10721L7.96339 6.45141C8.23858 6.12321 8.7072 6.14067 8.96249 6.48862Z" fill="#FCFCFC"/>
</svg>
