<svg width="16" height="16" viewBox="0 0 16 16" fill="none" xmlns="http://www.w3.org/2000/svg">
<path fill-rule="evenodd" clip-rule="evenodd" d="M1.33366 8.00033C1.33366 4.31843 4.31843 1.33366 8.00033 1.33366C11.6822 1.33366 14.667 4.31843 14.667 8.00033C14.667 11.6822 11.6822 14.667 8.00033 14.667C4.31843 14.667 1.33366 11.6822 1.33366 8.00033ZM7.33366 4.66699C7.33366 4.2988 7.63214 4.00033 8.00033 4.00033C8.36852 4.00033 8.66699 4.2988 8.66699 4.66699C8.66699 5.03518 8.36852 5.33366 8.00033 5.33366C7.63214 5.33366 7.33366 5.03518 7.33366 4.66699ZM8.00033 12.0003C8.36852 12.0003 8.66699 11.7018 8.66699 11.3337V6.66699C8.66699 6.2988 8.36852 6.00033 8.00033 6.00033C7.63214 6.00033 7.33366 6.2988 7.33366 6.66699L7.33366 11.3337C7.33366 11.7018 7.63214 12.0003 8.00033 12.0003Z" fill="#00BA88"/>
</svg>
