<svg width="14" height="14" viewBox="0 0 14 14" fill="none" xmlns="http://www.w3.org/2000/svg">
<path fill-rule="evenodd" clip-rule="evenodd" d="M0.333658 6.99984C0.333658 3.31794 3.31843 0.33317 7.00033 0.33317C10.6822 0.33317 13.667 3.31794 13.667 6.99984C13.667 10.6817 10.6822 13.6665 7.00033 13.6665C3.31843 13.6665 0.333658 10.6817 0.333658 6.99984ZM6.33366 3.6665C6.33366 3.29831 6.63214 2.99984 7.00033 2.99984C7.36852 2.99984 7.66699 3.29831 7.66699 3.6665C7.66699 4.03469 7.36852 4.33317 7.00033 4.33317C6.63214 4.33317 6.33366 4.03469 6.33366 3.6665ZM7.00033 10.9998C7.36852 10.9998 7.66699 10.7014 7.66699 10.3332L7.66699 5.6665C7.66699 5.29831 7.36852 4.99984 7.00033 4.99984C6.63214 4.99984 6.33366 5.29831 6.33366 5.6665L6.33366 10.3332C6.33366 10.7014 6.63214 10.9998 7.00033 10.9998Z" fill="#002EB4"/>
</svg>
