<svg width="17" height="18" viewBox="0 0 17 18" fill="none" xmlns="http://www.w3.org/2000/svg">
<path d="M8.6999 2.20001C10.8999 2.20001 11.1999 2.20001 12.0999 2.20001C12.8999 2.20001 13.2999 2.40001 13.5999 2.50001C13.9999 2.70001 14.2999 2.80001 14.5999 3.10001C14.8999 3.40001 15.0999 3.70001 15.1999 4.10001C15.2999 4.40001 15.3999 4.80001 15.4999 5.60001C15.4999 6.50001 15.4999 6.70001 15.4999 9.00001C15.4999 11.3 15.4999 11.5 15.4999 12.4C15.4999 13.2 15.2999 13.6 15.1999 13.9C14.9999 14.3 14.8999 14.6 14.5999 14.9C14.2999 15.2 13.9999 15.4 13.5999 15.5C13.2999 15.6 12.8999 15.7 12.0999 15.8C11.1999 15.8 10.9999 15.8 8.6999 15.8C6.3999 15.8 6.1999 15.8 5.2999 15.8C4.4999 15.8 4.0999 15.6 3.7999 15.5C3.3999 15.3 3.0999 15.2 2.7999 14.9C2.4999 14.6 2.2999 14.3 2.1999 13.9C2.0999 13.6 1.9999 13.2 1.8999 12.4C1.8999 11.5 1.8999 11.3 1.8999 9.00001C1.8999 6.70001 1.8999 6.50001 1.8999 5.60001C1.8999 4.80001 2.0999 4.40001 2.1999 4.10001C2.3999 3.70001 2.4999 3.40001 2.7999 3.10001C3.0999 2.80001 3.3999 2.60001 3.7999 2.50001C4.0999 2.40001 4.4999 2.30001 5.2999 2.20001C6.1999 2.20001 6.4999 2.20001 8.6999 2.20001ZM8.6999 0.700012C6.3999 0.700012 6.1999 0.700012 5.2999 0.700012C4.3999 0.700012 3.7999 0.900013 3.2999 1.10001C2.7999 1.30001 2.2999 1.60001 1.7999 2.10001C1.2999 2.60001 1.0999 3.00001 0.799903 3.60001C0.599903 4.10001 0.499902 4.70001 0.399902 5.60001C0.399902 6.50001 0.399902 6.80001 0.399902 9.00001C0.399902 11.3 0.399902 11.5 0.399902 12.4C0.399902 13.3 0.599903 13.9 0.799903 14.4C0.999903 14.9 1.2999 15.4 1.7999 15.9C2.2999 16.4 2.6999 16.6 3.2999 16.9C3.7999 17.1 4.3999 17.2 5.2999 17.3C6.1999 17.3 6.4999 17.3 8.6999 17.3C10.8999 17.3 11.1999 17.3 12.0999 17.3C12.9999 17.3 13.5999 17.1 14.0999 16.9C14.5999 16.7 15.0999 16.4 15.5999 15.9C16.0999 15.4 16.2999 15 16.5999 14.4C16.7999 13.9 16.8999 13.3 16.9999 12.4C16.9999 11.5 16.9999 11.2 16.9999 9.00001C16.9999 6.80001 16.9999 6.50001 16.9999 5.60001C16.9999 4.70001 16.7999 4.10001 16.5999 3.60001C16.3999 3.10001 16.0999 2.60001 15.5999 2.10001C15.0999 1.60001 14.6999 1.40001 14.0999 1.10001C13.5999 0.900013 12.9999 0.800012 12.0999 0.700012C11.1999 0.700012 10.9999 0.700012 8.6999 0.700012Z" fill="#A0A3BD"/>
<path d="M8.6999 4.70001C6.2999 4.70001 4.3999 6.60001 4.3999 9.00001C4.3999 11.4 6.2999 13.3 8.6999 13.3C11.0999 13.3 12.9999 11.4 12.9999 9.00001C12.9999 6.60001 11.0999 4.70001 8.6999 4.70001ZM8.6999 11.8C7.1999 11.8 5.8999 10.6 5.8999 9.00001C5.8999 7.50001 7.0999 6.20001 8.6999 6.20001C10.1999 6.20001 11.4999 7.40001 11.4999 9.00001C11.4999 10.5 10.1999 11.8 8.6999 11.8Z" fill="#A0A3BD"/>
<path d="M13.0999 5.60001C13.6522 5.60001 14.0999 5.1523 14.0999 4.60001C14.0999 4.04773 13.6522 3.60001 13.0999 3.60001C12.5476 3.60001 12.0999 4.04773 12.0999 4.60001C12.0999 5.1523 12.5476 5.60001 13.0999 5.60001Z" fill="#A0A3BD"/>
</svg>
