<svg width="17" height="16" viewBox="0 0 17 16" fill="none" xmlns="http://www.w3.org/2000/svg">
<path d="M3.73331 16H0.333298V5.3H3.73331V16ZM2.0333 3.8C0.933302 3.8 0.133301 3 0.133301 1.9C0.133301 0.8 1.0333 0 2.0333 0C3.1333 0 3.9333 0.8 3.9333 1.9C3.9333 3 3.1333 3.8 2.0333 3.8ZM16.1333 16H12.7333V10.2C12.7333 8.5 12.0333 8 11.0333 8C10.0333 8 9.03329 8.8 9.03329 10.3V16H5.6333V5.3H8.8333V6.8C9.1333 6.1 10.3333 5 12.0333 5C13.9333 5 15.9333 6.1 15.9333 9.4V16H16.1333Z" fill="#A0A3BD"/>
</svg>
