<svg width="17" height="16" viewBox="0 0 17 16" fill="none" xmlns="http://www.w3.org/2000/svg">
<g clip-path="url(#clip0_5052_41104)">
<path d="M4.57357 7.2C4.11894 7.2 3.75195 7.55733 3.75195 8C3.75195 8.44267 4.11894 8.8 4.57357 8.8C5.02821 8.8 5.3952 8.44267 5.3952 8C5.3952 7.55733 5.02821 7.2 4.57357 7.2ZM4.57357 4C4.11894 4 3.75195 4.35733 3.75195 4.8C3.75195 5.24267 4.11894 5.6 4.57357 5.6C5.02821 5.6 5.3952 5.24267 5.3952 4.8C5.3952 4.35733 5.02821 4 4.57357 4ZM4.57357 10.4C4.11894 10.4 3.75195 10.7627 3.75195 11.2C3.75195 11.6373 4.12442 12 4.57357 12C5.02273 12 5.3952 11.6373 5.3952 11.2C5.3952 10.7627 5.02821 10.4 4.57357 10.4ZM6.21682 11.2C6.21682 11.4946 6.4556 11.7333 6.75015 11.7333H13.352C13.6465 11.7333 13.8853 11.4946 13.8853 11.2C13.8853 10.9054 13.6465 10.6667 13.352 10.6667H6.75015C6.4556 10.6667 6.21682 10.9054 6.21682 11.2ZM6.21682 8C6.21682 8.29455 6.4556 8.53333 6.75015 8.53333H13.352C13.6465 8.53333 13.8853 8.29455 13.8853 8C13.8853 7.70545 13.6465 7.46667 13.352 7.46667H6.75015C6.4556 7.46667 6.21682 7.70545 6.21682 8ZM6.75015 4.26667C6.4556 4.26667 6.21682 4.50545 6.21682 4.8C6.21682 5.09455 6.4556 5.33333 6.75015 5.33333H13.352C13.6465 5.33333 13.8853 5.09455 13.8853 4.8C13.8853 4.50545 13.6465 4.26667 13.352 4.26667H6.75015Z" fill="#FCFCFC"/>
</g>
<defs>
<clipPath id="clip0_5052_41104">
<rect width="16" height="16" fill="white" transform="translate(0.751953)"/>
</clipPath>
</defs>
</svg>
