<svg width="24" height="24" viewBox="0 0 24 24" fill="none" xmlns="http://www.w3.org/2000/svg">
<path d="M8.00018 5C8.00018 4.17157 8.67175 3.5 9.50018 3.5H20.5002C21.3286 3.5 22.0002 4.17157 22.0002 5C22.0002 5.82843 21.3286 6.5 20.5002 6.5H9.50018C8.67175 6.5 8.00018 5.82843 8.00018 5Z" fill="#14142B"/>
<path d="M5.00018 5C5.00018 5.82843 4.32861 6.5 3.50018 6.5C2.67175 6.5 2.00018 5.82843 2.00018 5C2.00018 4.17157 2.67175 3.5 3.50018 3.5C4.32861 3.5 5.00018 4.17157 5.00018 5Z" fill="#14142B"/>
<path d="M8 12C8 11.1716 8.67157 10.5 9.5 10.5H20.5C21.3284 10.5 22 11.1716 22 12C22 12.8284 21.3284 13.5 20.5 13.5H9.5C8.67157 13.5 8 12.8284 8 12Z" fill="#14142B"/>
<path d="M5 12C5 12.8284 4.32843 13.5 3.5 13.5C2.67157 13.5 2 12.8284 2 12C2 11.1716 2.67157 10.5 3.5 10.5C4.32843 10.5 5 11.1716 5 12Z" fill="#14142B"/>
<path d="M8 19C8 18.1716 8.67157 17.5 9.5 17.5H16.5C17.3284 17.5 18 18.1716 18 19C18 19.8284 17.3284 20.5 16.5 20.5H9.5C8.67157 20.5 8 19.8284 8 19Z" fill="#14142B"/>
<path d="M5 19C5 19.8284 4.32843 20.5 3.5 20.5C2.67157 20.5 2 19.8284 2 19C2 18.1716 2.67157 17.5 3.5 17.5C4.32843 17.5 5 18.1716 5 19Z" fill="#14142B"/>
</svg>
