<svg width="15" height="16" viewBox="0 0 15 16" fill="none" xmlns="http://www.w3.org/2000/svg">
<path fill-rule="evenodd" clip-rule="evenodd" d="M0.771484 6.66839C0.771484 3.02683 3.81456 0.0834961 7.49546 0.0834961C11.1867 0.0834961 14.2298 3.02683 14.2298 6.66839C14.2298 8.50342 13.5624 10.207 12.464 11.651C11.2522 13.2438 9.75861 14.6315 8.07741 15.7208C7.69264 15.9726 7.34538 15.9916 6.92309 15.7208C5.23232 14.6315 3.73872 13.2438 2.5373 11.651C1.43805 10.207 0.771484 8.50342 0.771484 6.66839ZM5.27942 6.87342C5.27942 8.09335 6.27488 9.05282 7.49546 9.05282C8.71684 9.05282 9.72189 8.09335 9.72189 6.87342C9.72189 5.663 8.71684 4.65682 7.49546 4.65682C6.27488 4.65682 5.27942 5.663 5.27942 6.87342Z" fill="url(#paint0_linear_458_1209)"/>
<defs>
<linearGradient id="paint0_linear_458_1209" x1="0.771484" y1="0.0834961" x2="16.6714" y2="12.8841" gradientUnits="userSpaceOnUse">
<stop stop-color="#FCBF97"/>
<stop offset="1" stop-color="#D45300"/>
</linearGradient>
</defs>
</svg>
