<svg width="24" height="24" viewBox="0 0 24 24" fill="none" xmlns="http://www.w3.org/2000/svg">
<path fill-rule="evenodd" clip-rule="evenodd" d="M9 7.86667C9 6.39391 9.80242 5.2 11.0769 5.2H12.9231C14.1976 5.2 15 6.39391 15 7.86667V9H9V7.86667ZM6 9.12602V7.86667C6 4.6266 8.27302 2 11.0769 2H12.9231C15.727 2 18 4.6266 18 7.86667V9.12602C19.7252 9.57006 21 11.1362 21 13V18C21 20.2091 19.2091 22 17 22H7C4.79086 22 3 20.2091 3 18V13C3 11.1362 4.27477 9.57006 6 9.12602ZM12 12C11.4477 12 11 12.4477 11 13V14.2676C10.4022 14.6134 10 15.2597 10 16C10 17.1046 10.8954 18 12 18C13.1046 18 14 17.1046 14 16C14 15.2597 13.5978 14.6134 13 14.2676V13C13 12.4477 12.5523 12 12 12Z" fill="#002EB4"/>
</svg>
