<svg width="44" height="44" viewBox="0 0 44 44" fill="none" xmlns="http://www.w3.org/2000/svg">
<rect opacity="0.32" width="44" height="44" rx="12" fill="#CDEAFF"/>
<path d="M21.9432 10C17.2166 10 13.0965 12.6917 11.125 16.616L13.5768 19.0562C14.234 19.7102 14.5373 20.5907 14.5626 21.4963C14.5626 21.4963 14.5626 21.4963 14.5626 21.5215C14.5626 22.7541 15.0428 23.861 15.9527 24.7414C16.8627 25.647 17.9496 26.0998 19.1881 26.125C19.6431 26.125 20.0728 26.0747 20.5024 25.9489L16.8627 22.3264L17.5451 19.7857L20.098 19.1065L23.7125 22.7038C23.8389 22.2761 23.9147 21.8485 23.8895 21.3957C23.8895 20.163 23.4092 19.0813 22.4993 18.1757C21.5893 17.2701 20.5024 16.7921 19.2639 16.7921C19.1628 16.7921 19.087 16.7921 18.8848 16.767C18.0254 16.6663 17.2418 16.289 16.6352 15.6853L16.0791 15.1318C17.6462 13.8237 19.6936 13.0187 21.9179 13.0187C26.8973 13.0187 30.9668 17.0185 30.9668 21.9491C30.9668 22.2258 30.9415 22.4774 30.9415 22.7541C30.9162 23.1566 31.0426 23.5591 31.3206 23.8358L33.3427 25.8483C33.7724 24.6156 33.9999 23.3075 33.9999 21.9491C34.0252 15.3331 28.6161 10 21.9432 10Z" fill="#002EB4"/>
<path d="M30.4259 24.9549C29.7695 24.2998 29.4412 23.418 29.4412 22.5109C29.4412 22.5109 29.4412 22.5109 29.4412 22.4857C29.4412 21.2512 28.9615 20.1426 28.0526 19.2607C27.1436 18.3537 26.0579 17.9002 24.8208 17.875C24.3663 17.875 23.9371 17.9254 23.5079 18.0514L27.1184 21.6543L26.4367 24.199L23.8866 24.8793L20.2761 21.2764C20.1498 21.7047 20.0993 22.133 20.0993 22.5865C20.0993 23.8211 20.5791 24.9045 21.488 25.8115C22.3969 26.7186 23.4826 27.1973 24.7198 27.1973C24.8208 27.1973 24.8965 27.1973 25.0985 27.2225C25.957 27.3232 26.7397 27.7012 27.3456 28.3059L27.9011 28.8602C26.3357 30.1703 24.2906 30.9766 22.0687 30.9766C17.0948 31.0018 13.0298 26.9957 13.0298 22.0574C13.0298 21.8055 13.0298 21.5787 13.055 21.352C13.0803 20.8984 12.9541 20.4449 12.6258 20.1426L10.6565 18.1773C10.2272 19.3867 10 20.6969 10 22.0574C10 28.6586 15.4031 34 22.0687 34C26.7901 34 30.9056 31.3041 32.875 27.3736L30.4259 24.9549Z" fill="#002EB4"/>
</svg>
