<svg width="44" height="44" viewBox="0 0 44 44" fill="none" xmlns="http://www.w3.org/2000/svg">
<rect width="44" height="44" rx="12" fill="#FFF2F7"/>
<path fill-rule="evenodd" clip-rule="evenodd" d="M22 16C18.6863 16 16 18.6863 16 22C16 25.3137 18.6863 28 22 28C23.1046 28 24 28.8954 24 30C24 31.1046 23.1046 32 22 32C16.4772 32 12 27.5228 12 22C12 16.4772 16.4772 12 22 12C23.1046 12 24 12.8954 24 14C24 15.1046 23.1046 16 22 16Z" fill="#ED2E2E"/>
<path fill-rule="evenodd" clip-rule="evenodd" d="M19 22C19 20.8954 19.8954 20 21 20L28 20C29.1046 20 30 20.8954 30 22C30 23.1046 29.1046 24 28 24L21 24C19.8954 24 19 23.1046 19 22Z" fill="#ED2E2E"/>
<path fill-rule="evenodd" clip-rule="evenodd" d="M25.8001 16.4C26.6838 15.7373 27.9374 15.9163 28.6001 16.8L31.6001 20.8C32.1335 21.5111 32.1335 22.4889 31.6001 23.2L28.6001 27.2C27.9374 28.0837 26.6838 28.2627 25.8001 27.6C24.9165 26.9373 24.7374 25.6837 25.4001 24.8L27.5001 22L25.4001 19.2C24.7374 18.3163 24.9165 17.0627 25.8001 16.4Z" fill="#ED2E2E"/>
</svg>
