<svg width="85" height="24" viewBox="0 0 85 24" fill="none" xmlns="http://www.w3.org/2000/svg">
<path d="M72.5684 6.81055H72.088C71.5823 6.81055 71.1777 7.21561 71.1777 7.72194V15.57C71.1777 16.0764 71.5823 16.4814 72.088 16.4814H72.5684C73.0741 16.4814 73.4787 16.0764 73.4787 15.57V7.72194C73.4534 7.21561 73.0488 6.81055 72.5684 6.81055Z" fill="#FF6400"/>
<path d="M57.1194 3.82227C56.6389 3.82227 56.2344 4.22733 56.2344 4.70834V15.5944C56.2344 16.0754 56.6389 16.4805 57.1194 16.4805H57.6503C58.1055 16.4805 58.4848 16.1007 58.4848 15.6451V12.1007H58.9146L62.3787 16.0754C62.5304 16.2526 62.7832 16.3792 63.0108 16.3792H63.6935C64.0222 16.3792 64.3256 16.202 64.4521 15.8729C64.5785 15.5691 64.5532 15.2147 64.3256 14.9615L60.8868 11.0121L63.8958 8.1767C64.1486 7.94885 64.2245 7.5691 64.0981 7.23999C63.9716 6.91087 63.6682 6.70834 63.3142 6.70834H62.6315C62.404 6.70834 62.2017 6.78429 62.05 6.96151L59.041 9.92353H58.4848V4.65771C58.4848 4.20201 58.1055 3.82227 57.6503 3.82227" fill="#FF6400"/>
<path d="M67.3098 3.82227C66.8294 3.82227 66.4248 4.22733 66.4248 4.70834V15.5944C66.4248 16.0754 66.8294 16.4805 67.3098 16.4805H67.7902C68.2706 16.4805 68.6752 16.0754 68.6752 15.5944V4.70834C68.6752 4.22733 68.2706 3.82227 67.7902 3.82227" fill="#FF6400"/>
<path d="M81.671 11.6461L84.7052 8.00049C84.8822 7.77265 84.9328 7.49417 84.8064 7.241C84.6799 6.98784 84.4271 6.83594 84.149 6.83594H83.087C82.8847 6.83594 82.6824 6.9372 82.5307 7.0891L80.2298 9.87391L77.9288 7.0891C77.8024 6.91189 77.6001 6.83594 77.3725 6.83594H76.3105C76.0324 6.83594 75.7796 6.98784 75.6531 7.241C75.5267 7.49417 75.5773 7.79796 75.7543 8.00049L78.7379 11.6461L75.729 15.2916C75.552 15.5195 75.5014 15.798 75.6278 16.0511C75.7543 16.3043 76.0071 16.4562 76.2853 16.4562H77.3472C77.5495 16.4562 77.7518 16.3549 77.9035 16.203L80.2045 13.4182L82.5054 16.203C82.6318 16.3802 82.8341 16.4562 83.0617 16.4562H84.1237C84.4018 16.4562 84.6547 16.3043 84.7811 16.0511C84.9075 15.798 84.8569 15.4942 84.6799 15.2916L81.671 11.6461Z" fill="#FF6400"/>
<path d="M72.088 3.62102C71.5823 3.62102 71.1777 4.12735 71.1777 4.76026V5.31722C71.1777 5.67165 71.4812 5.97545 71.8352 5.97545H72.796C73.15 5.97545 73.4534 5.67165 73.4534 5.31722V4.73494C73.4534 4.10203 73.0488 3.5957 72.5431 3.5957" fill="#FF6400"/>
<path d="M34.5396 7.34175C33.781 6.88605 32.9213 6.6582 31.9352 6.6582C30.9743 6.6582 30.0894 6.88605 29.3308 7.34175C28.5723 7.79744 27.9907 8.43036 27.5608 9.18985C27.131 9.94934 26.9287 10.8101 26.9287 11.6962C26.9287 12.6076 27.1563 13.443 27.5608 14.2025C27.9907 14.962 28.5975 15.5696 29.3308 16.0506C30.0894 16.5063 30.9491 16.7342 31.9352 16.7342C32.896 16.7342 33.781 16.5063 34.5396 16.0506C35.2981 15.5949 35.8797 14.962 36.3095 14.2025C36.7394 13.443 36.9417 12.6076 36.9417 11.6962C36.9417 10.7848 36.7141 9.94934 36.3095 9.18985C35.8797 8.43036 35.2728 7.79744 34.5396 7.34175ZM34.6407 11.6962C34.6407 12.2025 34.5396 12.6582 34.312 13.0886C34.0844 13.519 33.781 13.8481 33.3764 14.1266C32.9719 14.3797 32.4915 14.5063 31.9605 14.5063C31.4295 14.5063 30.9491 14.3797 30.5445 14.1266C30.1399 13.8734 29.8112 13.519 29.6089 13.0886C29.3814 12.6582 29.2802 12.2025 29.2802 11.6962C29.2802 11.1899 29.3814 10.7088 29.6089 10.2785C29.8365 9.84808 30.1399 9.51896 30.5445 9.24048C30.9491 8.98732 31.4295 8.86074 31.9605 8.86074C32.5167 8.86074 32.9972 8.98732 33.3764 9.24048C33.781 9.49365 34.0844 9.84808 34.312 10.2785C34.5143 10.7088 34.6407 11.1899 34.6407 11.6962Z" fill="#002EB4"/>
<path d="M51.8599 7.34175C51.1013 6.88605 50.2416 6.6582 49.2555 6.6582C48.2947 6.6582 47.4097 6.88605 46.6511 7.34175C45.8926 7.79744 45.311 8.43036 44.8812 9.18985C44.4513 9.94934 44.249 10.8101 44.249 11.6962C44.249 12.6076 44.4766 13.443 44.8812 14.2025C45.311 14.962 45.9178 15.5696 46.6511 16.0506C47.4097 16.5063 48.2694 16.7342 49.2555 16.7342C50.2163 16.7342 51.1013 16.5063 51.8599 16.0506C52.6184 15.5949 53.2 14.962 53.6298 14.2025C54.0597 13.443 54.262 12.6076 54.262 11.6962C54.262 10.7848 54.0344 9.94934 53.6298 9.18985C53.2 8.43036 52.6184 7.79744 51.8599 7.34175ZM51.961 11.6962C51.961 12.2025 51.8599 12.6582 51.6323 13.0886C51.4047 13.519 51.1013 13.8481 50.6968 14.1266C50.2922 14.3797 49.8118 14.5063 49.2808 14.5063C48.7498 14.5063 48.2694 14.3797 47.8648 14.1266C47.4602 13.8734 47.1315 13.519 46.9293 13.0886C46.7017 12.6582 46.6006 12.2025 46.6006 11.6962C46.6006 11.1899 46.7017 10.7088 46.9293 10.2785C47.1568 9.84808 47.4602 9.51896 47.8648 9.24048C48.2694 8.98732 48.7498 8.86074 49.2808 8.86074C49.8371 8.86074 50.3175 8.98732 50.6968 9.24048C51.1013 9.49365 51.4047 9.84808 51.6323 10.2785C51.8346 10.7088 51.961 11.1899 51.961 11.6962Z" fill="#002EB4"/>
<path d="M39.5717 3.82227C39.1166 3.82227 38.7373 4.20201 38.7373 4.65771V14.9109C38.7373 15.8982 39.5464 16.7083 40.5326 16.7083H42.1002C42.5554 16.7083 42.9346 16.3286 42.9346 15.8729V15.3666C42.9346 14.9109 42.5554 14.5311 42.1002 14.5311H41.013V9.03746H42.1002C42.5554 9.03746 42.9346 8.65771 42.9346 8.20201V7.721C42.9346 7.2653 42.5554 6.88556 42.1002 6.88556H41.013V4.73366C41.013 4.27796 40.6337 3.89821 40.1786 3.89821" fill="#002EB4"/>
<path d="M12.0867 0C7.35838 0 3.23689 2.70886 1.26465 6.65823L3.71731 9.11392C4.37473 9.77215 4.67815 10.6582 4.70344 11.5696C4.70344 11.5696 4.70344 11.5696 4.70344 11.5949C4.70344 12.8354 5.18386 13.9494 6.09412 14.8354C7.00439 15.7468 8.09166 16.2025 9.33063 16.2278C9.78576 16.2278 10.2156 16.1772 10.6455 16.0506L7.00439 12.4051L7.68709 9.8481L10.2409 9.16456L13.8567 12.7848C13.9831 12.3544 14.059 11.9241 14.0337 11.4684C14.0337 10.2278 13.5533 9.13924 12.643 8.22785C11.7327 7.31646 10.6455 6.83544 9.40649 6.83544C9.30534 6.83544 9.22949 6.83544 9.02721 6.81013C8.16751 6.70886 7.38367 6.32911 6.77682 5.72152L6.22055 5.16456C7.78823 3.8481 9.83633 3.03798 12.0614 3.03798C17.0426 3.03798 21.1135 7.06329 21.1135 12.0253C21.1135 12.3038 21.0883 12.557 21.0883 12.8354C21.063 13.2405 21.1894 13.6456 21.4675 13.9241L23.4903 15.9494C23.9202 14.7089 24.1478 13.3924 24.1478 12.0253C24.173 5.36709 18.762 0 12.0867 0Z" fill="#FF6400"/>
<path d="M20.4557 14.9108C19.7983 14.2526 19.4696 13.3665 19.4696 12.4551C19.4696 12.4551 19.4696 12.4551 19.4696 12.4298C19.4696 11.1893 18.9892 10.0754 18.0789 9.18928C17.1687 8.27789 16.0814 7.82219 14.8424 7.79688C14.3873 7.79688 13.9574 7.84751 13.5276 7.97409L17.1434 11.5943L16.4607 14.1513L13.9069 14.8349L10.2911 11.2146C10.1647 11.645 10.1141 12.0754 10.1141 12.5311C10.1141 13.7716 10.5945 14.8602 11.5048 15.7716C12.415 16.683 13.5023 17.164 14.7413 17.164C14.8424 17.164 14.9183 17.164 15.1206 17.1893C15.9802 17.2905 16.7641 17.6703 17.3709 18.2779L17.9272 18.8349C16.3595 20.1513 14.3114 20.9614 12.0863 20.9614C7.10514 20.9868 3.03422 16.9614 3.03422 11.9994C3.03422 11.7462 3.03422 11.5184 3.05951 11.2905C3.08479 10.8348 2.95837 10.3792 2.62966 10.0754L0.657415 8.10067C0.227567 9.31586 0 10.6323 0 11.9994C0 18.6323 5.41103 23.9994 12.0863 23.9994C16.8147 23.9994 20.9361 21.2905 22.9084 17.3412L20.4557 14.9108Z" fill="#002EB4"/>
</svg>
