<svg width="16" height="16" viewBox="0 0 16 16" fill="none" xmlns="http://www.w3.org/2000/svg">
<path fill-rule="evenodd" clip-rule="evenodd" d="M2.52125 7.61393C3.43433 10.2981 7.04172 12.4684 8.00039 13.0056C8.96232 12.4629 12.5958 10.2685 13.4795 7.61639C14.0598 5.90203 13.5212 3.73046 11.3811 3.07881C10.3443 2.76436 9.13491 2.95574 8.29998 3.56616C8.12544 3.69292 7.88317 3.69539 7.70732 3.56985C6.82289 2.94158 5.66754 2.75759 4.61443 3.07881C2.47761 3.72984 1.94096 5.90141 2.52125 7.61393M8.00094 14C7.92018 14 7.84008 13.9815 7.76714 13.944C7.56329 13.8388 2.76146 11.338 1.59113 7.89573C1.59048 7.89573 1.59048 7.89512 1.59048 7.89512C0.855842 5.72786 1.67384 3.00432 4.31474 2.20006C5.55477 1.82101 6.90615 1.98777 7.99899 2.63942C9.05796 2.00684 10.4647 1.83208 11.68 2.20006C14.3235 3.00555 15.1441 5.72847 14.4101 7.89512C13.2775 11.298 8.44055 13.8363 8.2354 13.9428C8.16246 13.9809 8.0817 14 8.00094 14" fill="#D6D8E7"/>
</svg>
