<svg width="16" height="16" viewBox="0 0 16 16" fill="none" xmlns="http://www.w3.org/2000/svg">
<path fill-rule="evenodd" clip-rule="evenodd" d="M10.5665 2.0001C10.9872 2.0001 11.4072 2.05631 11.8065 2.18326C14.2671 2.94115 15.1538 5.49902 14.4131 7.73479C13.9931 8.87731 13.3065 9.92003 12.4071 10.772C11.1198 11.9531 9.70718 13.0015 8.18652 13.9046L8.01986 14L7.84653 13.8983C6.32054 13.0015 4.89989 11.9531 3.60057 10.7657C2.70725 9.91372 2.01992 8.87731 1.59326 7.73479C0.839935 5.49902 1.72659 2.94115 4.2139 2.16999C4.40723 2.10684 4.60656 2.06263 4.80656 2.038H4.88656C5.07389 2.0121 5.25989 2.0001 5.44655 2.0001H5.51989C5.93988 2.0121 6.34654 2.08157 6.74054 2.20852H6.77987C6.80654 2.22052 6.82654 2.23378 6.83987 2.24578C6.9872 2.29062 7.12654 2.34115 7.25987 2.41062L7.5132 2.51799C7.57441 2.54892 7.64312 2.59618 7.7025 2.63702C7.74013 2.6629 7.774 2.68621 7.79986 2.70115C7.81074 2.70723 7.8218 2.71334 7.83294 2.71951C7.89011 2.75112 7.94965 2.78405 7.99986 2.82051C8.74052 2.28431 9.63984 1.99379 10.5665 2.0001Z" fill="#ED2E2E"/>
</svg>
