<svg width="52" height="52" viewBox="0 0 52 52" fill="none"
  xmlns="http://www.w3.org/2000/svg">
  <path d="M29.1501 19.35C28.9363 19.5681 28.8166 19.8613 28.8166 20.1667C28.8166 20.4721 28.9363 20.7653 29.1501 20.9834L31.0167 22.85C31.2348 23.0638 31.528 23.1835 31.8334 23.1835C32.1388 23.1835 32.432 23.0638 32.6501 22.85L37.0484 18.4517C37.635 19.7481 37.8127 21.1925 37.5576 22.5924C37.3025 23.9922 36.6269 25.2812 35.6207 26.2873C34.6146 27.2935 33.3256 27.9692 31.9257 28.2242C30.5258 28.4793 29.0815 28.3017 27.7851 27.715L19.7234 35.7767C19.2593 36.2408 18.6298 36.5016 17.9734 36.5016C17.317 36.5016 16.6875 36.2408 16.2234 35.7767C15.7593 35.3126 15.4985 34.6831 15.4985 34.0267C15.4985 33.3703 15.7593 32.7408 16.2234 32.2767L24.2851 24.215C23.6984 22.9186 23.5208 21.4742 23.7759 20.0743C24.0309 18.6745 24.7066 17.3855 25.7128 16.3794C26.7189 15.3732 28.0078 14.6975 29.4077 14.4425C30.8076 14.1874 32.252 14.365 33.5484 14.9517L29.1617 19.3384L29.1501 19.35Z" fill="#0432AE" />
</svg>