<svg width="32" height="32" viewBox="0 0 32 32" fill="none" xmlns="http://www.w3.org/2000/svg">
<path fill-rule="evenodd" clip-rule="evenodd" d="M3.26907 11.1512C2.19981 11.4282 1.5721 12.5158 1.86704 13.5802L4.47168 22.9806C4.76662 24.0451 5.87252 24.6834 6.94177 24.4063L25.9142 19.4901C26.9835 19.2131 27.6112 18.1255 27.3162 17.0611L24.7116 7.66071C24.4166 6.59624 23.3107 5.95793 22.2415 6.235L3.26907 11.1512ZM15.8161 19.7389C17.7086 19.2485 18.6947 16.8728 18.0186 14.4326C17.3424 11.9924 15.2601 10.4117 13.3676 10.9021C11.4751 11.3925 10.4891 13.7682 11.1652 16.2084C11.8413 18.6486 13.9236 20.2293 15.8161 19.7389Z" fill="#FF6400"/>
<path fill-rule="evenodd" clip-rule="evenodd" d="M26.9688 7.75616C27.3601 7.65964 27.7581 7.88857 27.8577 8.26749L30.3742 17.8361C30.867 19.7098 29.7161 21.62 27.7892 22.1265L13.1416 25.9767C12.7519 26.0792 12.3503 25.8563 12.2446 25.4789C12.1388 25.1015 12.369 24.7126 12.7587 24.6101L27.4063 20.7599C28.5624 20.456 29.2529 19.3099 28.9573 18.1856L26.4408 8.61705C26.3412 8.23812 26.5776 7.85269 26.9688 7.75616Z" fill="#FF6400"/>
</svg>
