<svg width="16" height="17" viewBox="0 0 16 17" fill="none" xmlns="http://www.w3.org/2000/svg">
<path fill-rule="evenodd" clip-rule="evenodd" d="M14.4684 8.01425C14.7328 8.28423 14.7328 8.7161 14.4684 8.98607L13.1355 10.3469C13.0101 10.4749 12.939 10.6465 12.9372 10.8256L12.9174 12.7304C12.9135 13.1083 12.6081 13.4136 12.2302 13.4176L10.3255 13.4373C10.1463 13.4392 9.97479 13.5102 9.84678 13.6356L8.48593 14.9685C8.21595 15.2329 7.78408 15.2329 7.51411 14.9685L6.15326 13.6356C6.02525 13.5102 5.85373 13.4392 5.67456 13.4373C5.67456 13.4373 5.50469 13.3676 4.87486 13.3611C6.60462 11.6313 7.75532 10.4997 8.90602 9.3681C10.0567 8.2365 11.2074 7.10491 12.9372 5.37514C12.9437 6.00498 12.9372 6.1747 12.9372 6.1747C12.939 6.35388 13.0101 6.5254 13.1355 6.65341L14.4684 8.01425ZM3.06317 10.8529L1.85741 12.0587C1.50251 12.4136 1.46299 12.9495 1.76914 13.2556C2.07529 13.5617 2.61117 13.5222 2.96606 13.1673L3.54433 12.5891L12.1012 4.03223L12.6378 3.49563C12.9927 3.14074 13.0322 2.60486 12.726 2.29871C12.4199 1.99256 11.884 2.03208 11.5291 2.38697L10.3528 3.56331C10.335 3.56311 10.3255 3.56299 10.3255 3.56299C10.1463 3.56113 9.97479 3.49009 9.84678 3.36471L8.48593 2.03182C8.21595 1.76739 7.78409 1.76739 7.51411 2.03182L6.15326 3.36471C6.02525 3.49009 5.85373 3.56113 5.67456 3.56299L3.7698 3.58276C3.39192 3.58668 3.08654 3.89206 3.08262 4.26994L3.06285 6.1747C3.06099 6.35388 2.98995 6.5254 2.86456 6.65341L1.53168 8.01425C1.26725 8.28423 1.26724 8.7161 1.53168 8.98607L2.86456 10.3469C2.98995 10.4749 3.06099 10.6464 3.06285 10.8256C3.06285 10.8256 3.06296 10.8351 3.06317 10.8529Z" fill="#A0A3BD"/>
</svg>
