<svg width="48" height="48" viewBox="0 0 48 48" fill="none" xmlns="http://www.w3.org/2000/svg">
<g filter="url(#filter0_d_48_3270)">
<path fill-rule="evenodd" clip-rule="evenodd" d="M14 6C14 4.89543 14.8954 4 16 4H22C23.1046 4 24 4.89543 24 6V10H30C34.4183 10 38 13.5817 38 18V40C38 42.2091 36.2091 44 34 44H14C11.7909 44 10 42.2091 10 40V14C10 11.7909 11.7909 10 14 10V6ZM24 32C26.2091 32 28 30.2091 28 28C28 25.7909 25 22 24 22C23 22 20 25.7909 20 28C20 30.2091 21.7909 32 24 32Z" fill="#FF6400"/>
</g>
<defs>
<filter id="filter0_d_48_3270" x="-4" y="-4" width="56" height="56" filterUnits="userSpaceOnUse" color-interpolation-filters="sRGB">
<feFlood flood-opacity="0" result="BackgroundImageFix"/>
<feColorMatrix in="SourceAlpha" type="matrix" values="0 0 0 0 0 0 0 0 0 0 0 0 0 0 0 0 0 0 127 0" result="hardAlpha"/>
<feOffset/>
<feGaussianBlur stdDeviation="2"/>
<feColorMatrix type="matrix" values="0 0 0 0 0 0 0 0 0 0 0 0 0 0 0 0 0 0 0.08 0"/>
<feBlend mode="normal" in2="BackgroundImageFix" result="effect1_dropShadow_48_3270"/>
<feBlend mode="normal" in="SourceGraphic" in2="effect1_dropShadow_48_3270" result="shape"/>
</filter>
</defs>
</svg>
