<svg width="20" height="20" viewBox="0 0 20 20" fill="none" xmlns="http://www.w3.org/2000/svg">
<path fill-rule="evenodd" clip-rule="evenodd" d="M16.2409 11.028C16.8086 10.4602 16.8086 9.53977 16.2409 8.97204L11.0279 3.75913C10.4602 3.1914 9.53975 3.1914 8.97202 3.75913L3.75911 8.97204C3.19138 9.53977 3.19138 10.4602 3.75911 11.028L8.97202 16.2409C9.53975 16.8086 10.4602 16.8086 11.0279 16.2409L16.2409 11.028ZM12.8081 8.87354L10.6494 6.47591C10.517 6.32877 10.3022 6.32877 10.1697 6.47591C10.0372 6.62304 10.0372 6.86158 10.1697 7.00871L11.7494 8.76319H9.5154C8.57869 8.76319 7.81935 9.60658 7.81935 10.6469V12.5307C7.81935 12.7388 7.97122 12.9075 8.15856 12.9075C8.3459 12.9075 8.49777 12.7388 8.49777 12.5307V10.6469C8.49777 10.0227 8.95337 9.51669 9.5154 9.51669H11.7494L10.1697 11.2712C10.0372 11.4183 10.0372 11.6568 10.1697 11.804C10.3022 11.9511 10.517 11.9511 10.6494 11.804L12.8081 9.40634C12.9406 9.25921 12.9406 9.02067 12.8081 8.87354Z" fill="#002EB4"/>
<rect x="0.5" y="0.5" width="19" height="19" rx="9.5" stroke="#002EB4"/>
</svg>