<svg width="14" height="14" viewBox="0 0 14 14" fill="none" xmlns="http://www.w3.org/2000/svg">
<path fill-rule="evenodd" clip-rule="evenodd" d="M13.5823 0.972102C13.5354 0.862438 13.4691 0.759107 13.3834 0.667377C13.3676 0.650527 13.3513 0.634194 13.3345 0.618407C13.1462 0.441571 12.8928 0.333252 12.6141 0.333252C12.6141 0.333252 12.614 0.333252 12.614 0.333252H9.24566C8.66431 0.333252 8.19303 0.804531 8.19303 1.38588C8.19303 1.96724 8.66431 2.43852 9.24566 2.43852H10.0728L6.25572 6.2556C5.84464 6.66667 5.84464 7.33316 6.25572 7.74424C6.6668 8.15532 7.33328 8.15532 7.74436 7.74424L11.5615 3.92715V4.7543C11.5615 5.33566 12.0327 5.80694 12.6141 5.80694C13.1954 5.80694 13.6667 5.33566 13.6667 4.7543V1.38588C13.6667 1.23899 13.6366 1.09912 13.5823 0.972102ZM4.19302 2.43852C3.2241 2.43852 2.43864 3.22398 2.43864 4.1929V9.80694C2.43864 10.7759 3.2241 11.5613 4.19302 11.5613H9.80706C10.776 11.5613 11.5614 10.7759 11.5614 9.80694V8.68413C11.5614 8.10278 12.0327 7.6315 12.6141 7.6315C13.1954 7.6315 13.6667 8.10278 13.6667 8.68413V9.80694C13.6667 11.9386 11.9387 13.6666 9.80706 13.6666H4.19302C2.0614 13.6666 0.333374 11.9386 0.333374 9.80694V4.1929C0.333374 2.06128 2.0614 0.333252 4.19302 0.333252H5.31583C5.89718 0.333252 6.36846 0.804531 6.36846 1.38588C6.36846 1.96724 5.89718 2.43852 5.31583 2.43852H4.19302Z" fill="#A0A3BD"/>
</svg>
