<svg width="12" height="13" viewBox="0 0 12 13" fill="none" xmlns="http://www.w3.org/2000/svg">
<path fill-rule="evenodd" clip-rule="evenodd" d="M3.54387 2.50876C2.69606 2.50876 2.00878 3.19604 2.00878 4.04385V8.95613C2.00878 9.80394 2.69606 10.4912 3.54386 10.4912H8.45615C9.30395 10.4912 9.99123 9.80394 9.99123 8.95613V7.97367C9.99123 7.46499 10.4036 7.05262 10.9123 7.05262C11.421 7.05262 11.8333 7.46499 11.8333 7.97367V8.95613C11.8333 10.8213 10.3213 12.3333 8.45615 12.3333H3.54386C1.67869 12.3333 0.166672 10.8213 0.166672 8.95613V4.04385C0.166672 2.17868 1.67869 0.666656 3.54387 0.666656H4.52632C5.035 0.666656 5.44737 1.07903 5.44737 1.58771C5.44737 2.09639 5.035 2.50876 4.52632 2.50876H3.54387ZM7.04387 1.58771C7.04387 1.07903 7.45624 0.666656 7.96492 0.666656H10.9123H10.9123C11.156 0.666656 11.3776 0.761319 11.5424 0.915882C11.5572 0.929784 11.5715 0.94417 11.5854 0.959017C11.6602 1.03904 11.7181 1.12916 11.7591 1.2248C11.8069 1.33617 11.8333 1.45885 11.8333 1.58771V4.53508C11.8333 5.04376 11.421 5.45613 10.9123 5.45613C10.4036 5.45613 9.99124 5.04376 9.99124 4.53508V3.81132L6.65129 7.15127C6.29159 7.51097 5.70842 7.51097 5.34872 7.15127C4.98903 6.79158 4.98903 6.2084 5.34872 5.84871L8.68867 2.50876H7.96492C7.45624 2.50876 7.04387 2.09639 7.04387 1.58771Z" fill="#FF6400"/>
</svg>
