<svg width="24" height="24" viewBox="0 0 24 24" fill="none" xmlns="http://www.w3.org/2000/svg">
<path fill-rule="evenodd" clip-rule="evenodd" d="M6 3C4.34315 3 3 4.34315 3 6V18C3 19.6569 4.34315 21 6 21H15C16.6569 21 18 19.6569 18 18V6C18 4.34315 16.6569 3 15 3H6ZM5.5 7C5.22386 7 5 7.22386 5 7.5C5 7.77614 5.22386 8 5.5 8H12.5C12.7761 8 13 7.77614 13 7.5C13 7.22386 12.7761 7 12.5 7H5.5ZM5 10.5C5 10.2239 5.22386 10 5.5 10H12.5C12.7761 10 13 10.2239 13 10.5C13 10.7761 12.7761 11 12.5 11H5.5C5.22386 11 5 10.7761 5 10.5ZM5.5 13C5.22386 13 5 13.2239 5 13.5C5 13.7761 5.22386 14 5.5 14H10.5C10.7761 14 11 13.7761 11 13.5C11 13.2239 10.7761 13 10.5 13H5.5Z" fill="#002EB4"/>
<rect opacity="0.16" x="4" y="5" width="11" height="11" rx="2" fill="#FCFCFC"/>
<path d="M19 5C20.1046 5 21 5.89543 21 7V17C21 18.1046 20.1046 19 19 19V5Z" fill="#002EB4"/>
</svg>
