<svg width="60" height="60" viewBox="0 0 60 60" fill="none" xmlns="http://www.w3.org/2000/svg">
<path d="M30 60C46.5685 60 60 46.5685 60 30C60 13.4315 46.5685 0 30 0C13.4315 0 0 13.4315 0 30C0 46.5685 13.4315 60 30 60Z" fill="white"/>
<mask id="mask0_3844_15282" style="mask-type:luminance" maskUnits="userSpaceOnUse" x="0" y="0" width="60" height="60">
<path d="M30 60C46.5685 60 60 46.5685 60 30C60 13.4315 46.5685 0 30 0C13.4315 0 0 13.4315 0 30C0 46.5685 13.4315 60 30 60Z" fill="white"/>
</mask>
<g mask="url(#mask0_3844_15282)">
<path d="M17.1387 36.1602L8.63296 52.3441C8.63296 52.3441 6.51802 57.3326 7.98928 59.5854C9.32261 61.6544 12.633 61.0797 15.0008 59.1027C18.1042 56.505 17.1387 36.1602 17.1387 36.1602Z" fill="#002EB4"/>
<g opacity="0.5">
<path d="M16.792 53.2176C15.3438 51.7234 13.2978 50.8038 11.0679 50.8038C10.4702 50.8038 9.89547 50.8728 9.34375 50.9877L17.1369 36.1602C17.1369 36.1602 17.6196 46.3441 16.792 53.2176Z" fill="#00184F"/>
</g>
<path d="M40.6587 17.9301C40.6587 17.9301 37.6013 35.8381 30.5208 22.6427C23.4404 9.44733 40.6587 17.9301 40.6587 17.9301Z" fill="#00184F"/>
<path d="M37.6926 11.767L38.2214 20.1578C35.4168 32.9164 43.9455 35.8589 45.1179 35.8589C44.3363 35.1463 44.0374 33.8359 44.0374 33.8359C47.2788 36.5716 49.3938 34.5716 49.3938 34.5716C42.842 32.5716 51.2788 19.4221 48.1984 11.9739C45.1179 4.5256 40.1064 8.38766 40.1064 8.38766L37.5547 9.42215L37.6926 11.767Z" fill="#00184F"/>
<path d="M37.5312 9.42511L37.6692 11.7699C41.3473 11.2642 40.083 8.39062 40.083 8.39062L37.5312 9.42511Z" fill="#FF6400"/>
<path d="M43.9137 48.691L42.8562 64.783L43.4769 73.8865L42.8332 76.6221C42.8332 76.6221 18.8562 77.7715 16.6953 74.5761L16.9022 58.5071L16.9942 48.9669L17.1321 36.0933L26.8792 31.4727L38.0057 33.1278L43.4539 35.3577L44.7413 35.9554L43.9137 48.691Z" fill="#FF6400"/>
<path d="M42.8562 64.7802L43.4769 73.8836L42.8332 76.6193C42.8332 76.6193 18.8562 77.7687 16.6953 74.5733L16.9022 58.5043L16.9942 48.9641C25.408 46.4584 34.4195 46.5733 43.9137 48.6652L43.224 58.9411L42.8792 64.1365L42.8562 64.7802Z" fill="#002EB4"/>
<path d="M35.3491 22.9648V32.4361L28.7055 35.9304L27.625 33.0568V22.9648H35.3491Z" fill="#FFB6A2"/>
<path d="M35.3491 22.9648V28.0683C33.3951 29.8844 30.4296 32.1373 27.625 32.574V22.9648H35.3491Z" fill="#FF9598"/>
<path d="M35.3717 29.8164L38.0383 33.1497L33.5556 36.3681L31.6016 33.9084L35.3487 31.9773L35.3717 29.8164Z" fill="#002EB4"/>
<path d="M31.6075 33.9062L28.7109 35.6534L29.0098 36.0902L32.1132 34.2971L31.6075 33.9062Z" fill="#002EB4"/>
<path d="M29.1122 35.6328H28.0547V39.219H29.1122V35.6328Z" fill="#002EB4"/>
<path d="M28.062 35.7303L27.2344 33.5234L27.993 33.7763L28.7056 35.6614L28.062 35.7303Z" fill="#002EB4"/>
<path d="M28.3198 34.5546L25.9749 35.1752L25.4922 32.3477L27.6071 30.3477L27.6301 32.2557L28.3198 34.5546Z" fill="#002EB4"/>
<path d="M20.378 8.55078C20.378 8.55078 17.0906 12.045 21.5504 16.6887C26.0102 21.3324 23.6654 10.6197 23.6654 10.6197L20.378 8.55078Z" fill="#00184F"/>
<path d="M20.5972 14.0856C20.6432 15.4189 20.8041 18.5453 21.5627 20.2695C21.7006 20.5683 21.7696 20.8902 21.7696 21.235V24.0166C21.7696 24.3154 21.8156 24.6143 21.9305 24.8902C22.4133 26.1545 23.9995 29.6488 26.4593 29.7867C29.4708 29.9476 34.7351 25.9476 35.2179 24.6143C35.5627 23.6488 36.0225 19.6948 36.2524 17.6258C36.3443 16.8212 35.9995 16.0166 35.3788 15.4879L26.5052 8.26946C25.9995 7.85567 25.3328 7.67176 24.6892 7.74073C23.8846 7.83268 23.1949 8.33843 22.8271 9.05107L20.8731 12.9131C20.6662 13.281 20.5742 13.6718 20.5972 14.0856Z" fill="#FFB6A2"/>
<path d="M24.1562 22.6644C24.1562 22.6644 25.6735 23.0552 26.593 22.4805L25.3746 23.7908C25.3976 23.7908 24.4551 23.5609 24.1562 22.6644Z" fill="#FF9598"/>
<path d="M27.8438 15.626C27.8438 15.626 31.8208 16.4766 32.3265 17.0283C32.3265 17.0283 32.5794 17.0054 32.4185 16.8214C31.5449 15.8559 28.4185 12.9364 27.8438 15.626Z" fill="#00184F"/>
<path d="M20.4118 16.4557L23.1704 15.9729C23.1704 15.9729 23.1245 15.3982 22.3199 15.0764C21.4923 14.7316 20.2969 16.3178 20.2969 16.3178L20.4118 16.4557Z" fill="#00184F"/>
<path d="M22.7182 22.1981C21.155 22.1981 19.8906 20.9338 19.8906 19.3706C19.8906 17.8073 21.155 16.543 22.7182 16.543C24.2814 16.543 25.5458 17.8073 25.5458 19.3706C25.5458 20.9338 24.2814 22.1981 22.7182 22.1981ZM22.7182 17.0487C21.4309 17.0487 20.3964 18.0832 20.3964 19.3706C20.3964 20.6579 21.4309 21.6924 22.7182 21.6924C24.0056 21.6924 25.0401 20.6579 25.0401 19.3706C25.0401 18.0832 24.0056 17.0487 22.7182 17.0487Z" fill="#00184F"/>
<path d="M29.6088 22.1981C28.0456 22.1981 26.7812 20.9338 26.7812 19.3706C26.7812 17.8073 28.0456 16.543 29.6088 16.543C31.1721 16.543 32.4364 17.8073 32.4364 19.3706C32.4364 20.9338 31.1491 22.1981 29.6088 22.1981ZM29.6088 17.0487C28.3215 17.0487 27.287 18.0832 27.287 19.3706C27.287 20.6579 28.3215 21.6924 29.6088 21.6924C30.8962 21.6924 31.9307 20.6579 31.9307 19.3706C31.9307 18.0832 30.8732 17.0487 29.6088 17.0487Z" fill="#00184F"/>
<path d="M27.0362 19.1172H25.2891V19.6229H27.0362V19.1172Z" fill="#00184F"/>
<path d="M36.1725 17.3614L32.0469 18.6484L32.1975 19.1312L36.3231 17.8442L36.1725 17.3614Z" fill="#00184F"/>
<path d="M29.1655 24.5938C27.7862 25.7662 25.5333 25.996 24.0391 24.9386C25.7632 25.3983 27.5103 25.1685 29.1655 24.5938Z" fill="#FF9598"/>
<path d="M27.431 26.2031C27.431 26.2031 26.1667 26.479 25.5 26.2031C25.523 26.2031 26.1897 27.4445 27.431 26.2031Z" fill="#FF9598"/>
<path d="M31.1946 19.7686C30.7578 19.6766 30.367 19.5387 29.9302 19.5157C29.4934 19.4927 29.1946 19.6306 28.7578 19.7686C29.0567 18.5272 30.7348 18.7801 31.1946 19.7686Z" fill="#00184F"/>
<path d="M24.1868 19.7686C23.75 19.6766 23.3592 19.5387 22.9224 19.5157C22.4856 19.4927 22.1868 19.6306 21.75 19.7686C22.0489 18.5272 23.727 18.7801 24.1868 19.7686Z" fill="#00184F"/>
<path d="M20.543 9.19172C21.9682 12.1342 25.9223 16.617 36.9567 18.0423C36.9567 18.0423 40.7039 18.1113 40.405 12.8239C40.1292 7.85839 32.5659 -0.463452 21.9682 5.16873C20.428 5.97333 19.8073 7.69747 20.543 9.19172Z" fill="#00184F"/>
<path d="M35.4754 19.4719C35.4754 19.4719 36.211 17.288 36.9926 17.4719C37.7742 17.6558 38.8547 18.6214 38.4639 20.6903C38.0961 22.7593 35.6593 24.4604 35.0156 23.7478" fill="#FFB6A2"/>
<path d="M35.9676 20.179C35.9676 20.179 37.0021 21.4434 35.5078 22.6618C35.5078 22.6618 38.2664 20.8227 37.8297 19.7652C37.4159 18.7077 35.9676 20.179 35.9676 20.179Z" fill="#FF9598"/>
<path d="M35.9727 23.7462C37.4074 23.7462 38.5704 22.5832 38.5704 21.1485C38.5704 19.7138 37.4074 18.5508 35.9727 18.5508C34.538 18.5508 33.375 19.7138 33.375 21.1485C33.375 22.5832 34.538 23.7462 35.9727 23.7462Z" fill="#002EB4"/>
<g opacity="0.5">
<path d="M35.9665 23.2611C37.1346 23.2611 38.0814 22.3142 38.0814 21.1462C38.0814 19.9781 37.1346 19.0312 35.9665 19.0312C34.7985 19.0312 33.8516 19.9781 33.8516 21.1462C33.8516 22.3142 34.7985 23.2611 35.9665 23.2611Z" fill="#00184F"/>
</g>
<path d="M35.9681 22.78C36.8695 22.78 37.6003 22.0492 37.6003 21.1478C37.6003 20.2464 36.8695 19.5156 35.9681 19.5156C35.0667 19.5156 34.3359 20.2464 34.3359 21.1478C34.3359 22.0492 35.0667 22.78 35.9681 22.78Z" fill="#002EB4"/>
<path d="M28.5138 25.9473L28.4219 25.4646C31.3184 24.8899 33.1345 23.7174 34.169 22.8439C35.2724 21.8784 35.7322 21.0508 35.7322 21.0508L36.169 21.2807C36.1 21.3956 34.2839 24.8209 28.5138 25.9473Z" fill="#002EB4"/>
<path d="M27.1375 25.3784L28.8616 25.1255C28.9536 25.1025 29.0455 25.1715 29.0685 25.2864L29.1835 26.0221C29.2064 26.114 29.1375 26.206 29.0225 26.2289L27.2984 26.4818C27.2064 26.5048 27.1145 26.4358 27.0915 26.3209L26.9766 25.5853C26.9766 25.4933 27.0455 25.4014 27.1375 25.3784Z" fill="#002EB4"/>
<path d="M20.4714 49.1822C20.4714 49.1822 21.0921 46.4006 21.299 45.7109C21.5289 45.0212 21.7128 44.0557 21.8507 43.3661C21.9656 42.6764 22.6323 38.5615 22.8392 38.2396C23.3449 37.527 23.9656 37.9408 24.0576 38.3316C24.1495 38.7454 24.0116 41.412 24.0116 41.412C24.0116 41.412 24.1036 41.481 24.1955 42.2166C24.2875 42.9753 24.1725 51.0902 23.9426 51.8029C23.7128 52.5155 21.5748 53.6879 21.5748 53.6879L17.8507 56.4006L16.1266 52.2396C16.1266 52.2396 15.7587 51.435 15.8507 51.3661C15.9426 51.2971 20.4714 49.1822 20.4714 49.1822Z" fill="#FFB6A2"/>
<path d="M24.0412 41.4187C24.0412 41.4417 23.9492 41.4187 23.8113 41.4187C23.6734 41.4187 23.5125 41.5107 23.3975 41.7406C23.2826 41.9475 23.2366 42.2463 23.1676 42.5911C23.0987 42.936 23.0297 43.3038 22.9607 43.6716C22.6389 45.2118 22.34 46.4302 22.2711 46.4302C22.2021 46.4302 22.409 45.1659 22.7308 43.6256C22.8228 43.2578 22.8918 42.89 22.9607 42.5452C23.0297 42.2233 23.0987 41.9015 23.2366 41.6716C23.3745 41.4187 23.6274 41.3038 23.7883 41.3498C23.9722 41.3498 24.0412 41.4187 24.0412 41.4187Z" fill="#FF9598"/>
<path d="M32.0897 52.2279L30.5035 56.0899C29.1931 55.3773 28.3196 54.8715 28.2046 54.8256L26.6414 53.6991C26.6414 53.6991 24.4805 52.5497 24.2736 51.8141C24.2276 51.6531 24.1816 51.1474 24.1357 50.4577C24.1357 50.3658 24.1356 50.2738 24.1127 50.1819C24.0897 49.837 24.0897 49.4692 24.0667 49.0784C23.9977 46.9405 23.9517 44.1359 23.9747 42.8715C23.9747 42.5497 23.9977 42.3428 23.9977 42.2508C24.0207 42.0899 24.0437 41.952 24.0667 41.837C24.0897 41.7451 24.0897 41.6991 24.1127 41.6301C24.1127 41.6072 24.1357 41.5842 24.1357 41.5612C24.1816 41.4462 24.2046 41.4462 24.2046 41.4462C24.2046 41.3543 24.1127 38.8945 24.2046 38.5037C24.2966 38.0899 24.7104 37.929 25.0782 38.0439C25.446 38.1589 26.2506 42.6876 26.3885 43.4003C26.5035 44.0899 26.7104 45.0554 26.9402 45.7451C27.1701 46.4347 27.7678 49.2164 27.7678 49.2164C27.7678 49.2164 32.2966 51.3313 32.3885 51.4003C32.4575 51.4233 32.0897 52.2279 32.0897 52.2279Z" fill="#FFB6A2"/>
<path d="M24.1953 41.423C24.1953 41.423 24.2643 41.354 24.4252 41.331C24.5861 41.308 24.839 41.423 24.9769 41.6528C25.1149 41.8827 25.1838 42.2046 25.2528 42.5264C25.3217 42.8712 25.4137 43.2391 25.4827 43.6069C25.8045 45.1471 26.0114 46.4115 25.9424 46.4115C25.8735 46.4115 25.5746 45.1931 25.2528 43.6528C25.1838 43.285 25.1149 42.9172 25.0459 42.5724C24.9769 42.2276 24.9309 41.9287 24.816 41.7218C24.724 41.4919 24.5401 41.4 24.4022 41.4C24.2643 41.423 24.1953 41.446 24.1953 41.423Z" fill="#FF9598"/>
<path d="M24.0681 40.543C24.137 40.543 24.183 42.9568 24.183 45.9223C24.183 48.8878 24.137 51.3016 24.0681 51.3016C23.9991 51.3016 23.9531 48.8878 23.9531 45.9223C23.9531 42.9568 24.0221 40.543 24.0681 40.543Z" fill="#FF9598"/>
<path d="M49.3218 62.6667C48.3103 63.7012 47.0459 64.161 45.5746 63.8391C44.0114 63.4943 34.862 58.5288 30.4942 56.115C29.1838 55.4023 28.3103 54.8966 28.1953 54.8506L32.3792 51.4023L43.3447 53.2414L49.3218 62.6667Z" fill="#FFB6A2"/>
<path d="M50.5128 61.221C50.3288 61.8187 50.053 62.3014 49.7541 62.6922C49.6392 62.8301 49.4093 62.8301 49.3173 62.6692L43.3403 53.221L42.7656 46.8761L44.6967 35.9336C44.6967 35.9336 48.9036 36.5773 49.6392 40.9681C50.3518 45.2669 51.0875 59.4508 50.5128 61.221Z" fill="#002EB4"/>
<path d="M43.3429 53.1954C42.7452 50.6437 42.5383 48.023 42.6303 45.4023C43.182 47.9541 43.4579 50.5977 43.3429 53.1954Z" fill="#00184F"/>
<path d="M21.6163 53.7045C21.6163 53.7045 12.3289 61.9574 9.47833 59.9804C8.00706 58.9459 7.86913 57.0838 8.07603 55.5206C8.28293 53.9804 9.36338 52.693 10.8346 52.2103L20.4898 49.1758L21.6163 53.7045Z" fill="#FFB6A2"/>
</g>
<path d="M38.5879 44.1211H38.5189C38.45 44.1211 38.404 44.1671 38.381 44.236L38.2891 45.2705C38.2891 45.3395 38.335 45.3855 38.404 45.4085H38.473C38.5419 45.4085 38.5879 45.3625 38.6109 45.2935L38.7029 44.259C38.7029 44.1901 38.6569 44.1211 38.5879 44.1211Z" fill="white"/>
<path d="M37.0026 44.5358L37.4394 44.191C37.4854 44.168 37.4854 44.122 37.4854 44.0761C37.4624 44.0301 37.4394 44.0071 37.3934 44.0071H37.3015C37.2785 44.0071 37.2325 44.0071 37.2095 44.0301L36.7727 44.3749H36.7038L36.7727 43.6853C36.7727 43.6163 36.7267 43.5703 36.6808 43.5703H36.6118C36.5428 43.5703 36.4969 43.6163 36.4739 43.6853L36.3359 45.1105C36.3359 45.1795 36.3819 45.2255 36.4509 45.2485H36.5198C36.5888 45.2485 36.6348 45.2025 36.6348 45.1565L36.6808 44.6967H36.7497L37.1635 45.2715C37.1865 45.2944 37.2095 45.3174 37.2325 45.3174H37.3244C37.3704 45.3174 37.4164 45.2944 37.4394 45.2715C37.4624 45.2255 37.4624 45.1795 37.4394 45.1565L37.0026 44.5358Z" fill="white"/>
<path d="M37.9933 43.6602H37.9243C37.8553 43.6602 37.8094 43.7061 37.7864 43.7751L37.6484 45.2004C37.6484 45.2694 37.6944 45.3153 37.7634 45.3383H37.8323C37.9013 45.3383 37.9473 45.2923 37.9703 45.2234L38.1082 43.7981C38.1082 43.7291 38.0622 43.6831 37.9933 43.6602Z" fill="white"/>
<path d="M39.7351 44.8572L40.1719 44.4204C40.1949 44.3974 40.2179 44.3514 40.1949 44.3284C40.1719 44.2825 40.1489 44.2595 40.1259 44.2595L39.988 44.2365C39.965 44.2365 39.942 44.2365 39.919 44.2595L39.5742 44.6043L39.2983 44.2135C39.2753 44.1905 39.2523 44.1675 39.2293 44.1675L39.0914 44.1445C39.0454 44.1445 39.0225 44.1675 38.9995 44.1905C38.9765 44.2135 38.9765 44.2595 38.9995 44.2825L39.3443 44.7882L38.9075 45.225C38.8845 45.248 38.8615 45.294 38.8845 45.3169C38.9075 45.3629 38.9305 45.3859 38.9535 45.3859L39.0914 45.4089C39.1144 45.4089 39.1374 45.4089 39.1604 45.3859L39.5052 45.0411L39.7811 45.4319C39.8041 45.4549 39.8271 45.4779 39.85 45.4779L39.988 45.5009C40.0339 45.5009 40.0569 45.4779 40.0799 45.4549C40.1029 45.4319 40.1029 45.3859 40.0799 45.3629L39.7351 44.8572Z" fill="white"/>
<path d="M38.6288 43.7109H38.5598C38.4908 43.7109 38.4449 43.7569 38.4219 43.8489V43.9178C38.4219 43.9638 38.4449 44.0098 38.4908 44.0098L38.6058 44.0328C38.6518 44.0328 38.6977 44.0098 38.6977 43.9638V43.8948C38.7437 43.7799 38.6977 43.7109 38.6288 43.7109Z" fill="white"/>
<path d="M33.6048 43.729C33.5128 43.6601 33.3979 43.6141 33.283 43.6141C33.145 43.5911 33.0301 43.6141 32.9381 43.6831C32.8232 43.729 32.7542 43.798 32.6853 43.9129C32.6163 44.0049 32.5703 44.1198 32.5703 44.2348C32.5703 44.3497 32.5703 44.4647 32.6163 44.5796C32.6623 44.6945 32.7312 44.7635 32.8232 44.8325C32.9151 44.9014 33.0301 44.9474 33.145 44.9474C33.283 44.9704 33.3979 44.9474 33.4899 44.8785C33.6048 44.8325 33.6738 44.7635 33.7427 44.6486C33.8117 44.5566 33.8577 44.4417 33.8577 44.3267C33.8577 44.2118 33.8577 44.0968 33.8117 43.9819C33.7657 43.89 33.6967 43.798 33.6048 43.729ZM33.5588 44.3037C33.5588 44.3727 33.5358 44.4187 33.4899 44.4877C33.4669 44.5336 33.4209 44.5796 33.3519 44.6026C33.3059 44.6256 33.237 44.6486 33.168 44.6256C33.099 44.6256 33.0301 44.6026 32.9841 44.5566C32.9381 44.5106 32.8922 44.4647 32.8692 44.4187C32.8462 44.3497 32.8462 44.3037 32.8462 44.2348C32.8462 44.1658 32.8692 44.0968 32.9151 44.0509C32.9381 44.0049 32.9841 43.9589 33.0531 43.9359C33.099 43.9129 33.168 43.89 33.237 43.9129C33.3059 43.9129 33.3749 43.9359 33.4209 43.9819C33.4669 44.0279 33.5128 44.0739 33.5358 44.1198C33.5588 44.1658 33.5588 44.2348 33.5588 44.3037Z" fill="white"/>
<path d="M35.8782 43.9361C35.7863 43.8671 35.6713 43.8211 35.5564 43.8211C35.4185 43.7981 35.3035 43.8211 35.2116 43.8901C35.0966 43.9361 35.0277 44.005 34.9587 44.12C34.8897 44.2119 34.8438 44.3269 34.8438 44.4418C34.8438 44.5568 34.8437 44.6717 34.8897 44.7866C34.9357 44.9016 35.0047 44.9705 35.0966 45.0395C35.1886 45.1085 35.3035 45.1545 35.4185 45.1545C35.5564 45.1774 35.6713 45.1545 35.7633 45.0855C35.8782 45.0395 35.9472 44.9705 36.0162 44.8556C36.0851 44.7636 36.1311 44.6487 36.1311 44.5338C36.1311 44.4188 36.1311 44.3039 36.0851 44.1889C36.0392 44.097 35.9702 44.005 35.8782 43.9361ZM35.8323 44.5108C35.8323 44.5797 35.8093 44.6257 35.7633 44.6947C35.7403 44.7407 35.6943 44.7866 35.6254 44.8096C35.5794 44.8326 35.5104 44.8556 35.4414 44.8326C35.3725 44.8326 35.3035 44.8096 35.2575 44.7637C35.2116 44.7177 35.1656 44.6717 35.1426 44.6257C35.1196 44.5568 35.1196 44.5108 35.1196 44.4418C35.1196 44.3728 35.1426 44.3039 35.1886 44.2579C35.2116 44.2119 35.2575 44.166 35.3265 44.143C35.3725 44.12 35.4414 44.097 35.5104 44.12C35.5794 44.12 35.6483 44.143 35.6943 44.1889C35.7403 44.2349 35.7863 44.2809 35.8093 44.3269C35.8323 44.3728 35.8323 44.4418 35.8323 44.5108Z" fill="white"/>
<path d="M34.5946 43.7536L34.4567 43.7306L34.4797 43.4548C34.4797 43.3858 34.4337 43.3398 34.3877 43.3398H34.3188C34.2498 43.3398 34.2038 43.3858 34.2038 43.4318L34.0889 44.7651C34.0659 44.9031 34.1808 45.018 34.2958 45.018L34.5027 45.041C34.5717 45.041 34.6176 44.995 34.6176 44.949V44.8801C34.6176 44.8111 34.5717 44.7651 34.5257 44.7651L34.3877 44.7421L34.4567 44.0295L34.5946 44.0525C34.6636 44.0525 34.7096 44.0065 34.7096 43.9605V43.8916C34.6866 43.7996 34.6406 43.7536 34.5946 43.7536Z" fill="white"/>
<path d="M36.7847 40.1886C36.2099 40.1426 35.6582 40.4184 35.3594 40.9012L35.6352 41.223C35.7042 41.315 35.7272 41.4299 35.7272 41.5449C35.7042 41.7058 35.7502 41.8437 35.8651 41.9587C35.9571 42.0736 36.095 42.1426 36.2559 42.1656C36.3019 42.1656 36.3709 42.1656 36.4168 42.1656L36.0031 41.6828L36.118 41.361L36.4398 41.315L36.8536 41.7978C36.8766 41.7518 36.8766 41.6828 36.8996 41.6368C36.9226 41.4759 36.8766 41.338 36.7617 41.223C36.6697 41.1081 36.5318 41.0161 36.3709 41.0161C36.3709 41.0161 36.3479 41.0161 36.3249 41.0161C36.2099 40.9932 36.118 40.9472 36.072 40.8552L36.0031 40.7863C36.2099 40.6483 36.4628 40.5564 36.7387 40.5794C37.3594 40.6253 37.8191 41.1771 37.7502 41.7978C37.7502 41.8207 37.7502 41.8667 37.7272 41.8897C37.7272 41.9357 37.7272 41.9817 37.7732 42.0276L38.0031 42.3035C38.072 42.1656 38.118 42.0047 38.141 41.8207C38.2099 40.9932 37.6122 40.2805 36.7847 40.1886Z" fill="white"/>
<path d="M37.6366 42.1425C37.5676 42.0506 37.5447 41.9356 37.5447 41.8207C37.5676 41.6598 37.5217 41.5218 37.4067 41.4069C37.3148 41.2919 37.1768 41.223 37.0159 41.2C36.9699 41.2 36.901 41.2 36.855 41.2L37.2688 41.6827L37.1538 42.0046L36.832 42.0506L36.4182 41.5678C36.3952 41.6138 36.3952 41.6827 36.3722 41.7287C36.3493 41.8896 36.3952 42.0276 36.5102 42.1425C36.6021 42.2575 36.7401 42.3494 36.901 42.3494C36.901 42.3494 36.924 42.3494 36.947 42.3494C37.0619 42.3724 37.1539 42.4184 37.2228 42.5103L37.2918 42.5793C37.0849 42.7172 36.832 42.8092 36.5562 42.7862C35.9355 42.7402 35.4757 42.1885 35.5447 41.5678C35.5447 41.5448 35.5447 41.4988 35.5676 41.4758C35.5676 41.4299 35.5676 41.3609 35.5217 41.3149L35.2918 41.0391C35.2228 41.177 35.1768 41.3379 35.1539 41.5218C35.0849 42.3494 35.6826 43.085 36.5102 43.154C37.0849 43.2 37.6366 42.9241 37.9355 42.4414L37.6366 42.1425Z" fill="white"/>
</svg>
