<svg width="74" height="24" viewBox="0 0 74 24" fill="none" xmlns="http://www.w3.org/2000/svg">
<path d="M46.5214 12.4624H46.0749C45.6027 12.4624 45.2188 12.8465 45.2188 13.3188V20.7906C45.2188 21.2629 45.6027 21.647 46.0749 21.647H46.5214C46.9936 21.647 47.3775 21.2629 47.3775 20.7906V13.3188C47.3747 12.8465 46.9907 12.4624 46.5214 12.4624Z" fill="#FF6400"/>
<path d="M31.8105 9.6001C31.344 9.6001 30.9629 9.98137 30.9629 10.448V20.7991C30.9629 21.2658 31.344 21.647 31.8105 21.647H32.3168C32.7605 21.647 33.1217 21.2857 33.1217 20.8418V17.4929H33.5398L36.8335 21.2857C36.987 21.4621 37.2089 21.5617 37.4421 21.5617H38.0906C38.4092 21.5617 38.6908 21.3824 38.8244 21.0894C38.9581 20.7991 38.9098 20.4691 38.6993 20.2272L35.4284 16.4601L38.2869 13.7713C38.5286 13.5437 38.6054 13.1965 38.4831 12.8864C38.3608 12.5763 38.0679 12.3771 37.7351 12.3771H37.0894C36.8761 12.3771 36.677 12.4596 36.5263 12.6076L33.6621 15.4159H33.1274V10.4053C33.1274 9.96145 32.7662 9.6001 32.3224 9.6001" fill="#FF6400"/>
<path d="M41.5077 9.6001C41.0413 9.6001 40.6602 9.98137 40.6602 10.448V20.7991C40.6602 21.2658 41.0413 21.647 41.5077 21.647H41.9714C42.4378 21.647 42.819 21.2658 42.819 20.7991V10.448C42.819 9.98137 42.4378 9.6001 41.9714 9.6001" fill="#FF6400"/>
<path d="M55.2008 17.0547L58.0763 13.5806C58.247 13.3757 58.2811 13.0969 58.1673 12.8551C58.0536 12.6132 57.8175 12.4624 57.5501 12.4624H56.5262C56.3214 12.4624 56.1308 12.5535 56 12.7099L53.8014 15.3674L51.6028 12.7099C51.4719 12.5535 51.2814 12.4624 51.0766 12.4624H50.0526C49.7853 12.4624 49.5492 12.6132 49.4354 12.8551C49.3217 13.0969 49.3558 13.3757 49.5265 13.5806L52.402 17.0547L49.5265 20.5288C49.3558 20.7337 49.3217 21.0125 49.4354 21.2543C49.5492 21.4962 49.7853 21.647 50.0526 21.647H51.0766C51.2814 21.647 51.4719 21.5559 51.6028 21.3995L53.8014 18.742L56 21.3995C56.1308 21.5559 56.3214 21.647 56.5262 21.647H57.5501C57.8175 21.647 58.0536 21.4962 58.1673 21.2543C58.2811 21.0125 58.247 20.7337 58.0763 20.5288L55.2008 17.0547Z" fill="#FF6400"/>
<path d="M46.0749 9.41504C45.6027 9.41504 45.2188 9.89589 45.2188 10.4906V11.0425C45.2188 11.3868 45.5003 11.6685 45.8445 11.6685H46.7518C47.096 11.6685 47.3775 11.3868 47.3775 11.0425V10.4906C47.3775 9.89874 46.9936 9.41504 46.5214 9.41504" fill="#FF6400"/>
<path d="M10.3116 12.9574C9.59204 12.5192 8.76151 12.2944 7.83997 12.2944C6.92128 12.2944 6.08791 12.5164 5.36831 12.9574C4.65155 13.3927 4.0827 13.9845 3.67597 14.7129C3.26924 15.4413 3.06445 16.2437 3.06445 17.1058C3.06445 17.9651 3.27208 18.7675 3.67881 19.4902C4.08554 20.2129 4.6544 20.799 5.36831 21.2372C6.08791 21.6753 6.91843 21.9001 7.83997 21.9001C8.75867 21.9001 9.59204 21.6782 10.3116 21.2372C11.0284 20.8018 11.5944 20.2129 12.0011 19.4902C12.4079 18.7675 12.6155 17.9651 12.6155 17.1058C12.6155 16.2465 12.4107 15.4413 12.004 14.7129C11.5944 13.9845 11.0255 13.3927 10.3116 12.9574ZM10.4055 17.1058C10.4055 17.5781 10.2974 18.0248 10.0869 18.4289C9.87931 18.8301 9.58066 19.1601 9.19669 19.4077C8.82124 19.6495 8.36332 19.7747 7.83713 19.7747C7.32232 19.7747 6.86723 19.6523 6.48326 19.4077C6.09644 19.1601 5.79495 18.8329 5.58732 18.4317C5.37684 18.0248 5.26876 17.581 5.26876 17.1087C5.26876 16.625 5.37684 16.1726 5.58732 15.7685C5.79495 15.3673 6.09644 15.0401 6.48326 14.7926C6.86439 14.5479 7.31947 14.4256 7.83713 14.4256C8.36332 14.4256 8.82124 14.5479 9.19669 14.7926C9.57782 15.0401 9.87931 15.3673 10.0869 15.7685C10.3003 16.1697 10.4055 16.6221 10.4055 17.1058Z" fill="#002EB4"/>
<path d="M26.8058 12.9574C26.0862 12.5192 25.2557 12.2944 24.3341 12.2944C23.4154 12.2944 22.582 12.5164 21.8624 12.9574C21.1457 13.3927 20.5768 13.9845 20.1701 14.7129C19.7634 15.4413 19.5586 16.2465 19.5586 17.1058C19.5586 17.9651 19.7662 18.7675 20.173 19.4902C20.5797 20.2129 21.1485 20.799 21.8624 21.2372C22.582 21.6753 23.4126 21.9001 24.3341 21.9001C25.2528 21.9001 26.0862 21.6782 26.8058 21.2372C27.5225 20.8018 28.0885 20.2129 28.4953 19.4902C28.902 18.7675 29.1096 17.9651 29.1096 17.1058C29.1096 16.2465 28.9048 15.4413 28.4981 14.7129C28.0914 13.9845 27.5225 13.3927 26.8058 12.9574ZM26.9025 17.1058C26.9025 17.5781 26.7944 18.0248 26.5839 18.4289C26.3763 18.8301 26.0776 19.1601 25.6937 19.4077C25.3182 19.6495 24.8603 19.7747 24.3341 19.7747C23.8193 19.7747 23.3642 19.6523 22.9802 19.4077C22.5934 19.1601 22.2919 18.8329 22.0843 18.4317C21.8738 18.0248 21.7657 17.581 21.7657 17.1087C21.7657 16.625 21.8738 16.1726 22.0843 15.7685C22.2919 15.3673 22.5934 15.0401 22.9802 14.7926C23.3614 14.5479 23.8165 14.4256 24.3341 14.4256C24.8603 14.4256 25.3182 14.5479 25.6937 14.7926C26.0748 15.0401 26.3763 15.3673 26.5839 15.7685C26.7944 16.1697 26.9025 16.6221 26.9025 17.1058Z" fill="#002EB4"/>
<path d="M15.0986 9.60001C14.6549 9.60001 14.2908 9.96137 14.2908 10.4052L14.2852 20.1617C14.2852 21.1007 15.0474 21.8632 15.986 21.8632H17.4793C17.923 21.8632 18.287 21.5019 18.287 21.058V20.58C18.287 20.1361 17.9258 19.7719 17.4793 19.7719H16.4468L16.4525 14.5366H17.4793C17.923 14.5366 18.287 14.1752 18.287 13.7285V13.2676C18.287 12.8237 17.9258 12.4595 17.4793 12.4595H16.4525V10.4024C16.4525 9.95852 16.0913 9.59717 15.6447 9.59717" fill="#002EB4"/>
<path d="M62.4943 8.40493H63.4983C63.4698 8.54151 63.4101 8.66101 63.3219 8.76913C63.2338 8.87725 63.1228 8.95977 62.9949 9.02236C62.864 9.08496 62.7218 9.11341 62.5625 9.11341C62.4061 9.11341 62.2639 9.08496 62.1302 9.02805C61.9965 8.97115 61.8827 8.89432 61.7832 8.79474C61.6836 8.69515 61.6068 8.5785 61.5528 8.44192C61.4988 8.30535 61.4703 8.15739 61.4703 8.0009C61.4703 7.83872 61.4959 7.69077 61.55 7.55988C61.604 7.42616 61.678 7.31234 61.7747 7.21276C61.8714 7.11317 61.9823 7.03635 62.1131 6.97945C62.244 6.92254 62.3862 6.89409 62.5398 6.89409C62.7246 6.89409 62.8953 6.93108 63.0517 7.00505C63.2082 7.07903 63.3447 7.19 63.4613 7.33511L63.9505 6.88271C63.7884 6.68069 63.5836 6.52704 63.3305 6.41323C63.0802 6.30227 62.8157 6.24536 62.5369 6.24536C62.2838 6.24536 62.0506 6.29089 61.8315 6.37909C61.6154 6.46729 61.4248 6.59249 61.2627 6.75182C61.1006 6.91116 60.9726 7.09895 60.8816 7.3095C60.7905 7.5229 60.7422 7.75052 60.7422 7.99806C60.7422 8.2456 60.7877 8.47322 60.8787 8.68662C60.9697 8.90001 61.0977 9.08496 61.2655 9.24429C61.4333 9.40363 61.6239 9.52882 61.8401 9.61703C62.0562 9.70523 62.2923 9.75076 62.5455 9.75076C62.7901 9.75076 63.0176 9.70808 63.2252 9.61987C63.4329 9.53167 63.6121 9.40932 63.7656 9.25283C63.9164 9.09634 64.0358 8.9114 64.1212 8.698C64.2065 8.4846 64.2492 8.25413 64.2492 8.0009V7.78751H62.4914V8.40493H62.4943Z" fill="white"/>
<path d="M67.6801 6.75475C67.518 6.59542 67.3246 6.47022 67.1084 6.38202C66.8894 6.29382 66.6562 6.24829 66.4059 6.24829C66.1528 6.24829 65.9167 6.29382 65.7005 6.38202C65.4815 6.47022 65.2909 6.59542 65.1288 6.75475C64.9639 6.91409 64.8387 7.10188 64.7448 7.31243C64.6538 7.52582 64.6055 7.75345 64.6055 8.00099C64.6055 8.24853 64.651 8.47615 64.7448 8.68955C64.8359 8.90294 64.9639 9.08789 65.1288 9.24722C65.2909 9.40656 65.4843 9.53175 65.7005 9.61996C65.9195 9.70816 66.1556 9.75368 66.4059 9.75368C66.6562 9.75368 66.8894 9.70816 67.1084 9.61996C67.3274 9.53175 67.518 9.40656 67.6801 9.24722C67.8422 9.08789 67.9702 8.9001 68.0613 8.68955C68.1523 8.47615 68.1978 8.24853 68.1978 8.00099C68.1978 7.75629 68.1523 7.52582 68.0613 7.31243C67.9702 7.10188 67.8422 6.91693 67.6801 6.75475ZM67.3957 8.43916C67.3417 8.57574 67.2649 8.69239 67.1682 8.79198C67.0714 8.89156 66.9577 8.96839 66.8268 9.02529C66.696 9.0822 66.5566 9.11065 66.403 9.11065C66.2495 9.11065 66.1101 9.0822 65.9792 9.02529C65.8484 8.96839 65.7346 8.89156 65.6379 8.79198C65.5412 8.69239 65.4644 8.57574 65.4104 8.43916C65.3564 8.30259 65.3279 8.15463 65.3279 7.99245C65.3279 7.83596 65.3564 7.6937 65.4104 7.55997C65.4644 7.42624 65.5412 7.31243 65.6379 7.21284C65.7346 7.11326 65.8484 7.03644 65.9792 6.97953C66.1101 6.92262 66.2523 6.89417 66.4087 6.89417C66.5566 6.89417 66.696 6.92262 66.8268 6.97953C66.9577 7.03644 67.0686 7.11326 67.1682 7.21284C67.2649 7.31243 67.3417 7.42624 67.3957 7.55997C67.4497 7.6937 67.4782 7.83881 67.4782 8.00099C67.4782 8.15748 67.4497 8.30259 67.3957 8.43916Z" fill="white"/>
<path d="M69.2147 8.68088L69.2971 6.27661H68.623L68.7055 8.68088H69.2147Z" fill="white"/>
<path d="M69.2378 9.07939C69.1582 9.00256 69.0672 8.96558 68.9648 8.96558C68.8538 8.96558 68.7628 9.00256 68.686 9.07939C68.6092 9.15621 68.5723 9.24726 68.5723 9.35823C68.5723 9.46635 68.6092 9.5574 68.686 9.63137C68.7628 9.7082 68.8538 9.74518 68.9648 9.74518C69.0672 9.74518 69.161 9.7082 69.2378 9.63137C69.3175 9.55455 69.3573 9.4635 69.3573 9.35823C69.3573 9.24726 69.3175 9.15337 69.2378 9.07939Z" fill="white"/>
<path d="M67.1645 7.21272C67.0678 7.11313 66.954 7.03631 66.8231 6.9794C66.6923 6.9225 66.5529 6.89404 66.405 6.89404C66.2486 6.89404 66.1064 6.9225 65.9756 6.9794C65.8447 7.03631 65.7309 7.11313 65.6342 7.21272C65.5375 7.3123 65.4607 7.42611 65.4067 7.55984C65.3527 7.69357 65.3242 7.83583 65.3242 7.99232C65.3242 8.15451 65.3527 8.30246 65.4067 8.43903C65.4607 8.57561 65.5375 8.69226 65.6342 8.79185C65.7309 8.89143 65.8447 8.96826 65.9756 9.02516C66.1064 9.08207 66.2486 9.11052 66.3994 9.11052C66.5501 9.11052 66.6923 9.08207 66.8231 9.02516C66.954 8.96826 67.0649 8.89143 67.1645 8.79185C67.2612 8.69226 67.338 8.57561 67.392 8.43903C67.446 8.30246 67.4745 8.15735 67.4745 8.00086C67.4745 7.83868 67.446 7.69072 67.392 7.55984C67.338 7.42611 67.264 7.3123 67.1645 7.21272Z" fill="#FF6400"/>
<path d="M65.0458 2.09985C61.7948 2.09985 59.1582 4.73743 59.1582 7.9896C59.1582 11.2418 61.7948 13.8793 65.0458 13.8793C68.2968 13.8793 70.9335 11.2418 70.9335 7.9896C70.9335 4.73743 68.2968 2.09985 65.0458 2.09985ZM69.298 6.27674L69.2155 8.681H68.7064L68.6239 6.27674H69.298ZM68.6836 9.07934C68.7604 9.00252 68.8515 8.96553 68.9624 8.96553C69.0648 8.96553 69.1586 9.00252 69.2354 9.07934C69.3151 9.15617 69.3549 9.24722 69.3549 9.35818C69.3549 9.4663 69.3151 9.55735 69.2354 9.63133C69.1558 9.70815 69.0648 9.74514 68.9624 9.74514C68.8515 9.74514 68.7604 9.70815 68.6836 9.63133C68.6069 9.55451 68.5699 9.46346 68.5699 9.35818C68.5699 9.24722 68.6069 9.15332 68.6836 9.07934ZM68.0608 8.68954C67.9697 8.90294 67.8417 9.08788 67.6796 9.24722C67.5175 9.40655 67.3241 9.53174 67.1079 9.61995C66.8889 9.70815 66.6557 9.75368 66.4054 9.75368C66.1523 9.75368 65.9162 9.70815 65.7 9.61995C65.481 9.53174 65.2904 9.40655 65.1283 9.24722C64.9634 9.08788 64.8382 8.90009 64.7443 8.68954C64.6533 8.47614 64.605 8.24852 64.605 8.00098C64.605 7.75629 64.6505 7.52582 64.7443 7.31242C64.8354 7.09902 64.9634 6.91408 65.1283 6.75474C65.2904 6.59541 65.4838 6.47022 65.7 6.38201C65.919 6.29381 66.1551 6.24828 66.4054 6.24828C66.6557 6.24828 66.8889 6.29381 67.1079 6.38201C67.3269 6.47022 67.5175 6.59541 67.6796 6.75474C67.8417 6.91408 67.9697 7.10187 68.0608 7.31242C68.1518 7.52582 68.1973 7.75344 68.1973 8.00098C68.1944 8.24852 68.1489 8.47614 68.0608 8.68954ZM60.8818 8.68954C60.7908 8.47614 60.7453 8.24852 60.7453 8.00098C60.7453 7.75629 60.7908 7.52582 60.8847 7.31242C60.9757 7.09902 61.1037 6.91408 61.2658 6.75474C61.4279 6.59541 61.6157 6.47022 61.8347 6.38201C62.0508 6.29381 62.2869 6.24828 62.54 6.24828C62.8188 6.24828 63.0833 6.30519 63.3336 6.41615C63.5839 6.52712 63.7915 6.68361 63.9536 6.88563L63.4644 7.33803C63.3478 7.19292 63.2113 7.08195 63.0548 7.00797C62.8984 6.934 62.7278 6.89701 62.5429 6.89701C62.3864 6.89701 62.2442 6.92546 62.1162 6.98237C61.9854 7.03927 61.8745 7.1161 61.7778 7.21568C61.6811 7.31527 61.6071 7.42908 61.5531 7.56281C61.499 7.69653 61.4734 7.84164 61.4734 8.00382C61.4734 8.16316 61.5019 8.31112 61.5559 8.44484C61.61 8.58142 61.6868 8.69808 61.7863 8.79766C61.8859 8.89725 61.9996 8.97407 62.1333 9.03097C62.267 9.08788 62.4092 9.11633 62.5656 9.11633C62.7249 9.11633 62.8671 9.08503 62.998 9.02528C63.1288 8.96269 63.2369 8.88017 63.3251 8.77205C63.4132 8.66393 63.473 8.54443 63.5014 8.40786H62.4974V7.79612H64.2551V8.00952C64.2551 8.26275 64.2125 8.49321 64.1271 8.70661C64.0418 8.92001 63.9223 9.10211 63.7716 9.26144C63.618 9.41793 63.4388 9.54028 63.2312 9.62848C63.0236 9.71669 62.796 9.75937 62.5514 9.75937C62.2983 9.75937 62.065 9.71384 61.846 9.62564C61.6299 9.53744 61.4365 9.41224 61.2715 9.25291C61.1008 9.08788 60.9728 8.90009 60.8818 8.68954Z" fill="#FF6400"/>
</svg>
