<svg width="14" height="14" viewBox="0 0 14 14" fill="none" xmlns="http://www.w3.org/2000/svg">
<path d="M8.54262 3.35281C8.41408 3.48395 8.34207 3.66027 8.34207 3.84391C8.34207 4.02755 8.41408 4.20386 8.54262 4.33501L9.66513 5.45752C9.79628 5.58607 9.9726 5.65807 10.1562 5.65807C10.3399 5.65807 10.5162 5.58607 10.6473 5.45752L12.6108 3.49406C12.9403 3.16458 13.4953 3.27123 13.5861 3.72826C13.6886 4.24481 13.6939 4.77887 13.5985 5.30258C13.4451 6.1444 13.0388 6.91949 12.4337 7.52455C11.8287 8.1296 11.0536 8.5359 10.2118 8.68928C9.67434 8.7872 9.12601 8.77907 8.5969 8.66861C8.05364 8.55519 7.46201 8.64284 7.06959 9.03527L2.87393 13.2309C2.59482 13.51 2.21628 13.6668 1.82157 13.6668C1.42686 13.6668 1.04832 13.51 0.769213 13.2309C0.490111 12.9518 0.333313 12.5733 0.333313 12.1786C0.333313 11.7839 0.490111 11.4053 0.769213 11.1262L4.96487 6.93056C5.3573 6.53813 5.44496 5.94651 5.33154 5.40325C5.22107 4.87413 5.21294 4.32581 5.31086 3.78838C5.46425 2.94656 5.87054 2.17147 6.4756 1.56641C7.08066 0.961353 7.85574 0.55506 8.69757 0.401678C9.22127 0.306257 9.75534 0.311538 10.2719 0.414093C10.7289 0.504831 10.8356 1.05987 10.5061 1.38934L8.54964 3.34579L8.54262 3.35281Z" fill="#002EB4"/>
</svg>
