<svg width="14" height="9" viewBox="0 0 14 9" fill="none" xmlns="http://www.w3.org/2000/svg">
<path fill-rule="evenodd" clip-rule="evenodd" d="M1.55354 3.54449L1.81863 2.63719C2.27354 1.08017 3.78858 0 5.51753 0H8.48244C10.2114 0 11.7264 1.08017 12.1813 2.63719L12.4464 3.54449C13.1431 3.88834 13.6223 4.60589 13.6223 5.43536C13.6223 6.15144 13.2652 6.7841 12.7193 7.16493V8C12.7193 8.36819 12.4208 8.66667 12.0526 8.66667H10.9778C10.6096 8.66667 10.3112 8.36819 10.3112 8V7.54274H3.68881V8C3.68881 8.36819 3.39033 8.66667 3.02214 8.66667H1.94734C1.57915 8.66667 1.28068 8.36819 1.28068 8V7.16493C0.734781 6.78411 0.377625 6.15144 0.377625 5.43536C0.377625 4.60588 0.856852 3.88834 1.55354 3.54449ZM3.66665 5.33333C3.66665 5.70152 3.36817 6 2.99998 6C2.63179 6 2.33331 5.70152 2.33331 5.33333C2.33331 4.96514 2.63179 4.66667 2.99998 4.66667C3.36817 4.66667 3.66665 4.96514 3.66665 5.33333ZM11 6C11.3682 6 11.6666 5.70152 11.6666 5.33333C11.6666 4.96514 11.3682 4.66667 11 4.66667C10.6318 4.66667 10.3333 4.96514 10.3333 5.33333C10.3333 5.70152 10.6318 6 11 6Z" fill="#002EB4"/>
</svg>
