<svg width="16" height="16" viewBox="0 0 16 16" fill="none" xmlns="http://www.w3.org/2000/svg">
<path d="M1.16797 11.8768C1.32386 11.1162 1.87753 10.705 2.51183 10.3744C3.23483 9.99544 4.01695 9.79386 4.81252 9.63797C4.84208 9.6326 4.89315 9.65141 4.90928 9.6756C5.13236 10.0089 5.35006 10.3475 5.57852 10.6996C5.33394 10.7453 5.10548 10.7803 4.87971 10.8286C4.18897 10.9765 3.50629 11.1619 2.88811 11.5167C2.7376 11.6027 2.59515 11.7102 2.47151 11.8285C2.31831 11.9736 2.32638 12.1053 2.47151 12.2585C2.68116 12.4816 2.94724 12.616 3.22139 12.7423C3.86375 13.0326 4.54375 13.2046 5.23718 13.3255C6.59716 13.5647 7.9679 13.6024 9.34133 13.5083C10.4352 13.433 11.5211 13.2718 12.5478 12.8659C12.8676 12.7396 13.1794 12.573 13.467 12.3794C13.811 12.1483 13.7949 11.936 13.4616 11.6914C12.9241 11.299 12.3032 11.1001 11.6689 10.9415C11.3222 10.8555 10.9701 10.7937 10.6207 10.7211C10.5857 10.7131 10.5535 10.705 10.5078 10.6916C10.7336 10.3448 10.9513 10.0062 11.1717 9.67291C11.1878 9.65141 11.2308 9.62722 11.255 9.6326C12.2441 9.83417 13.2143 10.0868 14.0637 10.6701C14.3512 10.8663 14.5985 11.1055 14.7571 11.4226C15.0232 11.9521 14.9398 12.53 14.534 12.9922C14.155 13.4223 13.6659 13.6911 13.1471 13.9061C12.2064 14.2958 11.2174 14.492 10.2121 14.6129C9.05374 14.7527 7.89265 14.7796 6.73155 14.6936C5.43876 14.5995 4.16478 14.4006 2.9553 13.9114C2.53602 13.7421 2.14092 13.5244 1.79152 13.2315C1.47437 12.9654 1.26204 12.6321 1.17334 12.2262C1.16797 12.1107 1.16797 11.9951 1.16797 11.8768Z" fill="#002EB4"/>
<path d="M8.05397 1.2793C9.95688 1.28198 11.6125 2.63122 12.0076 4.49381C12.1769 5.29206 12.0345 6.04463 11.7281 6.78375C11.3545 7.68682 10.8761 8.53614 10.3466 9.35321C9.87625 10.0816 9.38171 10.7938 8.88448 11.5034C8.44638 12.1296 7.66963 12.1242 7.22078 11.5034C6.32845 10.267 5.47376 9.00649 4.77764 7.64382C4.46049 7.02296 4.17559 6.38597 4.05733 5.68985C3.98745 5.284 4.0197 4.87547 4.11109 4.47768C4.41749 3.14458 5.20499 2.19043 6.45209 1.61526C6.89019 1.41368 7.53793 1.2793 8.05397 1.2793ZM10.4407 5.43451C10.4434 4.12291 9.37633 3.05319 8.06472 3.04782C6.74774 3.04244 5.67534 4.11215 5.67265 5.43183C5.66996 6.74612 6.75043 7.82658 8.06204 7.82121C9.37096 7.81583 10.438 6.74612 10.4407 5.43451Z" fill="#002EB4"/>
<path d="M6.60587 5.4127C6.62469 4.59295 7.28049 3.96402 8.10293 3.98283C8.87968 4.00165 9.53011 4.67627 9.50861 5.45033C9.48711 6.2674 8.82055 6.90439 8.01155 6.88288C7.22942 6.86138 6.58706 6.18945 6.60587 5.4127Z" fill="#002EB4"/>
</svg>
