<svg width="14" height="14" viewBox="0 0 14 14" fill="none" xmlns="http://www.w3.org/2000/svg">
<path d="M0.167969 10.8768C0.323857 10.1162 0.877527 9.705 1.51183 9.37441C2.23483 8.99544 3.01695 8.79386 3.81252 8.63797C3.84208 8.6326 3.89315 8.65141 3.90928 8.6756C4.13236 9.00888 4.35006 9.34753 4.57852 9.69962C4.33394 9.74531 4.10548 9.78025 3.87971 9.82863C3.18897 9.97646 2.50629 10.1619 1.88811 10.5167C1.7376 10.6027 1.59515 10.7102 1.47151 10.8285C1.31831 10.9736 1.32638 11.1053 1.47151 11.2585C1.68116 11.4816 1.94724 11.616 2.22139 11.7423C2.86375 12.0326 3.54375 12.2046 4.23718 12.3255C5.59716 12.5647 6.9679 12.6024 8.34133 12.5083C9.43523 12.433 10.5211 12.2718 11.5478 11.8659C11.8676 11.7396 12.1794 11.573 12.467 11.3794C12.811 11.1483 12.7949 10.936 12.4616 10.6914C11.9241 10.299 11.3032 10.1001 10.6689 9.94152C10.3222 9.85551 9.97009 9.79369 9.62068 9.72112C9.58574 9.71306 9.55349 9.705 9.5078 9.69156C9.73357 9.34484 9.95127 9.00619 10.1717 8.67291C10.1878 8.65141 10.2308 8.62722 10.255 8.6326C11.2441 8.83417 12.2143 9.08682 13.0637 9.67006C13.3512 9.86626 13.5985 10.1055 13.7571 10.4226C14.0232 10.9521 13.9398 11.53 13.534 11.9922C13.155 12.4223 12.6659 12.6911 12.1471 12.9061C11.2064 13.2958 10.2174 13.492 9.21215 13.6129C8.05374 13.7527 6.89265 13.7796 5.73155 13.6936C4.43876 13.5995 3.16478 13.4006 1.9553 12.9114C1.53602 12.7421 1.14092 12.5244 0.79152 12.2315C0.474369 11.9654 0.262039 11.6321 0.173344 11.2262C0.167969 11.1107 0.167969 10.9951 0.167969 10.8768Z" fill="#002EB4"/>
<path d="M7.05397 0.279297C8.95688 0.281985 10.6125 1.63122 11.0076 3.49381C11.1769 4.29206 11.0345 5.04463 10.7281 5.78375C10.3545 6.68682 9.87608 7.53614 9.3466 8.35321C8.87625 9.08158 8.38171 9.79383 7.88448 10.5034C7.44638 11.1296 6.66963 11.1242 6.22078 10.5034C5.32845 9.26703 4.47376 8.00649 3.77764 6.64382C3.46049 6.02296 3.17559 5.38597 3.05733 4.68985C2.98745 4.284 3.0197 3.87547 3.11109 3.47768C3.41749 2.14458 4.20499 1.19043 5.45209 0.615262C5.89019 0.413683 6.53793 0.279297 7.05397 0.279297ZM9.44067 4.43451C9.44336 3.12291 8.37633 2.05319 7.06472 2.04782C5.74774 2.04244 4.67534 3.11215 4.67265 4.43183C4.66996 5.74612 5.75043 6.82658 7.06204 6.82121C8.37096 6.81583 9.43798 5.74612 9.44067 4.43451Z" fill="#002EB4"/>
<path d="M5.60587 4.41319C5.62469 3.59343 6.28049 2.96451 7.10293 2.98332C7.87968 3.00214 8.53011 3.67675 8.50861 4.45082C8.48711 5.26788 7.82055 5.90487 7.01155 5.88337C6.22942 5.86187 5.58706 5.18994 5.60587 4.41319Z" fill="#002EB4"/>
</svg>
