<svg width="24" height="24" viewBox="0 0 24 24" fill="none" xmlns="http://www.w3.org/2000/svg">
<path d="M0 6.85714C0 3.07005 3.07005 0 6.85714 0H17.1429C20.93 0 24 3.07005 24 6.85714V17.1429C24 20.93 20.93 24 17.1429 24H6.85714C3.07005 24 0 20.93 0 17.1429V6.85714Z" fill="#FFE7D5"/>
<path d="M9.42871 5.1423C9.42871 4.66891 9.81247 4.28516 10.2859 4.28516H12.4287C12.9021 4.28516 13.2859 4.66891 13.2859 5.1423V6.42801H9.42871V5.1423Z" fill="url(#paint0_linear)"/>
<path d="M6.85742 8.14202C6.85742 7.19525 7.62493 6.42773 8.57171 6.42773H13.7146C16.5549 6.42773 18.8574 8.73027 18.8574 11.5706V17.9992C18.8574 18.9459 18.0899 19.7134 17.1431 19.7134H9.00028C7.81681 19.7134 6.85742 18.7541 6.85742 17.5706V8.14202Z" fill="url(#paint1_linear)"/>
<mask id="mask0" mask-type="alpha" maskUnits="userSpaceOnUse" x="6" y="6" width="13" height="14">
<path d="M6.85742 8.14202C6.85742 7.19525 7.62493 6.42773 8.57171 6.42773H13.7146C16.5549 6.42773 18.8574 8.73027 18.8574 11.5706V17.9992C18.8574 18.9459 18.0899 19.7134 17.1431 19.7134H9.00028C7.81681 19.7134 6.85742 18.7541 6.85742 17.5706V8.14202Z" fill="url(#paint2_linear)"/>
</mask>
<g mask="url(#mask0)">
<rect opacity="0.1" x="5.8623" y="-2.14453" width="10.7143" height="10.7143" transform="rotate(45 5.8623 -2.14453)" fill="white"/>
</g>
<path opacity="0.3" d="M11.5718 9.85686C11.5718 8.91009 12.3393 8.14258 13.2861 8.14258H14.5718C16.2286 8.14258 17.5718 9.48572 17.5718 11.1426V14.1426C17.5718 15.0894 16.8043 15.8569 15.8575 15.8569H13.7146C12.5312 15.8569 11.5718 14.8975 11.5718 13.714V9.85686Z" fill="#FCFCFC"/>
<path d="M5.14307 13.2849C5.14307 12.8115 5.52682 12.4277 6.00021 12.4277H9.42878C10.3756 12.4277 11.1431 13.1952 11.1431 14.142V18.8563C11.1431 19.3297 10.7593 19.7134 10.2859 19.7134H6.00021C5.52682 19.7134 5.14307 19.3297 5.14307 18.8563V13.2849Z" fill="url(#paint3_linear)"/>
<path opacity="0.3" d="M8.57178 13.5717C8.57178 13.1772 8.89157 12.8574 9.28606 12.8574C10.075 12.8574 10.7146 13.497 10.7146 14.286V14.5717C10.7146 15.0451 10.3309 15.4289 9.85749 15.4289H9.42892C8.95553 15.4289 8.57178 15.0451 8.57178 14.5717V13.5717Z" fill="#FCFCFC"/>
<path d="M6 11.5711C6 11.3345 6.19188 11.1426 6.42857 11.1426H7.71429C7.95098 11.1426 8.14286 11.3345 8.14286 11.5711V12.4283H6V11.5711Z" fill="url(#paint4_linear)"/>
<path d="M9.00042 16.2857C9.00042 16.7591 8.61666 17.1429 8.14328 17.1429C7.66989 17.1429 7.28613 16.7591 7.28613 16.2857C7.28613 15.8123 7.92899 15 8.14328 15C8.35756 15 9.00042 15.8123 9.00042 16.2857Z" fill="white"/>
<defs>
<linearGradient id="paint0_linear" x1="9.00014" y1="4.28516" x2="13.9287" y2="8.1423" gradientUnits="userSpaceOnUse">
<stop stop-color="#444444"/>
<stop offset="0.0001" stop-color="#757575"/>
<stop offset="1" stop-color="#0F0F0F"/>
</linearGradient>
<linearGradient id="paint1_linear" x1="6.85742" y1="6.42773" x2="21.7331" y2="21.2715" gradientUnits="userSpaceOnUse">
<stop stop-color="#14142B"/>
<stop offset="1" stop-color="#6E7191"/>
</linearGradient>
<linearGradient id="paint2_linear" x1="4.92885" y1="4.74066" x2="19.6519" y2="22.2658" gradientUnits="userSpaceOnUse">
<stop stop-color="#628CFF"/>
<stop offset="1" stop-color="#0432AE"/>
</linearGradient>
<linearGradient id="paint3_linear" x1="6.72201" y1="18.2755" x2="2.36051" y2="15.5641" gradientUnits="userSpaceOnUse">
<stop stop-color="#FF6400"/>
<stop offset="1" stop-color="#FFB68D"/>
</linearGradient>
<linearGradient id="paint4_linear" x1="5.7619" y1="11.1426" x2="8.65687" y2="13.2404" gradientUnits="userSpaceOnUse">
<stop stop-color="#444444"/>
<stop offset="0.0001" stop-color="#757575"/>
<stop offset="1" stop-color="#0F0F0F"/>
</linearGradient>
</defs>
</svg>
