<svg width="13" height="13" viewBox="0 0 13 13" fill="none" xmlns="http://www.w3.org/2000/svg">
<path fill-rule="evenodd" clip-rule="evenodd" d="M10.7322 0.804221C10.4713 0.544426 10.0483 0.544427 9.78742 0.804221L8.31991 2.26549C8.05901 2.52528 8.05901 2.94649 8.31991 3.20628L9.78117 4.66133C10.0421 4.92113 10.4651 4.92113 10.726 4.66133L12.1935 3.20007C12.4544 2.94027 12.4544 2.51906 12.1935 2.25927L10.7322 0.804221ZM7.8709 3.73065C7.61 3.47086 7.18699 3.47086 6.92609 3.73065L0.81128 9.81947C0.540136 10.0895 0.398551 10.4624 0.422543 10.8435L0.48867 11.8938C0.509738 12.2285 0.777594 12.4952 1.11364 12.5161L2.16844 12.582C2.55114 12.6059 2.92571 12.4649 3.19685 12.1949L9.31166 6.10609C9.57257 5.84629 9.57257 5.42508 9.31166 5.16529L7.8709 3.73065Z" fill="#D6D8E7"/>
</svg>
