<svg width="16" height="17" viewBox="0 0 16 17" fill="none" xmlns="http://www.w3.org/2000/svg">
<path fill-rule="evenodd" clip-rule="evenodd" d="M14.6668 4.83331C14.6668 3.17646 13.3237 1.83331 11.6668 1.83331C10.01 1.83331 8.66683 3.17646 8.66683 4.83331C8.66683 5.98361 9.31423 6.9827 10.2645 7.48609C9.87771 8.25854 9.41284 9.03753 8.90411 9.6214C8.47831 10.1101 7.80631 10.5538 7.0656 10.9257C6.59354 9.88806 5.54777 9.16665 4.3335 9.16665C2.67664 9.16665 1.3335 10.5098 1.3335 12.1666C1.3335 13.8235 2.67664 15.1666 4.3335 15.1666C6.64002 15.1666 9.8379 13.3822 11.2976 11.7069C12.6526 10.1518 14.6668 6.99089 14.6668 4.83331Z" fill="#002EB4"/>
</svg>
