<svg width="16" height="17" viewBox="0 0 16 17" fill="none" xmlns="http://www.w3.org/2000/svg">
<path fill-rule="evenodd" clip-rule="evenodd" d="M14.6668 4.83398C14.6668 3.17713 13.3237 1.83398 11.6668 1.83398C10.01 1.83398 8.66683 3.17713 8.66683 4.83398C8.66683 5.98428 9.31423 6.98337 10.2645 7.48676C9.87771 8.25922 9.41284 9.03821 8.90411 9.62207C8.47831 10.1108 7.80631 10.5545 7.0656 10.9263C6.59354 9.88873 5.54777 9.16732 4.3335 9.16732C2.67664 9.16732 1.3335 10.5105 1.3335 12.1673C1.3335 13.8242 2.67664 15.1673 4.3335 15.1673C6.64002 15.1673 9.8379 13.3829 11.2976 11.7076C12.6526 10.1525 14.6668 6.99156 14.6668 4.83398Z" fill="#FF6400"/>
</svg>
