<svg width="28" height="28" viewBox="0 0 28 28" fill="none" xmlns="http://www.w3.org/2000/svg">
<path d="M6.47729 4.04688C5.74683 4.30859 5.38354 5.1875 5.7312 5.86719C5.82495 6.05469 6.11401 6.38281 6.18433 6.38281C6.19995 6.38281 6.22339 6.74609 6.23511 7.19141C6.25854 8.06641 6.30151 8.3125 6.49683 8.75391C6.63354 9.05469 6.80933 9.3125 7.05151 9.57031L7.23901 9.76953L6.82104 9.79297C6.58667 9.80469 6.27417 9.85156 6.11401 9.89844C5.18042 10.1602 4.43823 10.8711 4.12183 11.8008L4.01636 12.1055L4.00464 14.1914C3.99292 16.0547 4.00073 16.2969 4.05933 16.4766C4.31323 17.2461 4.93042 17.7773 5.67651 17.8633L5.89136 17.8867L5.90308 20.9414L5.91089 24H9.15308H12.3953V20.9531V17.9062L12.4851 17.8906C12.532 17.8828 12.6765 17.8555 12.8054 17.832C13.4539 17.7109 14.0203 17.1914 14.2546 16.5C14.325 16.3008 14.3289 16.1367 14.3289 14.2734C14.3289 12.2891 14.3289 12.2578 14.239 11.9531C14.0867 11.418 13.8718 11.0586 13.4695 10.6602C12.907 10.0977 12.321 9.83984 11.489 9.79297L11.0671 9.76953L11.3015 9.52344C11.8835 8.89844 12.0828 8.28516 12.0828 7.11719V6.45312L12.3093 6.23047C12.4773 6.07031 12.5632 5.95312 12.6218 5.78516C12.7351 5.48438 12.7351 5.09375 12.6257 4.80078C12.5164 4.50391 12.2039 4.19141 11.907 4.08203C11.6921 4 11.6375 4 9.14136 4.00391C7.44995 4.00391 6.55542 4.01953 6.47729 4.04688ZM11.6921 4.75C11.8796 4.84766 12.0437 5.09766 12.0437 5.28906C12.0437 5.46875 11.8796 5.73047 11.7117 5.82422L11.5554 5.91406H9.17651C6.84839 5.91406 6.78979 5.91406 6.62964 5.83203C6.1687 5.60938 6.17261 4.97266 6.63354 4.74219C6.78589 4.66797 6.87183 4.66406 9.15308 4.66406H11.5203L11.6921 4.75ZM11.1062 6.72266C10.9773 6.89062 10.6804 7.08203 10.4539 7.14844C10.2859 7.19922 10.0359 7.20703 9.06714 7.19531L7.88354 7.18359L7.6687 7.07812C7.55151 7.01953 7.37573 6.89062 7.27808 6.79297L7.1062 6.61719H9.14917H11.1882L11.1062 6.72266ZM7.27808 7.64844C7.66479 7.85156 7.81323 7.875 8.89917 7.89453C10.3054 7.92188 10.7429 7.85547 11.1921 7.55469L11.3601 7.44141L11.3718 7.625C11.407 8.10938 11.157 8.68359 10.7195 9.11328C10.0007 9.82812 9.00854 9.98047 8.12183 9.51562C7.43823 9.16016 6.93042 8.35156 6.92651 7.61719C6.92651 7.42969 6.92651 7.42969 7.01636 7.49219C7.06323 7.52734 7.18042 7.59766 7.27808 7.64844ZM7.34058 11.3633C7.53198 11.8477 7.70386 12.2422 7.71948 12.2422C7.73511 12.2422 7.90308 12.1406 8.09058 12.0117L8.43042 11.7852L8.2937 13.4375L8.16089 15.0938L8.64526 15.582C8.91479 15.8516 9.14917 16.0703 9.17261 16.0703C9.19604 16.0703 9.42651 15.8555 9.68823 15.5898L10.1648 15.1133L10.0242 13.4805C9.94995 12.582 9.89526 11.8359 9.90698 11.8242C9.9187 11.8164 10.0632 11.8945 10.2234 12.0039C10.3875 12.1172 10.5437 12.2148 10.571 12.2266C10.6062 12.2383 10.7273 11.9805 10.9734 11.3633L11.321 10.4844H11.5164C12.0125 10.4844 12.5593 10.7266 12.9656 11.1289C13.2898 11.4492 13.4539 11.7227 13.5632 12.125C13.6414 12.3984 13.6453 12.5156 13.6453 14.1641V15.9141H13.0203H12.3953V13.9805V12.0469H12.0632H11.7312V14.3125V16.5781H9.17261H6.61401V14.3125V12.0469H6.26245H5.91089V13.9805V15.9141H5.28198H4.65698L4.6687 14.0859L4.68042 12.2617L4.78198 12.0039C4.93433 11.6094 5.07886 11.3867 5.36011 11.1094C5.74683 10.7305 6.28589 10.4922 6.77417 10.4883L6.98901 10.4844L7.34058 11.3633ZM9.29761 14.9688L9.15308 15.1133L9.01245 14.9688L8.86792 14.8281L8.99292 13.3086C9.05933 12.4766 9.12573 11.7305 9.14136 11.6562C9.15698 11.5703 9.21948 12.1523 9.30542 13.1719L9.44214 14.8203L9.29761 14.9688ZM5.91089 16.9141V17.2148L5.74683 17.1875C5.43433 17.1367 5.0437 16.8984 4.93042 16.6914C4.89526 16.6211 4.9187 16.6172 5.40308 16.6172H5.91089V16.9141ZM13.4109 16.6523C13.4109 16.7148 13.0515 17.0156 12.8875 17.0859C12.7976 17.1289 12.6492 17.1719 12.5593 17.1875L12.3953 17.2148V16.9141V16.6172H12.9031C13.1843 16.6172 13.4109 16.6328 13.4109 16.6523ZM11.7312 19.6445V22.0469H10.6179H9.50464V20.2695V18.4922H9.15308H8.80151V20.2695V22.0469H7.70776H6.61401V19.6445V17.2422H9.17261H11.7312V19.6445ZM8.80151 23.0234V23.3359H7.70776H6.61401V23.0234V22.7109H7.70776H8.80151V23.0234ZM11.7312 23.0234V23.3359H10.6179H9.50464V23.0234V22.7109H10.6179H11.7312V23.0234Z" fill="#002EB4"/>
<path d="M19.9531 4.07428C19.543 4.22272 19.1875 4.53912 19.0156 4.9024C18.9648 5.01178 18.7344 5.86334 18.5039 6.79693L18.0781 8.49225H17.8164H17.5508V8.00396V7.51568H16.582C15.2734 7.51568 15.0352 7.56647 14.6875 7.91803C14.4141 8.19147 14.3281 8.41021 14.3281 8.82428C14.3281 9.12115 14.3438 9.211 14.4297 9.39068C14.5508 9.6485 14.7812 9.88678 15.0352 10.0157C15.2188 10.1094 15.2617 10.1133 16.1836 10.1329L17.1406 10.1524L17.3672 10.2696C17.4922 10.336 17.5898 10.4102 17.5898 10.4454C17.5898 10.4844 17.4648 10.5665 17.2656 10.668C16.0078 11.2891 15.1211 12.5704 14.9727 13.9805C14.9219 14.461 14.9219 19.5743 14.9727 19.8907C15.0742 20.5157 15.5156 21.004 16.1562 21.2032C16.2148 21.2227 16.2227 21.3008 16.2227 22.1172C16.2227 22.6094 16.2422 23.1094 16.2617 23.2227C16.3086 23.4805 16.4609 23.7071 16.6914 23.8633L16.8672 23.9805L18.4297 23.9922C19.4531 24.0001 20.0391 23.9922 20.1328 23.9649C20.3594 23.8985 20.6211 23.6407 20.7109 23.3907C20.7852 23.1993 20.793 23.0899 20.793 22.3008V21.4219H22.3945H23.9961V12.711V4.00006H22.0742C20.3164 4.00397 20.1328 4.00787 19.9531 4.07428ZM23.332 7.55475V10.4454H20.8164H18.3008L18.9453 7.88287C19.2969 6.47272 19.6133 5.26568 19.6445 5.19537C19.7656 4.961 19.9805 4.78131 20.2461 4.69928C20.3008 4.68365 21.0156 4.66803 21.8398 4.66803L23.332 4.66412V7.55475ZM16.8867 8.84381V9.46881H16.207C15.8203 9.46881 15.4766 9.44928 15.4141 9.42584C15.1445 9.32428 14.9375 8.98443 14.9961 8.73834C15.0391 8.55475 15.168 8.37506 15.3164 8.29693C15.4453 8.23053 15.5469 8.22271 16.1758 8.21881H16.8867V8.84381ZM23.332 14.3126V17.5118L20.6289 17.5235L17.9219 17.5352L17.6992 17.6251C17.4141 17.7383 17.1484 18.0001 17.0117 18.2891C16.9219 18.4766 16.9062 18.5665 16.9062 18.8438C16.9062 19.1212 16.9219 19.211 17.0078 19.3907C17.1328 19.6485 17.3438 19.8712 17.6094 20.0079L17.8047 20.1133L20.5703 20.1251L23.332 20.1368V20.4454V20.7579H21.0508C18.7617 20.7579 17.8047 20.7266 16.875 20.6172C16.1562 20.5352 15.9219 20.418 15.7383 20.0469L15.6367 19.8438V16.9688C15.6367 15.1329 15.6523 14.0079 15.6797 13.8594C15.8828 12.7032 16.668 11.6837 17.7227 11.2032L17.9219 11.1133H20.6289L23.332 11.1094V14.3126ZM23.332 18.8438V19.4688H20.7148C18.6016 19.4688 18.0703 19.4571 17.9688 19.4141C17.8008 19.3477 17.5898 19.1016 17.582 18.9688C17.5664 18.6329 17.6445 18.4571 17.8828 18.3126L18.0391 18.2188H20.6875H23.332V18.8438ZM17.4648 21.3633C17.5 21.3751 17.5117 21.6094 17.5117 22.3594V23.336H17.3203C17.1758 23.336 17.1094 23.3165 17.0273 23.2383L16.9258 23.1446V22.2266V21.3126L17.1719 21.3321C17.3047 21.3399 17.4375 21.3555 17.4648 21.3633ZM18.8008 21.9102V22.3985H19.1523H19.5039V21.9102V21.4219H19.7969H20.0898V22.2813V23.1446L19.9922 23.2383C19.918 23.3165 19.8594 23.336 19.6992 23.336H19.5039V23.1797V23.0235H19.1523H18.8008V23.1797V23.336H18.5078H18.2148V22.379V21.4219H18.5078H18.8008V21.9102Z" fill="#002EB4"/>
<path d="M18.001 12.121C17.3252 12.3163 16.8291 12.8085 16.6377 13.4609C16.5557 13.7421 16.5557 14.2577 16.6377 14.539C16.9268 15.5351 17.9893 16.1523 18.9697 15.8945C19.8643 15.664 20.4541 14.9062 20.4541 13.9999C20.4541 12.7148 19.2158 11.7656 18.001 12.121ZM18.9541 12.8241C19.2158 12.9218 19.3994 13.0702 19.5557 13.3085C19.8564 13.7695 19.8525 14.2304 19.5518 14.6913C19.2979 15.082 18.9229 15.2695 18.4385 15.2421C17.9619 15.2187 17.5674 14.9491 17.3604 14.5077C17.1611 14.0781 17.2549 13.4999 17.5791 13.1562C17.7119 13.0156 17.9463 12.8593 18.1182 12.7968C18.3096 12.7304 18.7393 12.7421 18.9541 12.8241Z" fill="#002EB4"/>
</svg>
