<svg width="16" height="16" viewBox="0 0 16 16" fill="none" xmlns="http://www.w3.org/2000/svg">
<path fill-rule="evenodd" clip-rule="evenodd" d="M2.3335 6.87842C2.3335 3.81185 4.89608 1.33325 7.99579 1.33325C11.1042 1.33325 13.6668 3.81185 13.6668 6.87842C13.6668 8.42371 13.1048 9.85834 12.1798 11.0743C11.1594 12.4156 9.9016 13.5842 8.48586 14.5015C8.16184 14.7135 7.86941 14.7295 7.5138 14.5015C6.08999 13.5842 4.83222 12.4156 3.8205 11.0743C2.89482 9.85834 2.3335 8.42371 2.3335 6.87842ZM6.12965 7.05109C6.12965 8.07839 6.96793 8.88637 7.99579 8.88637C9.02432 8.88637 9.87068 8.07839 9.87068 7.05109C9.87068 6.03178 9.02432 5.18447 7.99579 5.18447C6.96793 5.18447 6.12965 6.03178 6.12965 7.05109Z" fill="#ACABA8"/>
</svg>
