<svg width="72" height="72" viewBox="0 0 72 72" fill="none"
  xmlns="http://www.w3.org/2000/svg">
  <path d="M51 32.6667C51 44.3333 36 54.3333 36 54.3333C36 54.3333 21 44.3333 21 32.6667C21 28.6884 22.5804 24.8731 25.3934 22.0601C28.2064 19.247 32.0218 17.6667 36 17.6667C39.9782 17.6667 43.7936 19.247 46.6066 22.0601C49.4196 24.8731 51 28.6884 51 32.6667Z" fill="#0432AE" />
  <path d="M36 37.6667C38.7614 37.6667 41 35.4281 41 32.6667C41 29.9052 38.7614 27.6667 36 27.6667C33.2386 27.6667 31 29.9052 31 32.6667C31 35.4281 33.2386 37.6667 36 37.6667Z" fill="#D3E4FF" />
</svg>