<svg width="24" height="24" viewBox="0 0 24 24" fill="none" xmlns="http://www.w3.org/2000/svg">
<path fill-rule="evenodd" clip-rule="evenodd" d="M12.0624 21.3975C11.2606 21.4439 10.6063 20.8326 10.6009 20.0321L10.4955 4.13748C10.4902 3.33696 11.1359 2.65042 11.9378 2.60404C12.7396 2.55766 13.3939 3.16901 13.3992 3.96952L13.5047 19.8641C13.51 20.6646 12.8643 21.3512 12.0624 21.3975Z" fill="#FF6400"/>
<path fill-rule="evenodd" clip-rule="evenodd" d="M21.3969 11.9386C21.4433 12.7404 20.8319 13.3947 20.0314 13.4L4.13699 13.5053C3.33648 13.5106 2.64994 12.8649 2.60355 12.063C2.55716 11.2612 3.1685 10.6069 3.969 10.6016L19.8634 10.4963C20.664 10.491 21.3505 11.1368 21.3969 11.9386Z" fill="#FF6400"/>
</svg>
