<svg width="52" height="52" viewBox="0 0 52 52" fill="none"
  xmlns="http://www.w3.org/2000/svg">
  <path d="M31.8334 36.5V34.1667C31.8334 32.929 31.3417 31.742 30.4666 30.8668C29.5914 29.9917 28.4044 29.5 27.1667 29.5H17.8334C16.5957 29.5 15.4088 29.9917 14.5336 30.8668C13.6584 31.742 13.1667 32.929 13.1667 34.1667V36.5" fill="#0432AE" />
  <path d="M22.4999 24.8333C25.0772 24.8333 27.1666 22.744 27.1666 20.1667C27.1666 17.5893 25.0772 15.5 22.4999 15.5C19.9226 15.5 17.8333 17.5893 17.8333 20.1667C17.8333 22.744 19.9226 24.8333 22.4999 24.8333Z" fill="#0432AE" />
  <path d="M38.8333 36.5V34.1667C38.8325 33.1327 38.4883 32.1282 37.8548 31.311C37.2214 30.4938 36.3344 29.9102 35.3333 29.6517" stroke="#0432AE" strokeWidth="2" strokeLinecap="round" strokeLinejoin="round" />
  <path d="M30.6667 15.6517C31.6706 15.9087 32.5603 16.4925 33.1957 17.311C33.831 18.1296 34.1759 19.1363 34.1759 20.1725C34.1759 21.2087 33.831 22.2154 33.1957 23.034C32.5603 23.8525 31.6706 24.4363 30.6667 24.6933" stroke="#0432AE" strokeWidth="2" strokeLinecap="round" strokeLinejoin="round" />
</svg>