<svg width="52" height="52" viewBox="0 0 52 52" fill="none"
  xmlns="http://www.w3.org/2000/svg">
  <path d="M14.7968 17.2771C14.4973 17.6365 14.3333 18.0896 14.3333 18.5575V35.8334C14.3333 37.4902 15.6764 38.8334 17.3333 38.8334H34.6666C36.3234 38.8334 37.6666 37.4902 37.6666 35.8334V18.5575C37.6666 18.0896 37.5026 17.6365 37.203 17.2771L34.3774 13.8863C33.9974 13.4304 33.4345 13.1667 32.8409 13.1667H19.1589C18.5653 13.1667 18.0024 13.4304 17.6224 13.8863L14.7968 17.2771Z" fill="#EE6D2D" />
  <path d="M14.3333 18.4166H37.6666" stroke="#FFE7D5" strokeWidth="2" />
  <path d="M30.6666 23.6666C30.6666 26.244 28.5772 28.3333 25.9999 28.3333C23.4226 28.3333 21.3333 26.244 21.3333 23.6666" stroke="#FFE7D5" strokeWidth="2" strokeLinecap="round" />
</svg>