<svg width="24" height="24" viewBox="0 0 24 24" fill="none" xmlns="http://www.w3.org/2000/svg">
<g clip-path="url(#clip0)">
<path fill-rule="evenodd" clip-rule="evenodd" d="M10.3172 0.69864L8.5092 2.50504C8.36321 2.65109 8.1653 2.73336 7.9588 2.73384H5.114C3.7988 2.73384 2.7332 3.79944 2.7332 5.11464V7.95944C2.7332 8.16744 2.65 8.36424 2.5044 8.51144L0.6964 10.3178C0.250084 10.7643 -0.000640869 11.3698 -0.000640869 12.001C-0.000640869 12.6323 0.250084 13.2378 0.6964 13.6842L2.5044 15.4922C2.65045 15.6382 2.73272 15.8361 2.7332 16.0426V18.8874C2.7332 20.2026 3.7988 21.2682 5.114 21.2682H7.9588C8.1668 21.2682 8.3636 21.3514 8.5108 21.497L10.3172 23.305C10.7637 23.7514 11.3691 24.0021 12.0004 24.0021C12.6317 24.0021 13.2371 23.7514 13.6836 23.305L15.4916 21.497C15.6376 21.351 15.8355 21.2687 16.042 21.2682H18.8868C20.202 21.2682 21.2676 20.2026 21.2676 18.8874V16.0426C21.2676 15.8346 21.3508 15.6378 21.4964 15.4906L23.3044 13.6842C23.7507 13.2378 24.0014 12.6323 24.0014 12.001C24.0014 11.3698 23.7507 10.7643 23.3044 10.3178L21.4964 8.50984C21.3504 8.36385 21.2681 8.16595 21.2676 7.95944V5.11464C21.2676 3.79944 20.202 2.73384 18.8868 2.73384H16.042C15.8349 2.73378 15.6364 2.65148 15.49 2.50504L13.6836 0.69704C13.2371 0.250725 12.6317 0 12.0004 0C11.3691 0 10.7637 0.250725 10.3172 0.69704V0.69864ZM7.434 15.4346L15.434 7.43464L16.5668 8.56744L8.5668 16.5674L7.434 15.4346ZM8.0004 8.00104V9.60104H9.6004V8.00104H8.0004ZM14.4004 16.001H16.0004V14.401H14.4004V16.001Z" fill="#2C59D1"/>
</g>
<defs>
<clipPath id="clip0">
<rect width="24" height="24" fill="white"/>
</clipPath>
</defs>
</svg>
