<svg width="20" height="11" viewBox="0 0 20 11" fill="none" xmlns="http://www.w3.org/2000/svg">
<path fill-rule="evenodd" clip-rule="evenodd" d="M0 2C0 0.895431 0.895431 0 2 0H18C19.1046 0 20 0.895431 20 2V9C20 10.1046 19.1046 11 18 11H2C0.895431 11 0 10.1046 0 9V2ZM9.74372 3.24408C10.0854 3.56951 10.0854 4.09715 9.74372 4.42259L6.24372 7.75592C5.90201 8.08136 5.34799 8.08136 5.00628 7.75592L3.25628 6.08926C2.91457 5.76382 2.91457 5.23618 3.25628 4.91074C3.59799 4.58531 4.15201 4.58531 4.49372 4.91074L5.625 5.98816L8.50628 3.24408C8.84799 2.91864 9.40201 2.91864 9.74372 3.24408ZM13.5 8C13.2239 8 13 7.77614 13 7.5C13 7.22386 13.2239 7 13.5 7C13.7761 7 14 7.22386 14 7.5C14 7.77614 13.7761 8 13.5 8ZM13 9.5C13 9.77614 13.2239 10 13.5 10C13.7761 10 14 9.77614 14 9.5C14 9.22386 13.7761 9 13.5 9C13.2239 9 13 9.22386 13 9.5ZM13.5 6C13.2239 6 13 5.77614 13 5.5C13 5.22386 13.2239 5 13.5 5C13.7761 5 14 5.22386 14 5.5C14 5.77614 13.7761 6 13.5 6ZM13 3.5C13 3.77614 13.2239 4 13.5 4C13.7761 4 14 3.77614 14 3.5C14 3.22386 13.7761 3 13.5 3C13.2239 3 13 3.22386 13 3.5ZM13.5 2C13.2239 2 13 1.77614 13 1.5C13 1.22386 13.2239 1 13.5 1C13.7761 1 14 1.22386 14 1.5C14 1.77614 13.7761 2 13.5 2Z" fill="#FCFCFC"/>
</svg>
