<svg width="16" height="16" viewBox="0 0 16 16" fill="none" xmlns="http://www.w3.org/2000/svg">
<path fill-rule="evenodd" clip-rule="evenodd" d="M7.06502 1.72278L6.06077 2.72614C5.97968 2.80726 5.86976 2.85296 5.75505 2.85323H4.17491C3.44438 2.85323 2.8525 3.44511 2.8525 4.17564V5.75578C2.8525 5.87132 2.80628 5.98063 2.72541 6.06239L1.72116 7.06576C1.47325 7.31375 1.33398 7.65004 1.33398 8.00069C1.33398 8.35134 1.47325 8.68763 1.72116 8.93562L2.72541 9.93988C2.80653 10.021 2.85223 10.1309 2.8525 10.2456V11.8257C2.8525 12.5563 3.44438 13.1482 4.17491 13.1482H5.75505C5.87059 13.1482 5.9799 13.1944 6.06166 13.2752L7.06502 14.2795C7.31301 14.5274 7.64931 14.6667 7.99996 14.6667C8.35061 14.6667 8.6869 14.5274 8.93489 14.2795L9.93914 13.2752C10.0202 13.1941 10.1302 13.1484 10.2449 13.1482H11.825C12.5555 13.1482 13.1474 12.5563 13.1474 11.8257V10.2456C13.1474 10.1301 13.1936 10.0208 13.2745 9.93899L14.2788 8.93562C14.5267 8.68763 14.6659 8.35134 14.6659 8.00069C14.6659 7.65004 14.5267 7.31375 14.2788 7.06576L13.2745 6.0615C13.1934 5.98041 13.1477 5.87049 13.1474 5.75578V4.17564C13.1474 3.44511 12.5555 2.85323 11.825 2.85323H10.2449C10.1299 2.8532 10.0196 2.80748 9.93826 2.72614L8.93489 1.72189C8.6869 1.47398 8.35061 1.33472 7.99996 1.33472C7.64931 1.33472 7.31301 1.47398 7.06502 1.72189V1.72278ZM5.77772 6.33378C6.08449 6.33378 6.33317 6.0851 6.33317 5.77833C6.33317 5.47157 6.08449 5.22288 5.77772 5.22288C5.47095 5.22288 5.22227 5.47157 5.22227 5.77833C5.22227 6.0851 5.47095 6.33378 5.77772 6.33378ZM10.7768 10.2219C10.7768 10.5287 10.5281 10.7774 10.2213 10.7774C9.91455 10.7774 9.66587 10.5287 9.66587 10.2219C9.66587 9.91516 9.91455 9.66648 10.2213 9.66648C10.5281 9.66648 10.7768 9.91516 10.7768 10.2219ZM6.47548 10.3997C6.2098 10.6654 5.77905 10.6654 5.51337 10.3997C5.24768 10.134 5.24769 9.70329 5.51337 9.43761L9.44523 5.50575C9.71091 5.24007 10.1417 5.24007 10.4073 5.50575C10.673 5.77143 10.673 6.20218 10.4073 6.46786L6.47548 10.3997Z" fill="#FF6400"/>
</svg>
