<svg width="18" height="18" viewBox="0 0 18 18" fill="none" xmlns="http://www.w3.org/2000/svg">
<path fill-rule="evenodd" clip-rule="evenodd" d="M7.94888 1.93852L6.8191 3.0673C6.72787 3.15857 6.60421 3.20998 6.47517 3.21028H4.69751C3.87566 3.21028 3.20979 3.87615 3.20979 4.69799V6.47565C3.20979 6.60563 3.1578 6.72861 3.06682 6.82059L1.93703 7.94937C1.65814 8.22836 1.50146 8.60669 1.50146 9.00117C1.50146 9.39565 1.65814 9.77399 1.93703 10.053L3.06682 11.1828C3.15808 11.274 3.20949 11.3977 3.20979 11.5267V13.3044C3.20979 14.1262 3.87566 14.7921 4.69751 14.7921H6.47517C6.60514 14.7921 6.72812 14.8441 6.8201 14.935L7.94888 16.0648C8.22787 16.3437 8.6062 16.5004 9.00068 16.5004C9.39517 16.5004 9.7735 16.3437 10.0525 16.0648L11.1823 14.935C11.2735 14.8438 11.3972 14.7924 11.5262 14.7921H13.3039C14.1257 14.7921 14.7916 14.1262 14.7916 13.3044V11.5267C14.7916 11.3967 14.8436 11.2737 14.9346 11.1818L16.0643 10.053C16.3432 9.77399 16.4999 9.39565 16.4999 9.00117C16.4999 8.60669 16.3432 8.22836 16.0643 7.94937L14.9346 6.81959C14.8433 6.72836 14.7919 6.6047 14.7916 6.47565V4.69799C14.7916 3.87615 14.1257 3.21028 13.3039 3.21028H11.5262C11.3968 3.21024 11.2727 3.15881 11.1813 3.0673L10.0525 1.93752C9.7735 1.65863 9.39517 1.50195 9.00068 1.50195C8.6062 1.50195 8.22787 1.65863 7.94888 1.93752V1.93852ZM6.50067 7.1259C6.84578 7.1259 7.12555 6.84613 7.12555 6.50102C7.12555 6.15591 6.84578 5.87614 6.50067 5.87614C6.15556 5.87614 5.87579 6.15591 5.87579 6.50102C5.87579 6.84613 6.15556 7.1259 6.50067 7.1259ZM12.1246 11.5001C12.1246 11.8452 11.8448 12.1249 11.4997 12.1249C11.1546 12.1249 10.8748 11.8452 10.8748 11.5001C10.8748 11.155 11.1546 10.8752 11.4997 10.8752C11.8448 10.8752 12.1246 11.155 12.1246 11.5001ZM7.28565 11.7001C6.98676 11.999 6.50216 11.999 6.20327 11.7001C5.90438 11.4012 5.90438 10.9166 6.20327 10.6177L10.6266 6.19436C10.9255 5.89547 11.4101 5.89547 11.709 6.19436C12.0079 6.49325 12.0079 6.97785 11.709 7.27674L7.28565 11.7001Z" fill="#002EB4"/>
</svg>
