<svg width="60" height="60" viewBox="0 0 60 60" fill="none" xmlns="http://www.w3.org/2000/svg">
<rect width="60" height="60" rx="16" fill="#2C59D1"/>
<path fill-rule="evenodd" clip-rule="evenodd" d="M40 30C40 35.5228 35.5228 40 30 40C24.4772 40 20 35.5228 20 30C20 24.4772 24.4772 20 30 20C35.5228 20 40 24.4772 40 30ZM30.2 26.5C29.0941 26.5 28.5 27.3795 28.5 28C28.5 28.5523 28.0523 29 27.5 29C26.9477 29 26.5 28.5523 26.5 28C26.5 26.3605 27.9059 24.5 30.2 24.5C32.1208 24.5 34 25.7852 34 27.88C34 28.6616 33.6254 29.3877 33.2174 29.9393C32.795 30.5106 32.2438 31.0216 31.6929 31.3869C31.4828 31.5261 31.2905 31.7003 31.1599 31.8768C31.0273 32.0558 31 32.1783 31 32.24C31 32.7923 30.5523 33.24 30 33.24C29.4477 33.24 29 32.7923 29 32.24C29 31.6169 29.2574 31.0853 29.5524 30.6868C29.8492 30.2858 30.227 29.9591 30.5877 29.7199C30.9521 29.4783 31.3308 29.1268 31.6094 28.7501C31.9024 28.3538 32 28.0467 32 27.88C32 27.2148 31.372 26.5 30.2 26.5ZM30 36C30.5523 36 31 35.5523 31 35C31 34.4477 30.5523 34 30 34C29.4477 34 29 34.4477 29 35C29 35.5523 29.4477 36 30 36Z" fill="#FCFCFC"/>
</svg>
