<svg width="14" height="14" viewBox="0 0 14 14" fill="none" xmlns="http://www.w3.org/2000/svg">
<path fill-rule="evenodd" clip-rule="evenodd" d="M6.99998 13.6666C10.6819 13.6666 13.6666 10.6819 13.6666 6.99998C13.6666 3.31808 10.6819 0.333313 6.99998 0.333313C3.31808 0.333313 0.333313 3.31808 0.333313 6.99998C0.333313 10.6819 3.31808 13.6666 6.99998 13.6666ZM8.45277 4.16509C8.09358 3.83279 7.61372 3.66665 7.01319 3.66665C6.58103 3.66665 6.21061 3.75269 5.90193 3.92477C5.59886 4.09092 5.36875 4.31937 5.21161 4.61013C5.06007 4.90088 4.98992 5.22725 5.00114 5.58921H6.35654C6.35654 5.38153 6.41266 5.21835 6.52491 5.09967C6.63716 4.97506 6.7943 4.91275 6.99635 4.91275C7.18717 4.91275 7.3359 4.97209 7.44254 5.09077C7.54917 5.20944 7.60249 5.37262 7.60249 5.58031C7.60249 5.877 7.48744 6.08172 7.25733 6.19446C7.03283 6.3072 6.70451 6.36358 6.27235 6.36358H5.76723L5.80933 8.01912H7.07212L7.11421 7.35156C7.68106 7.34563 8.13567 7.18838 8.47803 6.87982C8.826 6.56533 8.99998 6.12919 8.99998 5.57141C8.99998 4.96616 8.81758 4.49738 8.45277 4.16509ZM5.83458 10.1019C5.99734 10.2562 6.205 10.3333 6.45756 10.3333C6.70451 10.3333 6.90655 10.2562 7.0637 10.1019C7.22646 9.94168 7.30784 9.74586 7.30784 9.51444C7.30784 9.27709 7.22646 9.07831 7.0637 8.91809C6.90655 8.75788 6.70451 8.67777 6.45756 8.67777C6.205 8.67777 5.99734 8.75788 5.83458 8.91809C5.67744 9.07831 5.59886 9.27709 5.59886 9.51444C5.59886 9.74586 5.67744 9.94168 5.83458 10.1019Z" fill="#D6D8E7"/>
</svg>