<svg width="24" height="24" viewBox="0 0 24 24" fill="none" xmlns="http://www.w3.org/2000/svg">
<path fill-rule="evenodd" clip-rule="evenodd" d="M22 12C22 17.5228 17.5228 22 12 22C6.47715 22 2 17.5228 2 12C2 6.47715 6.47715 2 12 2C17.5228 2 22 6.47715 22 12ZM12.2 8.5C11.0941 8.5 10.5 9.37947 10.5 10C10.5 10.5523 10.0523 11 9.5 11C8.94772 11 8.5 10.5523 8.5 10C8.5 8.36053 9.90586 6.5 12.2 6.5C14.1208 6.5 16 7.78524 16 9.88C16 10.6616 15.6254 11.3877 15.2174 11.9393C14.795 12.5106 14.2438 13.0216 13.6929 13.3869C13.4828 13.5261 13.2905 13.7003 13.1599 13.8768C13.0273 14.0558 13 14.1783 13 14.24C13 14.7923 12.5523 15.24 12 15.24C11.4477 15.24 11 14.7923 11 14.24C11 13.6169 11.2574 13.0853 11.5524 12.6868C11.8492 12.2858 12.227 11.9591 12.5877 11.7199C12.9521 11.4783 13.3308 11.1268 13.6094 10.7501C13.9024 10.3538 14 10.0467 14 9.88C14 9.21476 13.372 8.5 12.2 8.5ZM12 18C12.5523 18 13 17.5523 13 17C13 16.4477 12.5523 16 12 16C11.4477 16 11 16.4477 11 17C11 17.5523 11.4477 18 12 18Z" fill="#002EB4"/>
</svg>
