<svg width="12" height="13" viewBox="0 0 12 13" fill="none" xmlns="http://www.w3.org/2000/svg">
<path fill-rule="evenodd" clip-rule="evenodd" d="M4.72392 2.29188L5.32631 1.72085V1.72034C5.47506 1.57926 5.67678 1.5 5.88712 1.5C6.09745 1.5 6.29917 1.57926 6.44793 1.72034L7.04978 2.29188C7.09855 2.33817 7.16471 2.36419 7.2337 2.36421H8.18153C8.61972 2.36421 8.97476 2.70106 8.97476 3.11681V4.01609C8.97492 4.08137 9.00233 4.14393 9.05099 4.19008L9.65338 4.76162C9.80208 4.90275 9.88562 5.09414 9.88562 5.2937C9.88562 5.49326 9.80208 5.68465 9.65338 5.82578L9.05099 6.39681C9.00248 6.44334 8.97476 6.50556 8.97476 6.57131V6.69983L11.0001 9.96107L9.25078 10.1091L8.23827 11.4435L6.5677 8.75342L6.44793 8.86706C6.29917 9.00814 6.09745 9.0874 5.88712 9.0874C5.67678 9.0874 5.47506 9.00814 5.32631 8.86706L5.3002 8.84226L3.748 11.5001L2.72571 10.1452L1 9.99482L2.79947 6.91357V6.57131C2.79931 6.50603 2.7719 6.44347 2.72324 6.39732L2.12085 5.82578C1.97215 5.68465 1.88861 5.49326 1.88861 5.2937C1.88861 5.09414 1.97215 4.90275 2.12085 4.76162L2.72324 4.19059C2.77175 4.14406 2.79947 4.08184 2.79947 4.01609V3.11681C2.79947 2.70106 3.15451 2.36421 3.59271 2.36421H4.54054C4.60934 2.36405 4.67528 2.33805 4.72392 2.29188Z" fill="#FCFCFC"/>
</svg>
