<svg width="24" height="24" viewBox="0 0 24 24" fill="none" xmlns="http://www.w3.org/2000/svg">
<path fill-rule="evenodd" clip-rule="evenodd" d="M12.0111 7.83333C9.55412 7.83333 7.56234 9.92267 7.56234 12.5C7.56234 13.1443 7.0644 13.6667 6.45015 13.6667C5.8359 13.6667 5.33796 13.1443 5.33796 12.5C5.33796 8.63401 8.32563 5.5 12.0111 5.5C12.6253 5.5 13.1233 6.02233 13.1233 6.66667C13.1233 7.311 12.6253 7.83333 12.0111 7.83333Z" fill="#002EB4"/>
<path fill-rule="evenodd" clip-rule="evenodd" d="M12.01 16.1667C14.467 16.1667 16.4587 14.0773 16.4587 11.5C16.4587 10.8557 16.9567 10.3333 17.5709 10.3333C18.1852 10.3333 18.6831 10.8557 18.6831 11.5C18.6831 15.366 15.6954 18.5 12.01 18.5C11.3957 18.5 10.8978 17.9777 10.8978 17.3333C10.8978 16.689 11.3957 16.1667 12.01 16.1667Z" fill="#002EB4"/>
<path fill-rule="evenodd" clip-rule="evenodd" d="M18.3331 11.4137C17.9194 10.9027 17.2025 10.8349 16.7319 11.2622L15.0016 12.8335C14.531 13.2609 13.8142 13.1931 13.4004 12.6821C12.9867 12.1711 13.0328 11.4104 13.5033 10.983L15.2336 9.4117C16.6454 8.12966 18.796 8.33319 20.0372 9.86629L21.5587 11.7456C21.9724 12.2566 21.9263 13.0173 21.4557 13.4446C20.9851 13.8719 20.2683 13.8041 19.8546 13.293L18.3331 11.4137Z" fill="#002EB4"/>
<path fill-rule="evenodd" clip-rule="evenodd" d="M5.66694 12.3269C6.08066 12.8379 6.79755 12.9057 7.26813 12.4784L8.99844 10.9071C9.469 10.4797 10.1859 10.5475 10.5996 11.0585C11.0133 11.5695 10.9673 12.3302 10.4967 12.7576L8.7664 14.3289C7.35467 15.6109 5.204 15.4074 3.96281 13.8743L2.44136 11.995C2.02764 11.484 2.07374 10.7233 2.54432 10.296C3.0149 9.86869 3.73177 9.93655 4.14548 10.4476L5.66694 12.3269Z" fill="#002EB4"/>
</svg>
