<svg width="16" height="16" viewBox="0 0 16 16" fill="none" xmlns="http://www.w3.org/2000/svg">
<path fill-rule="evenodd" clip-rule="evenodd" d="M6.29872 2.38982L7.10191 1.62845V1.62778C7.30024 1.43966 7.56921 1.33398 7.84965 1.33398C8.1301 1.33398 8.39906 1.43966 8.5974 1.62778L9.39987 2.38982C9.4649 2.45155 9.55311 2.48623 9.64509 2.48626H10.9089C11.4931 2.48626 11.9665 2.93539 11.9665 3.48973V4.68877C11.9667 4.77581 12.0033 4.85923 12.0682 4.92076L12.8713 5.68281C13.0696 5.87098 13.181 6.12617 13.181 6.39225C13.181 6.65833 13.0696 6.91352 12.8713 7.1017L12.0682 7.86307C12.0035 7.92511 11.9665 8.00806 11.9665 8.09573V8.2671L14.6669 12.6154L12.3345 12.8127L10.9845 14.5919L8.75709 11.0052L8.5974 11.1567C8.39906 11.3448 8.1301 11.4505 7.84965 11.4505C7.56921 11.4505 7.30024 11.3448 7.10191 11.1567L7.0671 11.1237L4.99749 14.6675L3.63444 12.861L1.3335 12.6604L3.73279 8.55208V8.09573C3.73258 8.00869 3.69603 7.92528 3.63115 7.86374L2.82797 7.1017C2.62969 6.91352 2.51831 6.65833 2.51831 6.39225C2.51831 6.12617 2.62969 5.87098 2.82797 5.68281L3.63115 4.92143C3.69583 4.85939 3.73279 4.77644 3.73279 4.68877V3.48973C3.73279 2.93539 4.20618 2.48626 4.79044 2.48626H6.05421C6.14595 2.48606 6.23387 2.45138 6.29872 2.38982Z" fill="#FF6400"/>
</svg>
