<svg width="16" height="16" viewBox="0 0 16 16" fill="none" xmlns="http://www.w3.org/2000/svg">
<path fill-rule="evenodd" clip-rule="evenodd" d="M2 8C2 7.44772 2.4592 7 3.02564 7H12.9744C13.5408 7 14 7.44772 14 8C14 8.55228 13.5408 9 12.9744 9H3.02564C2.4592 9 2 8.55228 2 8Z" fill="#6E7191"/>
<path fill-rule="evenodd" clip-rule="evenodd" d="M8.30101 2.94363C8.70235 2.57608 9.35306 2.57608 9.75441 2.94363L13.097 6.00477C14.301 7.10742 14.301 8.89518 13.097 9.99784L9.75441 13.059C9.35306 13.4265 8.70235 13.4265 8.30101 13.059C7.89966 12.6914 7.89966 12.0955 8.30101 11.7279L11.6436 8.66681C12.0449 8.29926 12.0449 7.70334 11.6436 7.33579L8.30101 4.27466C7.89966 3.90711 7.89966 3.31119 8.30101 2.94363Z" fill="#6E7191"/>
</svg>
