<svg width="24" height="24" viewBox="0 0 24 24" fill="none" xmlns="http://www.w3.org/2000/svg">
<path fill-rule="evenodd" clip-rule="evenodd" d="M16 11C16 13.7614 13.7614 16 11 16C8.23858 16 6 13.7614 6 11C6 8.23858 8.23858 6 11 6C13.7614 6 16 8.23858 16 11ZM15.7915 18.6199C14.404 19.4942 12.7611 20 11 20C6.02944 20 2 15.9706 2 11C2 6.02944 6.02944 2 11 2C15.9706 2 20 6.02944 20 11C20 12.7611 19.4942 14.404 18.6199 15.7915L21.4142 18.5858C22.1953 19.3668 22.1953 20.6332 21.4142 21.4142C20.6332 22.1953 19.3668 22.1953 18.5858 21.4142L15.7915 18.6199Z" fill="#14142B"/>
</svg>
