<svg width="14" height="14" viewBox="0 0 14 14" fill="none" xmlns="http://www.w3.org/2000/svg">
<path fill-rule="evenodd" clip-rule="evenodd" d="M2.46217 2.91293C1.34188 3.70042 0.667969 5.03318 0.667969 6.46124V9.41281C0.667969 11.7619 2.45878 13.6663 4.66786 13.6663H10.001C12.2101 13.6663 14.0009 11.7619 14.0009 9.41281V6.46124C14.0009 5.03318 13.327 3.70042 12.2067 2.91293L9.54014 1.03849C8.20259 0.0982751 6.46631 0.0982753 5.12876 1.03849L2.46217 2.91293ZM8.13986 5.64459C8.13986 5.53441 8.18306 5.42863 8.26018 5.34994L8.26439 5.34573L9.84709 3.76303C9.37936 3.55137 8.85823 3.48729 8.35315 3.57931C7.84807 3.67134 7.38303 3.91511 7.02 4.27814C6.65698 4.64116 6.41321 5.1062 6.32118 5.61128C6.22916 6.11636 6.29324 6.63749 6.5049 7.10523L3.59627 10.0139C3.42881 10.1813 3.33474 10.4084 3.33474 10.6453C3.33474 10.8821 3.42881 11.1092 3.59627 11.2767C3.76373 11.4441 3.99085 11.5382 4.22767 11.5382C4.46449 11.5382 4.69161 11.4441 4.85906 11.2767L7.7677 8.36802C8.23543 8.57968 8.75656 8.64376 9.26164 8.55174C9.76672 8.45971 10.2318 8.21594 10.5948 7.85292C10.9578 7.48989 11.2016 7.02485 11.2936 6.51977C11.3856 6.01469 11.3215 5.49356 11.1099 5.02583L9.52298 6.61274C9.44429 6.68986 9.3385 6.73306 9.22832 6.73306C9.11815 6.73306 9.01236 6.68986 8.93367 6.61274L8.26018 5.93925C8.18306 5.86056 8.13986 5.75477 8.13986 5.64459Z" fill="#FF6400"/>
</svg>
