<svg width="16" height="16" viewBox="0 0 16 16" fill="none" xmlns="http://www.w3.org/2000/svg">
<path fill-rule="evenodd" clip-rule="evenodd" d="M10.6666 6.66668C12.1393 6.66668 13.3333 5.47277 13.3333 4.00001C13.3333 2.52725 12.1393 1.33334 10.6666 1.33334C9.19383 1.33334 7.99992 2.52725 7.99992 4.00001C7.99992 4.26306 8.03801 4.51721 8.10896 4.75725L5.87104 6.1C5.38966 5.62589 4.72895 5.33334 3.99992 5.33334C2.52716 5.33334 1.33325 6.52725 1.33325 8.00001C1.33325 9.47277 2.52716 10.6667 3.99992 10.6667C4.72892 10.6667 5.3896 10.3742 5.87098 9.90008L8.10894 11.2429C8.038 11.4829 7.99992 11.737 7.99992 12C7.99992 13.4728 9.19383 14.6667 10.6666 14.6667C12.1393 14.6667 13.3333 13.4728 13.3333 12C13.3333 10.5273 12.1393 9.33334 10.6666 9.33334C9.9376 9.33334 9.27694 9.62585 8.79556 10.0999L6.55758 8.75711C6.62851 8.51711 6.66659 8.26301 6.66659 8.00001C6.66659 7.73704 6.62852 7.48296 6.5576 7.24299L8.79562 5.90017C9.27699 6.37419 9.93763 6.66668 10.6666 6.66668Z" fill="#002EB4"/>
</svg>
