<svg width="18" height="20" viewBox="0 0 18 20" fill="none" xmlns="http://www.w3.org/2000/svg">
<path fill-rule="evenodd" clip-rule="evenodd" d="M14 8C16.2091 8 18 6.20914 18 4C18 1.79086 16.2091 0 14 0C11.7909 0 10 1.79086 10 4C10 4.39457 10.0571 4.7758 10.1636 5.13586L6.80668 7.14999C6.08461 6.43883 5.09355 6 4 6C1.79086 6 0 7.79086 0 10C0 12.2091 1.79086 14 4 14C5.0935 14 6.08452 13.5612 6.80659 12.8501L10.1635 14.8643C10.0571 15.2243 10 15.6055 10 16C10 18.2091 11.7909 20 14 20C16.2091 20 18 18.2091 18 16C18 13.7909 16.2091 12 14 12C12.9065 12 11.9155 12.4388 11.1935 13.1498L7.83649 11.1357C7.94289 10.7757 8 10.3945 8 10C8 9.60555 7.9429 9.22443 7.83653 8.86446L11.1936 6.85024C11.9156 7.56127 12.9066 8 14 8Z" fill="#676765"/>
</svg>
