<svg width="12" height="13" viewBox="0 0 12 13" fill="none" xmlns="http://www.w3.org/2000/svg">
<path fill-rule="evenodd" clip-rule="evenodd" d="M11.4002 3.2C11.4002 4.69117 10.1913 5.9 8.70012 5.9C8.2253 5.9 7.7791 5.77743 7.39144 5.56221L5.99879 6.41326C5.9997 6.44211 6.00016 6.47106 6.00016 6.50013C6.00016 6.52902 5.99971 6.55779 5.99881 6.58646L7.39162 7.43762C7.77924 7.22246 8.22537 7.09994 8.70012 7.09994C10.1913 7.09994 11.4002 8.30877 11.4002 9.79993C11.4002 11.2911 10.1913 12.4999 8.70012 12.4999C7.20894 12.4999 6.00009 11.2911 6.00009 9.79993C6.00009 9.77094 6.00055 9.74204 6.00146 9.71326L4.60893 8.86228C4.22124 9.07754 3.775 9.20013 3.30013 9.20013C1.80894 9.20013 0.600098 7.9913 0.600098 6.50013C0.600098 5.00896 1.80894 3.80013 3.30013 3.80013C3.77481 3.80013 4.22088 3.92262 4.60846 4.13772L6.00145 3.28646C6.00055 3.25775 6.00009 3.22893 6.00009 3.2C6.00009 1.70883 7.20894 0.5 8.70012 0.5C10.1913 0.5 11.4002 1.70883 11.4002 3.2Z" fill="#FF6400"/>
</svg>
