<svg width="16" height="16" viewBox="0 0 16 16" fill="none" xmlns="http://www.w3.org/2000/svg">
<path d="M7.35016 2.02524C7.64964 1.54692 8.35068 1.54693 8.65016 2.02524L10.4002 4.82029C10.5056 4.98858 10.673 5.10935 10.8667 5.15686L14.0844 5.94591C14.635 6.08094 14.8517 6.74302 14.4861 7.17367L12.35 9.69016C12.2214 9.84168 12.1574 10.0371 12.1718 10.2347L12.4104 13.5174C12.4513 14.0792 11.8841 14.4884 11.3587 14.2762L8.28848 13.0365C8.10362 12.9618 7.89671 12.9618 7.71185 13.0365L4.64163 14.2762C4.11622 14.4884 3.54907 14.0792 3.58991 13.5174L3.82852 10.2347C3.84289 10.0371 3.77895 9.84168 3.65034 9.69016L1.51422 7.17367C1.14866 6.74302 1.3653 6.08094 1.91594 5.94591L5.13363 5.15686C5.32737 5.10935 5.49477 4.98858 5.60014 4.82029L7.35016 2.02524Z" fill="#F4B740"/>
</svg>
