<svg width="14" height="14" viewBox="0 0 14 14" fill="none" xmlns="http://www.w3.org/2000/svg">
<path d="M6.34967 1.02475C6.64916 0.546436 7.35019 0.546437 7.64968 1.02475L9.3997 3.8198C9.50507 3.98809 9.67246 4.10886 9.8662 4.15637L13.0839 4.94542C13.6345 5.08046 13.8512 5.74254 13.4856 6.17318L11.3495 8.68967C11.2209 8.84119 11.1569 9.0366 11.1713 9.23425L11.4099 12.517C11.4508 13.0787 10.8836 13.4879 10.3582 13.2758L7.28799 12.036C7.10313 11.9613 6.89622 11.9613 6.71136 12.036L3.64114 13.2758C3.11573 13.4879 2.54858 13.0787 2.58942 12.517L2.82804 9.23425C2.8424 9.0366 2.77847 8.84119 2.64985 8.68967L0.513729 6.17318C0.148174 5.74253 0.364808 5.08046 0.915453 4.94542L4.13315 4.15637C4.32689 4.10886 4.49428 3.98809 4.59965 3.8198L6.34967 1.02475Z" fill="#FF6400"/>
</svg>
