<svg width="24" height="24" viewBox="0 0 24 24" fill="none" xmlns="http://www.w3.org/2000/svg">
<path d="M11.025 3.03811C11.4742 2.32063 12.5258 2.32063 12.975 3.03811L15.6 7.23068C15.7581 7.48311 16.0092 7.66427 16.2998 7.73553L21.1263 8.91911C21.9523 9.12166 22.2772 10.1148 21.7289 10.7608L18.5247 14.5355C18.3318 14.7628 18.2359 15.0559 18.2575 15.3524L18.6154 20.2764C18.6766 21.1191 17.8259 21.7329 17.0378 21.4146L12.4325 19.555C12.1552 19.443 11.8448 19.443 11.5675 19.555L6.9622 21.4146C6.17409 21.7329 5.32336 21.1191 5.38461 20.2764L5.74254 15.3524C5.76409 15.0559 5.66819 14.7628 5.47526 14.5355L2.27108 10.7607C1.72275 10.1148 2.0477 9.12166 2.87367 8.91911L7.70021 7.73553C7.99082 7.66427 8.24191 7.48311 8.39996 7.23067L11.025 3.03811Z" fill="#002EB4"/>
</svg>
