<svg width="30" height="30" viewBox="0 0 30 30" fill="none" xmlns="http://www.w3.org/2000/svg">
<path d="M10.5377 4.35638C10.1024 4.51542 9.78436 4.8042 9.57092 5.23947C9.46628 5.45292 9.45791 5.51151 9.44536 6.12675C9.42862 6.74198 9.4328 6.78383 9.51651 6.86754C9.62951 6.98054 9.90574 6.98891 10.0187 6.87591C10.0815 6.81313 10.0983 6.71268 10.115 6.2816C10.1401 5.70403 10.1945 5.5157 10.4122 5.28969C10.4875 5.21017 10.6214 5.10972 10.7135 5.0595L10.8809 4.96742H14.0826C16.6859 4.96742 17.3137 4.97998 17.4476 5.02602C17.6694 5.10135 17.9289 5.34828 18.0335 5.57429C18.1214 5.75844 18.1214 5.81703 18.1423 9.64655C18.1633 13.4342 18.1675 13.5347 18.2428 13.5933C18.3642 13.6812 18.6278 13.6686 18.7283 13.5682C18.8036 13.4928 18.812 13.4259 18.812 12.7813L18.8162 12.0824L20.6786 13.9574C22.6708 15.9621 22.6917 15.9872 22.788 16.4978C22.8131 16.636 22.8298 18.1217 22.8298 20.4571C22.8298 24.1443 22.8298 24.1987 22.9135 24.2824C23.0266 24.3954 23.3028 24.3954 23.4158 24.2824C23.4995 24.1987 23.4995 24.1443 23.4995 20.2437C23.4995 16.343 23.4995 16.2802 23.4116 16.0291C23.3656 15.8868 23.2777 15.6817 23.2191 15.5771C23.1521 15.4641 22.2606 14.5349 20.9632 13.2333L18.812 11.0779L18.8036 8.27379L18.7911 5.46966L18.6697 5.21854C18.5106 4.89628 18.1926 4.5782 17.8703 4.41916L17.6192 4.29778L14.1873 4.28941C10.9228 4.28104 10.7428 4.28104 10.5377 4.35638Z" fill="#002EB4"/>
<path d="M12.8689 5.69995C12.8145 5.75436 12.7852 5.83807 12.7852 5.95107C12.7852 6.06407 12.8145 6.14777 12.8689 6.20218C12.9484 6.2817 13.007 6.28589 14.1244 6.28589C15.2419 6.28589 15.3005 6.2817 15.38 6.20218C15.4344 6.14777 15.4637 6.06407 15.4637 5.95107C15.4637 5.83807 15.4344 5.75436 15.38 5.69995C15.3005 5.62043 15.2419 5.61625 14.1244 5.61625C13.007 5.61625 12.9484 5.62043 12.8689 5.69995Z" fill="#002EB4"/>
<path d="M8.93087 7.7087C8.28634 7.86774 7.73388 8.1942 7.2735 8.68806C6.92194 9.06892 6.74616 9.3577 6.57875 9.83064C6.46993 10.1445 6.449 10.2743 6.43226 10.7221C6.41971 11.0946 6.43226 11.3499 6.48249 11.6052C6.72523 12.8943 7.64181 14.606 8.99783 16.2969C9.53773 16.9707 9.56703 17 9.77211 17C9.97718 17 10.0065 16.9707 10.5464 16.2969C11.9024 14.606 12.819 12.8943 13.0617 11.6052C13.112 11.3499 13.1245 11.0946 13.112 10.7221C13.0952 10.2743 13.0743 10.1445 12.9655 9.83064C12.8022 9.36607 12.6265 9.0731 12.2875 8.7048C11.8103 8.19001 11.2704 7.86774 10.5966 7.7087C10.1404 7.59989 9.37869 7.59989 8.93087 7.7087ZM10.4208 8.40346C11.1658 8.58343 11.8271 9.1024 12.1619 9.76786C12.7018 10.8351 12.3628 12.2916 11.1281 14.2461C10.7724 14.8027 9.8307 16.0792 9.77629 16.0792C9.7177 16.0792 8.90157 14.9911 8.52908 14.4177C7.20654 12.3962 6.82986 10.8644 7.38232 9.76786C7.93059 8.67969 9.20291 8.11049 10.4208 8.40346Z" fill="#002EB4"/>
<path d="M9.19894 9.3787C8.75949 9.54192 8.44559 9.82652 8.23214 10.2618C8.12751 10.4711 8.11914 10.5338 8.11914 10.9733C8.11914 11.4211 8.12751 11.4713 8.24051 11.7057C8.39955 12.028 8.71763 12.3461 9.0399 12.5051C9.27427 12.6181 9.3245 12.6265 9.77232 12.6265C10.2201 12.6265 10.2704 12.6181 10.5047 12.5051C10.827 12.3461 11.1451 12.028 11.3041 11.7057C11.4171 11.4713 11.4255 11.4211 11.4255 10.9733C11.4255 10.5255 11.4171 10.4752 11.3041 10.2409C11.1451 9.9186 10.827 9.60052 10.5047 9.44566C10.2871 9.33684 10.1992 9.3201 9.8351 9.30755C9.50446 9.29918 9.37054 9.31592 9.19894 9.3787ZM10.1406 10.0776C10.4964 10.2241 10.7349 10.5799 10.7349 10.9733C10.7349 11.5132 10.3122 11.9359 9.77232 11.9359C9.23242 11.9359 8.80971 11.5132 8.80971 10.9733C8.80971 10.5966 9.02316 10.266 9.37472 10.0818C9.53795 9.99393 9.93973 9.99393 10.1406 10.0776Z" fill="#002EB4"/>
<path d="M16.5904 13.1078C16.3267 13.3883 16.1049 13.7273 15.9501 14.0872C15.8287 14.3676 15.8203 14.4178 15.8203 14.9075C15.8203 15.4265 15.8203 15.4349 15.9794 15.7613C16.1258 16.0668 16.2095 16.1673 16.9754 16.9416L17.8167 17.787L17.7246 18.0716C17.5949 18.4692 17.5656 19.1388 17.6576 19.5322C17.7539 19.934 17.9967 20.4111 18.2352 20.6581C18.4194 20.8506 18.4403 20.859 18.591 20.838C18.9174 20.7836 18.9927 20.4865 18.7542 20.1768C18.2687 19.5364 18.1724 18.7328 18.5031 18.0758C18.7081 17.6656 18.7207 17.6907 17.6702 16.6277C16.5611 15.506 16.4941 15.4056 16.5151 14.874C16.5276 14.5978 16.5569 14.5015 16.6867 14.2337C16.9671 13.6812 16.8039 13.6059 18.1515 14.9159C20.8719 17.5568 20.6292 17.335 20.8175 17.335C21.0477 17.335 21.1565 17.2261 21.1565 17.0001C21.1565 16.7951 21.3072 16.9583 19.3987 15.1126C18.6035 14.3467 17.7665 13.5347 17.5321 13.3087C17.147 12.9362 17.0968 12.8986 16.9461 12.8986C16.808 12.8986 16.762 12.9279 16.5904 13.1078Z" fill="#002EB4"/>
<path d="M9.51651 17.7577C9.4328 17.8414 9.42862 17.8832 9.44536 18.4984C9.45791 19.1262 9.4621 19.1681 9.57929 19.4067C9.73833 19.7289 10.0564 20.047 10.3787 20.206L10.6298 20.3274L13.798 20.34C16.9328 20.3483 16.9705 20.3483 17.0542 20.2646C17.1546 20.1642 17.1672 19.9047 17.0793 19.7791C17.0207 19.7038 16.9286 19.6996 13.9696 19.6787C10.5879 19.6536 10.7595 19.6703 10.4456 19.3732C10.2071 19.1472 10.1359 18.9295 10.115 18.3436C10.0983 17.9125 10.0815 17.8121 10.0187 17.7493C9.90574 17.6363 9.62951 17.6447 9.51651 17.7577Z" fill="#002EB4"/>
<path d="M13.5388 18.4231C13.4844 18.4775 13.4551 18.5612 13.4551 18.6742C13.4551 18.9672 13.5388 19.009 14.1247 19.009C14.7107 19.009 14.7944 18.9672 14.7944 18.6742C14.7944 18.3812 14.7107 18.3394 14.1247 18.3394C13.6769 18.3394 13.6141 18.3478 13.5388 18.4231Z" fill="#002EB4"/>
<path d="M15.9445 20.7877C15.8691 20.8589 15.8398 20.9342 15.8398 21.0472C15.8398 21.1812 15.8691 21.2314 16.07 21.4155C16.1956 21.5369 16.4132 21.6959 16.5513 21.7755L16.7983 21.9178L16.8025 23.0562C16.8025 24.1401 16.8066 24.2029 16.8862 24.2824C16.9992 24.3954 17.2754 24.3954 17.3884 24.2824C17.4679 24.2029 17.4721 24.1443 17.4721 22.8678C17.4721 21.8634 17.4595 21.5202 17.4219 21.4699C17.3926 21.4365 17.2461 21.3402 17.0954 21.2565C16.9448 21.177 16.7355 21.0347 16.635 20.9426C16.3002 20.6496 16.1203 20.6078 15.9445 20.7877Z" fill="#002EB4"/>
</svg>
