<svg width="32" height="32" viewBox="0 0 32 32" fill="none" xmlns="http://www.w3.org/2000/svg">
<path fill-rule="evenodd" clip-rule="evenodd" d="M16 29.3334C16 29.3334 26.6667 21.8911 26.6667 13.3334C26.6667 12.7166 26.6143 12.112 26.5138 11.5238L12.0558 25.9818C14.1869 28.0684 16 29.3334 16 29.3334ZM24.5905 7.00918C22.6482 4.37532 19.5236 2.66675 16 2.66675C10.109 2.66675 5.33333 7.44238 5.33333 13.3334C5.33333 16.72 7.00381 19.9319 9.02263 22.5771L4.9428 26.6569C4.4221 27.1776 4.4221 28.0218 4.9428 28.5425C5.4635 29.0632 6.30772 29.0632 6.82842 28.5425L29.8757 5.49518C30.3964 4.97448 30.3964 4.13026 29.8757 3.60956C29.355 3.08886 28.5108 3.08886 27.9901 3.60956L24.5905 7.00918ZM14.5408 17.0589C13.0533 16.4758 12 15.0276 12 13.3334C12 11.1243 13.7909 9.33342 16 9.33342C17.6942 9.33342 19.1424 10.3867 19.7255 11.8742L14.5408 17.0589Z" fill="#14142A"/>
</svg>
