<svg width="16" height="16" viewBox="0 0 16 16" fill="none" xmlns="http://www.w3.org/2000/svg">
<path d="M12.2082 4.66634C12.2082 6.50729 10.7158 7.99968 8.87484 7.99968C7.03389 7.99968 5.5415 6.50729 5.5415 4.66634C5.5415 2.82539 7.03389 1.33301 8.87484 1.33301C10.7158 1.33301 12.2082 2.82539 12.2082 4.66634Z" fill="#002EB4"/>
<path fill-rule="evenodd" clip-rule="evenodd" d="M4.29151 4.66602C4.29151 3.97566 3.73186 3.41602 3.0415 3.41602C2.35115 3.41602 1.7915 3.97566 1.7915 4.66602V5.0826C1.7915 6.93363 2.59619 8.59676 3.87484 9.74121V12.166C3.87484 13.5467 4.99413 14.666 6.37484 14.666H12.2082C13.1287 14.666 13.8748 13.9198 13.8748 12.9994V12.166C13.8748 10.3251 12.3825 8.83269 10.5415 8.83269H8.45818H8.04151C5.97047 8.83269 4.29151 7.1537 4.29151 5.0826V4.66602Z" fill="#002EB4"/>
</svg>
