<svg width="48" height="48" viewBox="0 0 48 48" fill="none" xmlns="http://www.w3.org/2000/svg">
<path fill-rule="evenodd" clip-rule="evenodd" d="M19 24C23.9706 24 28 19.9706 28 15C28 10.0294 23.9706 6 19 6C14.0294 6 10 10.0294 10 15C10 19.9706 14.0294 24 19 24ZM40 38L36 38V34C36 29.7489 33.7895 26.0141 30.4551 23.8823H36C40.4183 23.8823 44 27.464 44 31.8823V34C44 36.2091 42.2091 38 40 38ZM30.448 21.1651C31.4381 19.3305 32 17.2309 32 15C32 12.8051 31.4561 10.7373 30.4956 8.92392C31.4835 8.33596 32.6272 8 33.8461 8C37.5847 8 40.6154 11.1603 40.6154 15.0588C40.6154 18.9573 37.5847 22.1176 33.8461 22.1176C32.6076 22.1176 31.4467 21.7708 30.448 21.1651ZM12 26C7.58172 26 4 29.5817 4 34V38C4 40.2091 5.79086 42 8 42H28C30.2091 42 32 40.2091 32 38V34C32 29.5817 28.4183 26 24 26H12Z" fill="#FF6400"/>
</svg>
