<svg width="24" height="24" viewBox="0 0 24 24" fill="none" xmlns="http://www.w3.org/2000/svg">
<path fill-rule="evenodd" clip-rule="evenodd" d="M10.5985 2.58404L9.09213 4.08909C8.9705 4.21077 8.80561 4.27932 8.63356 4.27972H6.26334C5.16755 4.27972 4.27972 5.16755 4.27972 6.26334V8.63356C4.27972 8.80686 4.2104 8.97082 4.08909 9.09347L2.58271 10.5985C2.21085 10.9705 2.00195 11.4749 2.00195 12.0009C2.00195 12.5269 2.21085 13.0313 2.58271 13.4033L4.08909 14.9097C4.21077 15.0313 4.27932 15.1962 4.27972 15.3683V17.7385C4.27972 18.8343 5.16755 19.7221 6.26334 19.7221H8.63356C8.80686 19.7221 8.97082 19.7914 9.09347 19.9127L10.5985 21.4191C10.9705 21.791 11.4749 21.9999 12.0009 21.9999C12.5269 21.9999 13.0313 21.791 13.4033 21.4191L14.9097 19.9127C15.0313 19.7911 15.1962 19.7225 15.3683 19.7221H17.7385C18.8343 19.7221 19.7221 18.8343 19.7221 17.7385V15.3683C19.7221 15.195 19.7914 15.031 19.9127 14.9084L21.4191 13.4033C21.791 13.0313 21.9999 12.5269 21.9999 12.0009C21.9999 11.4749 21.791 10.9705 21.4191 10.5985L19.9127 9.09213C19.7911 8.9705 19.7225 8.80561 19.7221 8.63356V6.26334C19.7221 5.16755 18.8343 4.27972 17.7385 4.27972H15.3683C15.1958 4.27967 15.0303 4.2111 14.9084 4.08909L13.4033 2.58271C13.0313 2.21085 12.5269 2.00195 12.0009 2.00195C11.4749 2.00195 10.9705 2.21085 10.5985 2.58271V2.58404ZM16.7474 9.66425C17.1143 9.25147 17.0772 8.6194 16.6644 8.25248C16.2516 7.88556 15.6195 7.92274 15.2526 8.33552L10.6667 13.4947L8.74742 11.3355C8.3805 10.9227 7.74843 10.8856 7.33565 11.2525C6.92286 11.6194 6.88568 12.2515 7.2526 12.6643L9.91927 15.6643C10.109 15.8777 10.381 15.9999 10.6667 15.9999C10.9523 15.9999 11.2243 15.8777 11.4141 15.6643L16.7474 9.66425Z" fill="#2C59D1"/>
</svg>
