<svg width="16" height="16" viewBox="0 0 16 16" fill="none" xmlns="http://www.w3.org/2000/svg">
<path fill-rule="evenodd" clip-rule="evenodd" d="M13.0448 12.9785C12.6419 13.4309 11.9669 13.4539 11.5371 13.0297L3.00381 4.60869C2.57404 4.18457 2.55226 3.47402 2.95517 3.02162C3.35809 2.56923 4.03311 2.54631 4.46288 2.97043L12.9962 11.3915C13.426 11.8156 13.4478 12.5261 13.0448 12.9785Z" fill="#FCFCFC"/>
<path fill-rule="evenodd" clip-rule="evenodd" d="M12.9785 2.95525C13.4309 3.35816 13.4538 4.03318 13.0297 4.46295L4.60861 12.9963C4.18449 13.4261 3.47394 13.4478 3.02155 13.0449C2.56916 12.642 2.54623 11.967 2.97035 11.5372L11.3914 3.00388C11.8155 2.57411 12.5261 2.55233 12.9785 2.95525Z" fill="#FCFCFC"/>
</svg>
