<svg width="24" height="24" viewBox="0 0 24 24" fill="none" xmlns="http://www.w3.org/2000/svg">
<path d="M10.8453 8.28562C11.5598 7.90479 12.4402 7.90479 13.1547 8.28562L15.8453 9.71966C16.5598 10.1005 17 10.8043 17 11.566V14.434C17 15.1957 16.5598 15.8995 15.8453 16.2803L13.1547 17.7144C12.4402 18.0952 11.5598 18.0952 10.8453 17.7144L8.1547 16.2803C7.44017 15.8995 7 15.1957 7 14.434V11.566C7 10.8043 7.44017 10.1005 8.1547 9.71966L10.8453 8.28562Z" fill="#D6D8E7"/>
<path fill-rule="evenodd" clip-rule="evenodd" d="M18.447 7.39408L13.1952 4.46304C12.4597 4.05254 11.5403 4.05254 10.8048 4.46304L5.55296 7.39408C4.86716 7.77683 4.44204 8.4607 4.42804 9.20367L4.32086 14.8933C4.30585 15.6902 4.76555 16.4297 5.51609 16.816L10.8751 19.5747C11.5749 19.9349 12.4251 19.9349 13.1249 19.5747L18.4839 16.816C19.2345 16.4297 19.6942 15.6902 19.6791 14.8933L19.572 9.20367C19.558 8.4607 19.1328 7.77683 18.447 7.39408ZM14.3905 2.61575C12.9194 1.79475 11.0806 1.79475 9.60955 2.61575L4.35773 5.54679C2.98613 6.31228 2.13589 7.68002 2.10789 9.16597L2.00071 14.8556C1.97069 16.4493 2.89009 17.9283 4.39117 18.701L9.75016 21.4597C11.1498 22.1801 12.8502 22.1801 14.2498 21.4597L19.6088 18.701C21.1099 17.9283 22.0293 16.4493 21.9993 14.8556L21.8921 9.16597C21.8641 7.68002 21.0139 6.31228 19.6423 5.54679L14.3905 2.61575Z" fill="#A0A3BD"/>
<path d="M12.9915 9.23212C12.9089 9.31643 12.8626 9.42978 12.8626 9.54783C12.8626 9.66588 12.9089 9.77923 12.9915 9.86354L13.7131 10.5852C13.7974 10.6678 13.9108 10.7141 14.0288 10.7141C14.1469 10.7141 14.2602 10.6678 14.3446 10.5852L16.0449 8.88485C16.2716 9.386 16.3403 9.94437 16.2417 10.4855C16.1431 11.0267 15.8819 11.525 15.493 11.914C15.104 12.3029 14.6057 12.5641 14.0645 12.6627C13.5234 12.7613 12.965 12.6926 12.4638 12.4659L9.34736 15.5823C9.16794 15.7618 8.92459 15.8626 8.67085 15.8626C8.41711 15.8626 8.17376 15.7618 7.99433 15.5823C7.81491 15.4029 7.71411 15.1596 7.71411 14.9058C7.71411 14.6521 7.81491 14.4087 7.99433 14.2293L11.1108 11.1128C10.884 10.6117 10.8154 10.0533 10.914 9.51214C11.0126 8.97096 11.2738 8.47269 11.6627 8.08373C12.0517 7.69476 12.55 7.43357 13.0911 7.33497C13.6323 7.23637 14.1907 7.30503 14.6918 7.53182L12.996 9.22761L12.9915 9.23212Z" fill="#A0A3BD"/>
</svg>
