<svg width="48" height="48" viewBox="0 0 48 48" fill="none" xmlns="http://www.w3.org/2000/svg">
<path d="M28.6279 13.0579C28.2423 13.4514 28.0263 13.9803 28.0263 14.5312C28.0263 15.0821 28.2423 15.6111 28.6279 16.0045L31.9955 19.3721C32.3889 19.7577 32.9179 19.9737 33.4688 19.9737C34.0197 19.9737 34.5486 19.7577 34.9421 19.3721L40.8325 13.4817C41.8209 12.4933 43.486 12.8132 43.7582 14.1843C44.0659 15.7339 44.0817 17.3361 43.7955 18.9072C43.3353 21.4327 42.1164 23.758 40.3013 25.5731C38.4861 27.3883 36.1608 28.6072 33.6353 29.0674C32.0231 29.3611 30.3781 29.3367 28.7907 29.0053C27.161 28.6651 25.3861 28.928 24.2088 30.1053L11.6218 42.6923C10.7845 43.5296 9.6489 44 8.46477 44C7.28064 44 6.14501 43.5296 5.3077 42.6923C4.47039 41.855 4 40.7194 4 39.5352C4 38.3511 4.47039 37.2155 5.3077 36.3782L17.8947 23.7912C19.072 22.6139 19.3349 20.839 18.9947 19.2093C18.6633 17.6219 18.6389 15.9769 18.9327 14.3647C19.3928 11.8392 20.6117 9.51392 22.4269 7.69875C24.242 5.88357 26.5673 4.66469 29.0928 4.20454C30.6639 3.91828 32.2661 3.93413 33.8157 4.24179C35.1868 4.514 35.5067 6.17912 34.5183 7.16754L28.649 13.0369L28.6279 13.0579Z" fill="#FF6400"/>
</svg>
