<svg width="17" height="16" viewBox="0 0 17 16" fill="none" xmlns="http://www.w3.org/2000/svg">
<path d="M10.2093 4.35264C10.0808 4.48378 10.0088 4.6601 10.0088 4.84374C10.0088 5.02738 10.0808 5.2037 10.2093 5.33484L11.3318 6.45735C11.463 6.5859 11.6393 6.6579 11.8229 6.6579C12.0066 6.6579 12.1829 6.5859 12.314 6.45735L14.2775 4.49389C14.607 4.16441 15.162 4.27107 15.2527 4.72809C15.3553 5.24464 15.3606 5.7787 15.2652 6.30241C15.1118 7.14423 14.7055 7.91932 14.1004 8.52438C13.4954 9.12944 12.7203 9.53573 11.8784 9.68911C11.341 9.78703 10.7927 9.77891 10.2636 9.66844C9.72032 9.55502 9.1287 9.64268 8.73627 10.0351L4.54061 14.2308C4.26151 14.5099 3.88297 14.6667 3.48826 14.6667C3.09355 14.6667 2.715 14.5099 2.4359 14.2308C2.1568 13.9517 2 13.5731 2 13.1784C2 12.7837 2.1568 12.4052 2.4359 12.126L6.63156 7.93039C7.02399 7.53796 7.11164 6.94634 6.99822 6.40308C6.88776 5.87397 6.87963 5.32564 6.97755 4.78821C7.13093 3.94639 7.53723 3.1713 8.14228 2.56624C8.74734 1.96118 9.52243 1.55489 10.3643 1.40151C10.888 1.30609 11.422 1.31137 11.9386 1.41393C12.3956 1.50466 12.5022 2.0597 12.1728 2.38917L10.2163 4.34562L10.2093 4.35264Z" fill="#FF6400"/>
</svg>
