<svg width="16" height="17" viewBox="0 0 16 17" fill="none" xmlns="http://www.w3.org/2000/svg">
<path fill-rule="evenodd" clip-rule="evenodd" d="M11.5372 13.529C11.967 13.9531 12.642 13.9302 13.0449 13.4778C13.4478 13.0254 13.4261 12.3149 12.9963 11.8907L9.54927 8.48909L13.0297 4.96222C13.4539 4.53245 13.4309 3.85742 12.9785 3.45451C12.5261 3.0516 11.8156 3.07338 11.3915 3.50315L7.98982 6.95016L4.46295 3.4697C4.03318 3.04558 3.35816 3.0685 2.95525 3.52089C2.55233 3.97328 2.57411 4.68384 3.00388 5.10795L6.45089 8.50961L2.97043 12.0365C2.54631 12.4662 2.56923 13.1413 3.02162 13.5442C3.47402 13.9471 4.18457 13.9253 4.60869 13.4955L8.01034 10.0485L11.5372 13.529Z" fill="#FF6400"/>
</svg>
