<svg width="32" height="32" viewBox="0 0 32 32" fill="none" xmlns="http://www.w3.org/2000/svg">
<path fill-rule="evenodd" clip-rule="evenodd" d="M26.0897 25.9568C25.2839 26.8616 23.9338 26.9075 23.0743 26.0592L6.00762 9.21713C5.14807 8.36889 5.10452 6.94779 5.91035 6.043C6.71617 5.13822 8.06622 5.09238 8.92577 5.94061L25.9924 22.7827C26.852 23.6309 26.8955 25.052 26.0897 25.9568Z" fill="black"/>
<path fill-rule="evenodd" clip-rule="evenodd" d="M25.9569 5.91025C26.8617 6.71607 26.9076 8.06612 26.0593 8.92566L9.21722 25.9923C8.36899 26.8519 6.94788 26.8954 6.0431 26.0896C5.13831 25.2838 5.09247 23.9337 5.94071 23.0742L22.7828 6.00752C23.631 5.14797 25.0521 5.10442 25.9569 5.91025Z" fill="black"/>
</svg>
