<svg width="17" height="12" viewBox="0 0 17 12" fill="none" xmlns="http://www.w3.org/2000/svg">
<path d="M15.8666 2.09999C15.6666 1.39999 15.1666 0.899994 14.4666 0.699994C13.2666 0.399994 8.1666 0.399994 8.1666 0.399994C8.1666 0.399994 3.16661 0.399994 1.86661 0.699994C1.16661 0.899994 0.666598 1.39999 0.466599 2.09999C0.266599 3.39999 0.266602 5.99999 0.266602 5.99999C0.266602 5.99999 0.266605 8.59999 0.566605 9.89999C0.766605 10.6 1.2666 11.1 1.9666 11.3C3.1666 11.6 8.2666 11.6 8.2666 11.6C8.2666 11.6 13.2666 11.6 14.5666 11.3C15.2666 11.1 15.7666 10.6 15.9666 9.89999C16.2666 8.59999 16.2666 5.99999 16.2666 5.99999C16.2666 5.99999 16.2666 3.39999 15.8666 2.09999ZM6.6666 8.39999V3.59999L10.8666 5.99999L6.6666 8.39999Z" fill="#A0A3BD"/>
</svg>
